<?xml version="1.0" encoding="utf-8"?>
<!-- Generator: Adobe Illustrator 16.0.3, SVG Export Plug-In . SVG Version: 6.00 Build 0)  -->
<!DOCTYPE svg PUBLIC "-//W3C//DTD SVG 1.1//EN" "http://www.w3.org/Graphics/SVG/1.1/DTD/svg11.dtd">
<svg version="1.1" id="Layer_1" xmlns="http://www.w3.org/2000/svg" xmlns:xlink="http://www.w3.org/1999/xlink" x="0px" y="0px"
	 width="166.556px" height="69.135px" viewBox="0 0 166.556 69.135" enable-background="new 0 0 166.556 69.135"
	 xml:space="preserve">
<path fill="#61dafb" d="M106.365,49.823l0.584-0.77v-1.116h-1.35v1.116l0.592,0.777c-0.432,0.384-3.42,3.163-3.582,6.545h-0.014
	c0,0,0,0.027,0.011,0.068c0,0.071,0,0.143,0,0.214v12.445h0.123V57.152c0.245,1.505,0.8,4.82,1.113,6.482
	c0.333,1.771,1.212,5.446,1.22,5.483l0.123-0.028c-0.009-0.037-0.886-3.71-1.219-5.478c-0.382-2.031-1.122-6.53-1.228-7.178
	c0.129-3.345,3.094-6.111,3.536-6.506l0.009,0.013l0.016-0.02c0.423,0.368,3.553,3.27,3.553,6.737v12.445h0.123V56.659
	C109.966,53.124,106.771,50.182,106.365,49.823z M105.722,48.061h1.105v0.951l-0.553,0.727l-0.553-0.727V48.061z"/>
<path fill="#61dafb" d="M116.808,49.832l0.592-0.778v-1.116h-1.35v1.116l0.585,0.77c-0.405,0.358-3.601,3.301-3.601,6.836v12.445
	h0.123V56.659c0-3.466,3.131-6.364,3.552-6.739l0.016,0.021l0.01-0.013c0.386,0.344,2.673,2.477,3.352,5.224h-0.019
	c-0.016,0.083-1.596,8.316-2.009,10.065c-0.068,0.292-0.183,0.776-0.308,1.31c-0.216,0.923-0.468,1.996-0.588,2.5l0.123,0.029
	c0.122-0.505,0.368-1.579,0.589-2.501c0.122-0.533,0.238-1.018,0.307-1.31c0.368-1.581,1.705-8.479,1.964-9.834
	c0.088,0.414,0.133,0.835,0.134,1.257v12.445h0.123V56.659C120.399,53.151,117.253,50.226,116.808,49.832z M116.172,48.061h1.105
	v0.951l-0.553,0.727l-0.553-0.727V48.061z"/>
<path fill="#61dafb" d="M127.19,53.029c-0.406-0.809-1.065-2.37-1.743-4.051L125.421,46c0-0.016-0.089-1.532,0.086-1.998
	c0.104-0.277,0.272-0.527,0.49-0.729l0.012-0.009l0.368-0.798l0.04-0.507l-0.968-0.031v-0.757h-4.25v0.755h-7.856v-0.755h-4.4v0.755
	h-7.146v-0.755h-4.247v0.757l-0.968,0.031l0.034,0.491l0.368,0.818l0.011,0.009c0.22,0.2,0.388,0.45,0.491,0.729
	c0.07,0.186,0.107,0.575,0.109,1.126c0,0.457-0.022,0.868-0.022,0.875l-0.211,23.096h0.123l0.208-22.896h0.886l0.087,22.896h0.123
	L98.7,46.209l0,0v-0.537h2.18l0.082,8.934l0.368,2.632l0.03,11.867h0.123l-0.032-11.874l-0.368-2.632l-0.082-8.926h0.187
	l0.302,0.285h8.586v-0.571h2.332l0.123,0.587h8.961l0.245-0.704h0.009l-0.091,10.102l-0.368,2.627l-0.03,11.107h0.122l0.029-11.101
	l0.369-2.627l0.091-10.112l1.948-0.052l0.189,0.491l-0.103,23.399h0.122l0.103-23.089c0.368,0.95,0.785,1.996,1.193,2.999
	l0.184,20.09h0.123l-0.182-19.779c0.646,1.581,1.258,3.02,1.631,3.76c0.614,1.209,3.762,7.337,5.984,9.193l0.079-0.095
	C130.939,60.344,127.798,54.235,127.19,53.029z M124.107,44.249l0.022,0.391h-0.115v0.445h-0.102
	c-0.113-0.295-0.22-0.57-0.316-0.826L124.107,44.249z M124.134,45.508v-0.759l0,0h1.146c-0.013,0.301-0.009,0.613,0,0.859
	l-1.146-0.021L124.134,45.508z M126.263,42.438l-0.352,0.763c-0.231,0.212-0.409,0.476-0.519,0.771
	c-0.063,0.216-0.099,0.44-0.104,0.665h-1.036l-0.026-0.461l1.288-2.11l0.772,0.024L126.263,42.438z M125.327,41.307v0.754h0.047
	l-1.266,2.07l-0.562,0.015c-0.342-0.899-0.563-1.501-0.569-1.551h-0.123c0,0.056,0.217,0.657,0.557,1.555l-1.68,0.045l-0.351-2.223
	l-0.058,0.009v-0.675L125.327,41.307z M121.271,42.062l0.357,2.263l-0.207,0.281h-8.798l-0.194-0.296l0.946-2.248H121.271z
	 M113.216,41.307v0.755h0.025l-0.938,2.229l0,0h-2.261l-0.944-2.333l-0.04,0.017v-0.669L113.216,41.307z M109.011,42.062
	l0.938,2.315l0.018-0.008v0.491h-8.415l-0.302-0.285h-0.221l0.755-2.513L109.011,42.062z M101.678,41.307v0.683l-0.772,2.569h-0.023
	v0.014H98.69l-1.005-2.615l-0.014,0.007v-0.659L101.678,41.307z M97.089,43.201l-0.352-0.763l-0.025-0.349l0.881-0.027l0.99,2.56
	v0.491h-0.859c0-0.558-0.043-0.941-0.117-1.141c-0.108-0.297-0.286-0.563-0.518-0.778V43.201z M97.702,46.094V46.02
	c0,0,0.021-0.368,0.022-0.785h0.859v0.859H97.702z M98.707,45.557v-0.322h0.007v-0.545h2.17l0.008,0.859L98.707,45.557z
	 M121.653,45.155l-0.246,0.702h-8.77l-0.122-0.587h-2.554v0.57h-8.411l-0.302-0.284h-0.237l-0.007-0.859h0.195l0.302,0.284h8.585
	v-0.569h2.263l0.206,0.313h8.927l0.302-0.413l1.671-0.043c0.097,0.256,0.204,0.532,0.317,0.826L121.653,45.155z M124.013,45.214
	v0.143c-0.019-0.047-0.036-0.095-0.055-0.14L124.013,45.214z M124.153,45.721l1.134,0.02c0,0.156,0.011,0.261,0.012,0.276
	l0.024,2.664c-0.406-1.013-0.817-2.044-1.171-2.966L124.153,45.721z"/>
<path fill="#61dafb" d="M58.04,49.823l0.586-0.77v-1.116h-1.351v1.116l0.591,0.777c-0.442,0.394-3.591,3.314-3.591,6.828v12.445
	h0.123V56.659c0-3.444,3.09-6.326,3.543-6.73l0.01,0.013l0.016-0.02c0.421,0.368,3.552,3.27,3.552,6.737v12.445h0.122V56.659
	C61.641,53.124,58.447,50.182,58.04,49.823z M57.398,48.061h1.104v0.951l-0.552,0.727l-0.553-0.727V48.061z"/>
<path fill="#61dafb" d="M68.484,49.831l0.591-0.777v-1.116h-1.351v1.116l0.586,0.77c-0.405,0.358-3.601,3.301-3.601,6.836v12.445
	h0.122V56.659c0-3.466,3.132-6.364,3.553-6.737l0.015,0.02l0.01-0.013c0.386,0.344,2.673,2.477,3.353,5.224h-0.019
	c-0.016,0.083-1.596,8.316-2.009,10.065c-0.069,0.291-0.181,0.771-0.306,1.302c-0.217,0.924-0.469,2.003-0.591,2.508l0.123,0.029
	c0.122-0.506,0.368-1.585,0.59-2.509c0.123-0.532,0.237-1.011,0.305-1.302c0.368-1.581,1.705-8.479,1.964-9.834
	c0.088,0.414,0.132,0.835,0.133,1.257v12.445h0.123V56.659C72.075,53.151,68.928,50.225,68.484,49.831z M67.848,48.061h1.104v0.951
	l-0.553,0.727l-0.552-0.727V48.061z"/>
<path fill="#61dafb" d="M77.129,49.657l-0.033-3.651c0-0.015-0.087-1.532,0.087-1.997c0.104-0.279,0.272-0.528,0.491-0.729
	l0.011-0.009l0.369-0.798l0.04-0.507l-0.969-0.03v-0.758h-4.25v0.755H65.02v-0.755h-4.401v0.755H53.48v-0.755h-4.25v0.758
	l-0.97,0.03l0.035,0.491l0.368,0.818l0.01,0.009c0.22,0.201,0.388,0.451,0.491,0.729c0.069,0.186,0.107,0.574,0.108,1.125
	c0,0.457-0.022,0.868-0.022,0.876L49.04,69.109h0.123l0.208-22.895h0.886l0.087,22.895h0.123l-0.088-22.894l0,0v-0.544h2.192
	l0.084,8.934l0.368,2.632l0.03,11.867h0.123l-0.03-11.874l-0.368-2.632l-0.084-8.927h0.187l0.302,0.285h8.587v-0.571h2.333
	l0.122,0.587h8.961l0.246-0.705h0.01L73.35,55.369l-0.368,2.627L72.95,69.104h0.123l0.03-11.101l0.368-2.627l0.093-10.112
	l1.856-0.05L75.7,46.01L75.6,69.104h0.122l0.1-22.752c0.368,1.036,0.782,2.19,1.201,3.333L77.2,69.104h0.123l-0.175-19.074
	c0.939,2.555,1.874,4.99,2.31,5.854c0.796,1.582,5.469,10.375,7.533,13.184l0.1-0.072c-2.062-2.803-6.729-11.587-7.524-13.167
	C79.093,54.92,78.104,52.317,77.129,49.657z M75.81,45.508v-0.761v0.007h1.145c-0.012,0.301-0.008,0.613,0,0.859l-1.147-0.02
	L75.81,45.508z M75.783,44.249l0.023,0.391h-0.123v0.445l-0.193,0.006l-0.287-0.827L75.783,44.249z M77.938,42.431l-0.351,0.764
	c-0.231,0.213-0.409,0.477-0.52,0.771c-0.063,0.216-0.098,0.439-0.104,0.665H75.93l-0.028-0.462l1.289-2.109l0.771,0.024
	L77.938,42.431z M77.004,41.301v0.754h0.045l-1.266,2.07l-0.613,0.016c-0.309-0.894-0.504-1.48-0.514-1.553h-0.122
	c0,0.06,0.192,0.651,0.504,1.557l-1.627,0.043l-0.351-2.222l-0.059,0.009v-0.676L77.004,41.301z M72.946,42.056l0.357,2.262
	l-0.207,0.281h-8.798l-0.195-0.296l0.946-2.247H72.946z M64.892,41.301v0.755h0.025l-0.938,2.229l0,0h-2.262l-0.943-2.332
	l-0.041,0.017v-0.67L64.892,41.301z M60.686,42.056l0.938,2.315l0.018-0.008v0.491h-8.414l-0.303-0.285h-0.221l0.755-2.513
	L60.686,42.056z M53.353,41.301v0.688l-0.772,2.569h-0.023v0.014h-2.194l-1.006-2.615l-0.013,0.007v-0.659L53.353,41.301z
	 M48.767,43.194l-0.352-0.762l-0.024-0.349l0.882-0.027l0.988,2.56v0.491h-0.859c0-0.558-0.042-0.941-0.117-1.141
	C49.175,43.672,48.997,43.407,48.767,43.194z M49.38,46.088v-0.075c0,0,0.021-0.368,0.022-0.784h0.859v0.328v0.531H49.38z
	 M50.384,45.551v-0.322h0.008v-0.539h2.17l0.009,0.859L50.384,45.551z M73.331,45.148l-0.246,0.703h-8.768l-0.123-0.587h-2.554v0.57
	h-8.415l-0.302-0.284h-0.229l-0.009-0.859h0.195l0.302,0.284h8.587v-0.569h2.262l0.206,0.313h8.927l0.302-0.413l1.615-0.042
	c0.087,0.255,0.184,0.532,0.286,0.826L73.331,45.148z M75.54,45.213h0.148v0.427c-0.054-0.149-0.103-0.289-0.15-0.427H75.54z
	 M75.811,45.979v-0.264l1.151,0.02c0.006,0.156,0.011,0.261,0.012,0.276l0.031,3.302c-0.424-1.158-0.837-2.313-1.197-3.334H75.811z"
	/>
<path fill="#61dafb" d="M146.415,19.814l-1.832-0.724V17.1c0-0.21-0.797-0.325-1.689-0.391l-2.239-5.646V0h-0.123v11.01
	l-2.151,5.684c-1.018,0.059-2.021,0.177-2.021,0.412v1.491h-1.351v0.062l-1.842,50.44h0.123l1.781-48.815l1.899,48.793h0.122
	l-1.964-50.356h8.095l-3.84,50.355l0.123,0.009l3.799-49.839l3.711,49.856l0.123-0.01l-3.747-50.329l2.936,1.16l1.502,49.173h0.123
	l-1.495-49.225C146.456,19.846,146.439,19.823,146.415,19.814z M142.759,16.702c-0.839-0.056-1.727-0.069-2.104-0.071v-5.238
	L142.759,16.702z M140.531,11.354v5.278h-0.061c-0.08,0-1.005,0-1.957,0.053L140.531,11.354z M143.355,18.609v-0.016h-6.875v-1.485
	c0.077-0.146,1.545-0.356,3.991-0.356s3.912,0.211,3.989,0.35v1.943L143.355,18.609z"/>
<path fill="#61dafb" d="M13.112,26.57h-1.228v-1.965h-1.596v-1.104h-0.62L8.751,11.283v-0.058H7.568V0.408H7.446v10.817H6.311
	L5.388,23.501H4.65v1.104H3.178v1.965H1.827v6.169H0v36.379h0.122V32.862h4.91v36.256h0.123V32.739H1.951v-6.047h11.048v6.047H9.871
	v36.379h0.123V32.862h4.91v36.256h0.123V32.739h-1.904L13.112,26.57z M6.421,11.349h2.21l0.913,12.152H5.505L6.421,11.349z
	 M4.765,23.624h5.401v0.981H4.765V23.624z M3.292,24.729h8.47v1.842h-8.47V24.729z"/>
<rect x="5.963" y="30.187" fill="#61dafb" width="0.123" height="38.927"/>
<rect x="7.222" y="30.187" fill="#61dafb" width="0.122" height="38.927"/>
<rect x="8.479" y="30.187" fill="#61dafb" width="0.123" height="38.927"/>
<rect x="11.431" y="34.077" fill="#61dafb" width="0.123" height="35.036"/>
<rect x="12.397" y="34.077" fill="#61dafb" width="0.123" height="35.036"/>
<rect x="13.366" y="34.077" fill="#61dafb" width="0.123" height="35.036"/>
<rect x="1.415" y="34.601" fill="#61dafb" width="0.123" height="34.513"/>
<rect x="2.384" y="34.601" fill="#61dafb" width="0.122" height="34.513"/>
<rect x="3.351" y="34.601" fill="#61dafb" width="0.123" height="34.513"/>
<path fill="#61dafb" d="M44.454,47.25l-2.67-1.63l-1.596,2.098c-0.048,0.017-0.229,0.06-0.477-0.142
	c-0.29-0.237-0.999-0.931-1.319-2.239c-0.33-1.351-2.066-3.806-3.146-4.464c-0.981-0.594-2.059-0.473-2.332-0.427
	c-0.024-0.256-0.109-1.178-0.109-1.56c0-0.381,0.407-2.051,0.779-2.737c0.372-0.686,0.132-1.42,0.095-1.524l0.018-0.949l4.419-0.522
	c0.033,0,0.062-0.027,0.062-0.062s-0.028-0.062-0.062-0.062c-1.631-0.043-4.051-0.114-4.407-0.14
	c-0.012-0.155-0.039-0.31-0.081-0.46l3.204-1.76c0.027-0.015,0.039-0.048,0.027-0.077c-0.013-0.028-0.044-0.044-0.074-0.035
	l-3.568,1.034c-0.174-0.232-0.381-0.439-0.613-0.613l1.517-2.659c0.018-0.029,0.007-0.066-0.022-0.084
	c-0.024-0.014-0.055-0.01-0.074,0.011l-2.292,2.261c-0.346-0.129-0.709-0.207-1.078-0.23l-1.358-3.248
	c-0.012-0.029-0.043-0.044-0.072-0.036c-0.03,0.009-0.049,0.037-0.045,0.067l0.4,3.285c-0.354,0.07-0.694,0.194-1.01,0.368
	l-3.506-2.012c-0.027-0.015-0.062-0.008-0.08,0.018c-0.019,0.024-0.016,0.06,0.008,0.081l2.758,2.586
	c-0.121,0.146-0.227,0.305-0.314,0.473l-3.087-0.01c-0.087-0.374-0.143-0.754-0.167-1.137c-0.097-1.552-0.491-2.594-0.798-3.43
	c-0.146-0.358-0.263-0.728-0.35-1.104c-0.19-0.991-0.271-2.976-0.271-3.6c0-0.408-0.297-1.09-0.558-1.625l0,0v-0.009
	c-0.077-0.157-0.149-0.302-0.211-0.422c-0.062-0.121-0.111-0.22-0.138-0.277c-0.025-0.059-0.153-0.893-0.122-1.112h-0.008
	c0.046-0.142,0.078-0.286,0.096-0.434h0.097c0.028,0,0.685,0.015,0.982-0.196c0.325-0.232,0.498-0.54,0.464-0.815l0.01-1.484v-0.012
	c-0.084-0.204-0.831-0.338-1.695-0.396v-0.592c0.238-0.133,0.438-0.323,0.583-0.554c0.061-0.117,0.108-0.24,0.143-0.368
	c0.069-0.276,0.187-0.538,0.349-0.771c0.246-0.304,0.271-0.945,0.153-1.188l-0.034-0.071l-0.06,0.051
	c-0.282,0.214-0.577,0.409-0.886,0.583c-0.02,0.01-0.044,0.01-0.063,0c-0.02-0.011-0.033-0.03-0.036-0.053
	c-0.004-0.11,0-0.22,0.013-0.329c0.012-0.122,0.017-0.245,0.016-0.368v-0.103l-0.088,0.052c-0.329,0.191-0.906,0.501-1.151,0.568
	c-0.108,0.031-1.065,0.319-1.36,1.146c-0.197,0.558,0.326,1.286,0.42,1.409v0.594c-0.794,0.055-1.584,0.175-1.584,0.415v1.417h0.008
	c0,0.159,0.04,0.62,0.358,0.823c0.14,0.088,0.292,0.153,0.452,0.193c0.012,0.149,0.067,0.613,0.28,0.89
	c0.105,0.127,0.229,0.238,0.368,0.328h-0.188c-0.149,0-0.267,0.17-0.267,0.393c0.004,0.11,0.042,0.216,0.109,0.303
	c-0.123,0.069-0.198,0.2-0.196,0.342c0.199,0.121,0.262,0.381,0.141,0.58c-0.017,0.027-0.036,0.053-0.059,0.075
	c0,0.133,0.077,0.387,0.314,0.387h0.23l0.086,3.529c0,0.282,0.186,0.531,0.456,0.613c0.117,0.126,0.201,0.277,0.245,0.443
	c0,0.148-0.072,1.933,0.039,3.009c0.117,1.118,0.851,3.405,0.859,3.425l0.383,1.531l-1.236,2.549
	c-0.02,0.057-0.471,1.387-0.272,1.981c0.062,0.185,0.123,0.416,0.185,0.64c0.195,0.722,0.283,0.991,0.432,0.953
	c0.226-0.024,0.452,0.002,0.666,0.077c0.16,0.053,0.308,0.261,0.368,0.354c-0.158,0.12-0.304,0.256-0.435,0.405
	c-0.198,0.309-0.126,0.717,0.167,0.938c0.214,0.16,0.479,0.237,0.746,0.216c-0.039,0.381-0.036,0.765,0.008,1.145
	c0.068,0.415,0.231,1.113,0.266,1.258c-0.136,0.199-0.613,0.937-0.361,1.146c0.213,0.213,0.406,0.444,0.575,0.692l0.458,0.533
	l0.167,0.626l-0.038,0.039l-0.015,0.021c-0.006,0.016-0.625,1.63-1.271,2.389c-0.692,0.813-0.547,3.601-0.442,4.513
	c0.104,0.911,1.021,1.302,1.269,1.391c-0.186,0.587-0.634,1.964-0.753,2.14c-0.167,0.245-0.285,2.322-0.123,2.999
	c0.119,0.432,0.268,0.854,0.446,1.266c0.134,0.331,0.271,0.675,0.368,0.99c0.226,0.716,0.069,4.131-0.063,4.326
	c-0.169,0.167-0.209,0.925-0.213,1.011h0.123c0.015-0.306,0.075-0.828,0.176-0.929c0.183-0.183,0.313-3.387,0.122-4.326h0.01
	c0.008-0.038,0.667-3.792,1.316-5.088c0.338-0.676,0.859-2.258,1.373-3.788c0.475-1.429,0.924-2.778,1.105-3.037
	c0.388-0.542,2.107-4.051,2.179-4.197l1.504-2.427c0.524-0.599,1.086-1.203,1.552-1.664c-0.079,0.251-0.175,0.497-0.285,0.736
	c-0.024,0.053-0.044,0.101-0.065,0.148c-0.021,0.048-0.045,0.111-0.077,0.177c-0.251,0.542-0.538,1.065-0.859,1.568
	c-0.517,0.747-0.781,1.07-0.784,1.074l0.095,0.077c0,0,0.27-0.33,0.79-1.081c0.323-0.508,0.61-1.038,0.859-1.586
	c0.033-0.066,0.057-0.123,0.081-0.182c0.024-0.06,0.038-0.094,0.063-0.144c0.024-0.051,0.048-0.105,0.071-0.158
	c-0.012,0.087-0.021,0.174-0.025,0.255c-0.029,0.425-0.519,2.968-0.698,3.628c-0.084,0.304-0.409,1.089-0.754,1.917
	c-0.368,0.895-0.756,1.82-0.878,2.245c-0.063,0.221-0.176,0.598-0.308,1.049c-0.353,1.188-0.884,2.982-1.034,3.645l0.123,0.026
	c0.148-0.657,0.679-2.455,1.031-3.636c0.133-0.452,0.245-0.83,0.308-1.05c0.123-0.418,0.504-1.34,0.874-2.232
	c0.347-0.833,0.673-1.619,0.759-1.933c0.181-0.663,0.673-3.222,0.701-3.651c0.029-0.308,0.076-0.613,0.141-0.915
	c0.013-0.035,0.022-0.066,0.027-0.075h-0.01c0.006-0.03,0.011-0.053,0.014-0.063c0.122-0.123,0.239-0.225,0.341-0.315
	c0.8-0.698,1.145-1.305,1.234-1.482c0.218,0.179,0.461,0.324,0.723,0.431c0.032,0.11,0.129,0.45,0.254,0.867l0,0
	c0,0.025,0.1,2.486-0.123,3.151c-0.181,0.47-0.429,0.91-0.736,1.308l0.036,0.028c-0.678,0.063-0.737,1.247-0.737,1.3l0,0
	c-0.009,0.099,0.038,0.194,0.123,0.245c0.128,0.077,0.266,0.138,0.409,0.18c0.211,0.071,0.411,0.139,0.537,0.314
	c0.172,0.242,0.251,0.538,0.224,0.835c0,0.011-0.229,1.092-0.815,1.868c-0.3,0.397-1.871,1.718-2.332,2.087
	c-0.109,0.08-0.18,0.204-0.193,0.34c-0.026,0.286,0.211,0.597,0.419,0.836l0.012-0.01l-0.368,4.419l-0.01-0.008
	c-0.296,0.369-1.842,2.807-2.049,3.255c-0.188,0.413-1.263,1.566-2.124,2.428c-0.861,0.862-2.168,3.401-2.223,3.51l0.107,0.057
	c0.014-0.027,1.362-2.642,2.201-3.479c0.912-0.91,1.954-2.035,2.149-2.463c0.186-0.407,1.481-2.455,1.929-3.089L30.456,69.1
	l0.123,0.01l1.266-15.05c0.626-0.523,1.7-1.445,1.951-1.778c0.604-0.799,0.828-1.872,0.838-1.92c0.035-0.329-0.053-0.66-0.246-0.929
	c-0.148-0.207-0.377-0.284-0.598-0.359c-0.133-0.038-0.262-0.094-0.38-0.166c-0.042-0.028-0.083-0.078-0.073-0.122
	c0.008-0.022,0.02-0.043,0.035-0.061c0.215-0.267,0.643-0.319,0.956-0.233c0.271,0.075,0.353,0.41,0.425,0.705
	c0.015,0.059,0.028,0.115,0.043,0.167c0.04,0.144,0.081,0.293,0.122,0.447h-0.006c0.007,0.011,0.012,0.021,0.016,0.032
	c0.017,0.061,0.032,0.123,0.047,0.183c0.051,0.246,0.107,0.658,0.162,1.061c0.063,0.448,0.133,0.955,0.211,1.397
	c0.198,1.104,0.737,7.242,0.737,8.102c0,0.29,0.107,1.228,0.245,2.364l0,0l0.007,0.009c0.267,2.087,0.656,4.807,0.713,5.202
	l-1.382,0.872l0.065,0.103l1.415-0.893c0.021-0.013,0.031-0.037,0.028-0.061c-0.006-0.043-0.408-2.846-0.693-5.055
	c0.234,0.264,0.697,0.746,1.111,0.945c0.582,0.28,1.462,0.93,1.547,1.081l0.021-0.012l0.341,2.78l0.055,1.175h0.122l-0.055-1.18
	l-0.886-7.232l0.905-0.035c0.736-0.03,0.85-0.538,0.906-0.781c0.007-0.037,0.016-0.074,0.027-0.11l0,0
	c0.165,0.043,0.352,0.092,1.041-0.444c0.69-0.536,0.993-4.518,1.031-5.04c0.305-0.046,0.592-0.169,0.835-0.356
	c0.395-0.315,1.003-2.887,1.071-3.179v-0.023l-0.563-1.029l1.18-2.031L44.454,47.25z M31.596,55.306
	c-0.172-0.205-0.34-0.45-0.32-0.664c0.01-0.103,0.064-0.195,0.148-0.254c0.055-0.045,0.149-0.123,0.268-0.22L31.596,55.306z
	 M40.253,47.824l0.013-0.007l1.549-2.035l2.578,1.574l0.558,0.321l-1.118,1.939c-0.114-0.065-0.294-0.169-0.427-0.257l-0.081-0.049
	l1.105-1.92l-0.105-0.062l-1.105,1.923c-0.203-0.101-0.45-0.017-0.55,0.188c-0.045,0.093-0.055,0.198-0.025,0.297
	c-0.023-0.004-0.048-0.006-0.071-0.007c-0.118,0.003-0.23,0.052-0.312,0.137c-0.094,0.098-0.146,0.227-0.146,0.361
	c0,0.03,0.005,0.06,0.013,0.088c-0.115-0.021-0.233,0.014-0.317,0.095l-0.028,0.017l-0.013,0.01
	c-0.128,0.109-0.167,0.291-0.096,0.444c-0.099,0.011-0.191,0.052-0.266,0.116h-0.03l-0.018,0.016
	c-0.078,0.078-0.122,0.183-0.123,0.293c-0.002,0.105,0.038,0.208,0.11,0.286l0.197,0.307c0.007,0.023,0.029,0.098,0.059,0.206
	l-0.022-0.014l-2.757,4.76l-0.548-0.405l-0.068-3.964l0,0c0-0.01,0-0.053-0.008-0.123v-0.059c0.091-0.16,0.818-1.442,0.967-1.776
	s0.122-1.324,0.122-1.481l0.795-1.184C40.142,47.86,40.199,47.848,40.253,47.824L40.253,47.824z M41.769,52.874
	c0.013,0.074,0.032,0.148,0.059,0.22l-2.31,4.007l-0.58-0.194l2.7-4.665C41.678,52.413,41.729,52.638,41.769,52.874L41.769,52.874z
	 M39.634,47.67c0.093,0.08,0.202,0.138,0.32,0.17l-0.781,1.163v0.021c0,0.011,0.037,1.115-0.11,1.447
	c-0.123,0.272-0.653,1.221-0.873,1.61c-0.04-0.55-0.115-1.514-0.177-1.905c-0.088-0.557-0.408-2.188-0.528-2.461
	c-0.112-0.246-0.519-2.751-0.549-3.126c-0.026-0.31-0.527-1.82-0.668-2.239l0.335,0.049v-0.017c0.763,0.969,1.473,2.178,1.667,2.984
	C38.601,46.71,39.334,47.426,39.634,47.67L39.634,47.67z M35.181,40.978c0.39,0.235,0.866,0.711,1.329,1.283
	c-0.317-0.046-1.217-0.173-1.511-0.173c-0.394,0-0.826-0.218-1.358-0.685c-0.583-0.509-0.563-0.838-0.563-0.841l0,0
	c0.113-0.017,0.228-0.027,0.342-0.031C34.036,40.516,34.646,40.67,35.181,40.978L35.181,40.978z M33.469,36.092
	c-0.388,0.714-0.794,2.388-0.794,2.795c0,0.408,0.093,1.399,0.112,1.597H32.78c-0.205-0.095-0.393-0.223-0.555-0.379
	c-0.154-0.173-0.236-0.397-0.23-0.629l-0.131-2.797c0.075-0.113,0.142-0.231,0.199-0.354c0.153-0.354,0.236-0.938,0.265-1.265h0.016
	c0-0.023,0-0.049-0.01-0.075c0-0.05,0.007-0.092,0.007-0.122h-0.023c0-0.031-0.006-0.061-0.01-0.093
	c-0.033-0.344-0.071-0.736-0.28-0.939c-0.148-0.126-0.328-0.211-0.521-0.246c-0.225-0.055-0.439-0.145-0.637-0.265
	c-0.293-0.19-0.571-0.403-0.83-0.638c-0.001-0.005-0.003-0.009-0.006-0.014c-0.024-0.022-0.062-0.025-0.089-0.006
	c-0.015,0.011-0.023,0.027-0.024,0.046l0,0c-0.126,0.192-0.269,0.373-0.426,0.541c-0.139,0.126-0.285,0.243-0.438,0.35
	c-0.285,0.203-0.557,0.426-0.813,0.666l0,0c-0.025,0.025-0.052,0.051-0.073,0.077c-0.31,0.341-0.565,1.047-0.652,1.307
	c-0.029-0.038-0.062-0.075-0.096-0.11c-0.106-0.106-0.085-0.296-0.03-0.752c0.011-0.104,0.024-0.221,0.039-0.353h-0.039h0.039
	c0-1.363,1.351-2.473,2.999-2.473c1.63,0,3.115,1.275,3.115,2.677v0.021c0.009,0.006,0.282,0.769-0.077,1.438V36.092z
	 M28.436,36.559c-0.01-0.014-0.025-0.023-0.043-0.025c0,0-0.368-0.046-0.53-0.22c-0.073-0.087-0.132-0.185-0.174-0.289
	c-0.012-0.084-0.039-0.165-0.081-0.238c0.012-0.04,0.307-0.971,0.656-1.357l0.037-0.038c0.245,0,1.084-0.018,1.323-0.022
	c-0.013,0.284-0.2,0.515-0.439,0.527c-0.172,0.005-0.344,0-0.516-0.015l-0.013,0.122c0.009,0,0.186,0.018,0.389,0.018h0.145
	c0.324-0.016,0.573-0.337,0.556-0.715c-0.001-0.032-0.028-0.059-0.061-0.059l0,0l-1.256,0.022c0.211-0.194,0.479-0.396,0.707-0.563
	c0.159-0.113,0.311-0.236,0.454-0.369c0.152-0.163,0.291-0.339,0.415-0.525c0.252,0.225,0.521,0.43,0.804,0.614
	c0.208,0.127,0.434,0.221,0.67,0.278c0.172,0.031,0.332,0.106,0.467,0.218c0.069,0.075,0.119,0.166,0.146,0.265
	c-0.18,0-0.568-0.011-0.859-0.011h-0.544c-0.034,0-0.062,0.027-0.062,0.062v1.567c0,0.082-0.065,0.147-0.147,0.148h-0.446
	c-0.082,0-0.149-0.066-0.149-0.148h-0.122c0,0.149,0.121,0.271,0.271,0.271h0.442c0.149-0.001,0.271-0.122,0.271-0.271v-0.88
	c0.063,0,0.21,0,0.396,0c0.377,0,0.601-0.144,0.626-0.387l-0.123-0.014c-0.024,0.234-0.327,0.275-0.506,0.277
	c-0.178,0.003-0.33,0-0.394,0v-0.503h0.482c0.313,0,0.736,0.008,0.894,0.011c0.031,0.158,0.054,0.318,0.066,0.479
	c0.006,0.071,0.014,0.141,0.021,0.205c-0.021,0.299-0.103,0.923-0.261,1.288c-0.21,0.482-0.982,1.458-1.265,1.458h-1.132
	C29.332,37.732,28.75,37.012,28.436,36.559L28.436,36.559z M26.857,36.984c-0.04,0.013-0.083,0.013-0.123,0
	c-0.123-0.034-0.361-0.191-0.65-0.859c-0.185-0.385-0.296-0.802-0.328-1.228c-0.007-0.235-0.068-0.466-0.179-0.674
	c-0.031-0.058-0.058-0.111-0.081-0.163l1.769-0.037l0.052,0.413c-0.014,0.129-0.027,0.245-0.039,0.346
	c-0.058,0.498-0.081,0.705,0.067,0.854c0.07,0.071,0.13,0.154,0.174,0.245h-0.011c0.018,0.062,0.038,0.122,0.063,0.181
	c0.002,0.019,0.002,0.037,0,0.055c-0.026,0.109-0.104,0.197-0.208,0.237C27.097,36.463,26.905,36.701,26.857,36.984L26.857,36.984z
	 M24.484,32.373l2.681,0.26c-0.019,0.126-0.028,0.252-0.028,0.379l0.024,0.2l-1.864,0.218l0.014,0.123l1.866-0.218l0.068,0.563
	l-1.809,0.036c-0.034-0.082-0.063-0.159-0.088-0.23c-0.097-0.267-0.167-0.459-0.455-0.669
	C24.734,32.918,24.596,32.678,24.484,32.373L24.484,32.373z M28.278,31.032l0.451,1.208l0.113-0.043l-0.46-1.239
	c0.174-0.117,0.359-0.217,0.554-0.297l0.256,1.38l0.075-0.015c-0.337,0.111-0.653,0.277-0.937,0.491l-0.57-0.941l-0.049,0.029
	C27.87,31.387,28.062,31.193,28.278,31.032L28.278,31.032z M31.896,32.174l0.452-1.212c0.16,0.104,0.31,0.224,0.447,0.354
	l-0.52,1.068c-0.122-0.08-0.249-0.152-0.38-0.216V32.174z M32.241,30.9l-0.458,1.228c-0.097-0.041-0.195-0.081-0.296-0.114
	l0.278-1.35c0.177,0.072,0.347,0.158,0.509,0.256L32.241,30.9z M31.369,31.975c-0.123-0.036-0.248-0.065-0.374-0.088l0.158-1.417
	c0.169,0.036,0.335,0.084,0.497,0.143L31.369,31.975z M30.872,31.869c-0.146-0.021-0.292-0.031-0.439-0.032h-0.011v-1.448
	c0.206,0.004,0.411,0.022,0.614,0.058L30.872,31.869z M30.299,31.842c-0.167,0.006-0.334,0.022-0.499,0.051l-0.074-1.455
	c0.189-0.03,0.382-0.046,0.573-0.049V31.842z M29.678,31.916c-0.124,0.025-0.247,0.058-0.368,0.096l-0.259-1.396
	c0.18-0.066,0.364-0.118,0.553-0.155L29.678,31.916z M28.234,32.593c-0.134,0.11-0.257,0.234-0.368,0.368l-0.454-0.786l0,0
	c0.066-0.181,0.155-0.353,0.264-0.512L28.234,32.593z M27.356,32.324l0.428,0.737c-0.195,0.255-0.335,0.548-0.413,0.859
	l-0.111-0.917C27.259,32.773,27.292,32.545,27.356,32.324L27.356,32.324z M33.578,33.062l-0.018,0.894
	c-0.16-0.467-0.438-0.884-0.809-1.211l0.613-0.638C33.505,32.405,33.578,32.732,33.578,33.062L33.578,33.062z M37.253,33.129
	l-3.56,0.422l0.01-0.491c0-0.017,0-0.032,0-0.05C34.105,33.04,36.08,33.098,37.253,33.129L37.253,33.129z M36.271,30.829
	l-2.693,1.479c-0.073-0.217-0.175-0.424-0.302-0.613L36.271,30.829z M33.308,31.988l-0.646,0.677
	c-0.095-0.08-0.194-0.156-0.297-0.228l0.02,0.011l0.504-1.039C33.054,31.582,33.194,31.777,33.308,31.988L33.308,31.988z
	 M33.774,28.644l-1.29,2.26c-0.202-0.14-0.419-0.257-0.646-0.35L33.774,28.644z M29.336,27.482l1.164,2.783h-0.139
	c-0.228,0-0.456,0.02-0.681,0.057L29.336,27.482z M25.443,29.068l2.988,1.718c-0.227,0.142-0.434,0.313-0.613,0.51L25.443,29.068z
	 M27.36,31.979c-0.076,0.171-0.133,0.35-0.169,0.533l-2.748-0.267c-0.029-0.087-0.056-0.18-0.081-0.275L27.36,31.979z
	 M21.726,20.296c0.025,0.056,0.071,0.146,0.129,0.262c-0.209-0.229-0.401-0.473-0.573-0.73L21.26,19.79
	c0.097-0.08,0.184-0.172,0.258-0.273c0.029-0.039,0.056-0.08,0.079-0.123c0.016,0.304,0.057,0.605,0.124,0.902H21.726z
	 M19.762,15.141c-0.006-0.009-0.603-0.776-0.413-1.312c0.222-0.623,0.908-0.965,1.277-1.067c0.245-0.069,0.775-0.351,1.088-0.528
	c0,0.078-0.009,0.164-0.017,0.245c-0.013,0.117-0.017,0.235-0.011,0.353c0.007,0.063,0.044,0.118,0.1,0.147s0.122,0.029,0.178,0
	c0.291-0.164,0.571-0.346,0.84-0.544c0.067,0.246,0.024,0.75-0.164,0.982c-0.172,0.246-0.297,0.522-0.369,0.813
	c-0.031,0.118-0.075,0.233-0.129,0.344c-0.142,0.22-0.337,0.4-0.566,0.525l-0.036,0.016v0.661c-0.27-0.015-0.55-0.023-0.822-0.023
	s-0.599,0.009-0.938,0.028v-0.629L19.762,15.141z M20.715,15.877c1.549,0,2.434,0.215,2.522,0.343l-0.009,1.244
	c-0.339-0.215-1.467-0.326-2.545-0.326c-0.231,0-2.021,0.01-2.492,0.282v-1.209c0.009-0.112,0.893-0.325,2.517-0.325L20.715,15.877z
	 M19.265,19.451c-0.227-0.291-0.259-0.859-0.259-0.867v-0.05l-0.049-0.009c-0.161-0.033-0.315-0.096-0.453-0.185
	c-0.319-0.204-0.302-0.765-0.302-0.772c0-0.11,0.829-0.309,2.484-0.309c1.602,0,2.481,0.223,2.524,0.348
	c0.086,0.246-0.068,0.553-0.394,0.783c-0.264,0.188-0.898,0.175-0.91,0.175l-0.209,0.007v0.055c0,0.006-0.04,0.513-0.27,0.806
	c-0.065,0.091-0.142,0.173-0.227,0.246c-0.137-0.2-0.317-0.38-0.524-0.276c-0.235,0.123-0.232,0.318-0.192,0.518
	c0.056,0.228,0.139,0.448,0.245,0.657c-0.061-0.045-0.133-0.068-0.207-0.069h-0.188c0.048-0.079,0.072-0.17,0.07-0.262
	c0-0.219-0.123-0.39-0.267-0.39h-0.352c-0.201-0.097-0.381-0.231-0.529-0.396L19.265,19.451z M19.351,19.979h0.784
	c0.069,0,0.144,0.108,0.144,0.266s-0.074,0.263-0.144,0.263h-0.771c-0.139,0-0.156-0.263-0.156-0.263
	c-0.006-0.148,0.07-0.258,0.138-0.258L19.351,19.979z M19.325,21.156c-0.19,0-0.205-0.259-0.205-0.266
	c-0.009-0.136,0.095-0.252,0.23-0.261c0.005,0,0.01,0,0.015,0h1.157c0.136,0,0.246,0.109,0.246,0.245c0,0.005,0,0.01,0,0.016
	c0.007,0.14-0.102,0.259-0.241,0.266c-0.002,0-0.003,0-0.005,0l0,0c-0.012,0-0.024,0-0.036,0H19.33H19.325z M19.202,21.546
	c-0.013-0.133,0.084-0.251,0.216-0.267h1.063c0.146,0.031,0.24,0.177,0.209,0.324c-0.022,0.104-0.104,0.186-0.209,0.209h-1.088
	c-0.185,0.008-0.197-0.25-0.197-0.258L19.202,21.546z M19.833,25.463l-0.086-3.528h0.736c0.201-0.015,0.353-0.188,0.34-0.389
	c0.002-0.119-0.048-0.232-0.137-0.311c0.124-0.07,0.2-0.202,0.198-0.346c0,0,0-0.006,0-0.01c0.041,0.075,0.077,0.142,0.107,0.193
	l-0.112,4.391c0,0.288-0.233,0.521-0.521,0.521c-0.041-0.001-0.083-0.007-0.123-0.017l-0.013-0.012l0,0
	c-0.226-0.056-0.388-0.254-0.396-0.485L19.833,25.463z M21.429,32.92c-0.007-0.023-0.736-2.298-0.852-3.405s-0.041-2.98-0.039-3
	v-0.009v-0.009c-0.038-0.138-0.096-0.269-0.174-0.389c0.354-0.001,0.641-0.288,0.643-0.642l0.092-3.615
	c0.085,0.523,0.328,1.201,1.003,1.49l0.048-0.113c-1.068-0.458-0.969-2.041-0.969-2.058v-0.02l-0.01-0.016
	c0-0.009-0.491-0.822-0.568-1.24c-0.037-0.19-0.028-0.308,0.123-0.384c0.077-0.039,0.21-0.044,0.45,0.368
	c0.207,0.304,0.437,0.591,0.688,0.859c0.096,0.109,0.187,0.212,0.216,0.254c0.256,0.524,0.547,1.188,0.547,1.574
	c0,0.626,0.081,2.623,0.272,3.622c0.088,0.383,0.207,0.758,0.355,1.121c0.31,0.828,0.694,1.86,0.79,3.394
	c0.054,0.853,0.284,1.887,0.671,2.311c-0.105,0.154-0.238,0.548-0.389,1c-0.098,0.291-0.198,0.592-0.299,0.848
	c-0.236,0.606-1.443,2.188-1.628,2.429l-0.183-0.04c-0.06-0.365-0.067-0.737-0.024-1.104c0.09-0.473-0.35-1.606-0.379-1.681
	L21.429,32.92z M21.506,40.567c-0.231-0.081-0.479-0.108-0.724-0.081c-0.076-0.06-0.206-0.542-0.294-0.859
	c-0.062-0.225-0.122-0.457-0.187-0.646c-0.186-0.556,0.267-1.888,0.27-1.896l1.181-2.433c0.116,0.317,0.392,1.128,0.325,1.482
	c-0.089,0.472,0.024,1.158,0.029,1.187l0.008,0.04l0.34,0.076l0.023-0.03c0.058-0.074,1.407-1.821,1.67-2.491
	c0.102-0.257,0.202-0.56,0.3-0.854c0.097-0.326,0.218-0.646,0.362-0.953l0.022,0.02c0.259,0.188,0.32,0.355,0.412,0.613
	c0.063,0.184,0.14,0.361,0.229,0.533c0.104,0.193,0.16,0.408,0.166,0.627c0,0.05,0.009,0.1,0.015,0.155l-0.018,0.007
	c0,0.006,0.04,0.133-0.122,0.659c-0.096,0.32-0.338,0.736-0.552,1.097c-0.14,0.215-0.257,0.443-0.353,0.681
	c-0.083,0.306-1.203,2.177-1.535,2.63c-0.266,0.368-0.953,0.746-1.142,0.848c-0.074-0.103-0.239-0.34-0.438-0.402L21.506,40.567z
	 M23.372,47.326l-0.449-0.531c0.176-0.27,1.188-1.824,1.485-2.445l0.096-0.199c0.32-0.669,0.76-1.583,0.841-1.878l-0.123-0.031
	c-0.077,0.283-0.513,1.192-0.832,1.855l-0.096,0.2c-0.278,0.582-1.228,2.045-1.453,2.393c-0.159-0.229-0.34-0.443-0.542-0.637
	c-0.122-0.107,0.162-0.663,0.4-1.005l0.017-0.021v-0.027c0-0.009-0.195-0.818-0.271-1.277c-0.042-0.396-0.042-0.793,0-1.188
	l0.009-0.081l-0.08,0.015c-0.258,0.034-0.519-0.03-0.729-0.182c-0.236-0.183-0.299-0.514-0.145-0.77
	c0.138-0.15,0.288-0.288,0.45-0.411c0.066-0.034,0.912-0.474,1.228-0.91c0.307-0.417,1.461-2.324,1.555-2.67
	c0.093-0.227,0.207-0.444,0.341-0.65c0.216-0.368,0.462-0.789,0.563-1.124c0.038-0.123,0.064-0.233,0.084-0.321
	c0.065,0.252,0.151,0.498,0.257,0.736c0.239,0.551,0.491,0.859,0.736,0.931c0.031,0.008,0.063,0.012,0.094,0.012
	c0.046,0.001,0.092-0.01,0.134-0.03c0.336,0.435,0.688,0.981,0.586,1.497c-0.037,0.184-0.06,0.406-0.083,0.644
	c-0.054,0.536-0.115,1.146-0.358,1.596c-0.148,0.273-0.568,1.002-0.571,1.009l0.106,0.062c0-0.007,0.424-0.736,0.573-1.012
	c0.254-0.468,0.316-1.089,0.368-1.637c0.023-0.235,0.046-0.456,0.081-0.632c0.123-0.581-0.286-1.188-0.65-1.651
	c0.055-0.224,0.212-0.409,0.423-0.5c0.105-0.045,0.192-0.125,0.246-0.226c0.035,0.059,0.076,0.113,0.122,0.164
	c0.162,0.18,0.482,0.245,0.579,0.255c0.054,0.078,0.196,0.275,0.368,0.491l-0.038,1.727h0.122l0.035-1.585
	c0.245,0.292,0.532,0.572,0.713,0.579h1.136c0.269,0,0.736-0.536,1.063-1.004l0.123,2.622c-0.01,0.265,0.086,0.522,0.265,0.717
	c0.137,0.134,0.291,0.247,0.46,0.338c-0.535,0.146-1.036,0.396-1.474,0.736c-0.646,0.171-1.611,1.038-2.389,1.737
	c-0.268,0.253-0.548,0.491-0.841,0.714c-0.526,0.35-3.666,3.468-4.379,4.174L23.372,47.326z M32.483,43.064
	c-0.73,0.678-1.422,1.396-2.07,2.15l0,0l-0.007,0.012c-0.506,0.566-0.982,1.158-1.43,1.772c-0.424,0.613-1.649,1.634-2.834,2.621
	c-0.749,0.623-1.456,1.214-1.938,1.679c-1.247,1.208-1.262,4.747-1.262,4.896h0.123c0-0.035,0.014-3.636,1.228-4.808
	c0.478-0.463,1.184-1.051,1.93-1.674c1.19-0.993,2.422-2.019,2.857-2.646c0.215-0.311,0.537-0.72,0.906-1.161l-1.09,1.76
	c-0.018,0.035-1.79,3.65-2.171,4.184c-0.196,0.274-0.627,1.569-1.125,3.068c-0.485,1.456-1.032,3.105-1.366,3.772
	c-0.572,1.143-1.135,4.061-1.287,4.899c-0.097-0.288-0.217-0.589-0.335-0.882c-0.176-0.405-0.322-0.822-0.44-1.248
	c-0.156-0.662-0.025-2.701,0.107-2.902c0.159-0.236,0.761-2.148,0.786-2.229l0.019-0.059l-0.061-0.019
	c-0.011,0-1.128-0.349-1.238-1.306c-0.104-0.898-0.246-3.639,0.412-4.419c0.638-0.749,1.228-2.249,1.289-2.412
	c0.214-0.213,3.929-3.923,4.489-4.297c0.3-0.226,0.587-0.468,0.859-0.726c0.736-0.656,1.733-1.559,2.351-1.719H31.2l0.011-0.01
	c0.467-0.362,1.005-0.622,1.579-0.761l0,0c0.06-0.015,0.122-0.027,0.184-0.038c0,0.101,0.061,0.439,0.604,0.916
	c0.044,0.038,0.086,0.072,0.129,0.106c-0.079,0.138-0.415,0.77-1.235,1.485L32.483,43.064z M34.758,46.164
	c0.177-0.52,0.165-2.016,0.147-2.764c0.164,0.571,0.362,1.132,0.594,1.679c0.161,0.321,0.229,1.051,0.293,1.757
	c0.058,0.632,0.123,1.286,0.246,1.689c0.179,0.561,0.357,1.621,0.456,2.271c-0.38-0.945-0.886-2.196-0.981-2.412
	c-0.168-0.379-0.805-0.904-1.474-0.927c0.297-0.393,0.535-0.825,0.707-1.285L34.758,46.164z M34.863,49.158
	c-0.076-0.312-0.171-0.701-0.511-0.794c-0.307-0.085-0.73-0.055-1,0.188c0.046-0.34,0.196-0.975,0.647-0.975
	c0.679,0,1.265,0.55,1.4,0.859c0.111,0.245,0.796,1.947,1.172,2.879c0,0.021,0,0.034,0,0.036h0.008
	c0.137,0.339,0.229,0.568,0.232,0.576l0.802,2.479c-0.177-0.193-0.912-0.991-1.321-1.433c-0.451-0.491-1.112-2.401-1.118-2.42l0,0
	c-0.028-0.187-0.052-0.341-0.075-0.465h0.007l-0.028-0.109c-0.011-0.054-0.024-0.106-0.041-0.158
	c-0.045-0.171-0.089-0.339-0.135-0.498c-0.023-0.046-0.035-0.102-0.05-0.157L34.863,49.158z M36.198,60.582
	c0-0.859-0.541-7.017-0.736-8.126c-0.076-0.422-0.144-0.903-0.202-1.335c0.233,0.613,0.633,1.587,0.951,1.932
	c0.467,0.505,1.36,1.474,1.36,1.474l0.07-0.065l0.018,0.054c-0.158,0.094-0.702,0.427-0.924,0.666
	c-0.246,0.267-0.479,0.479-0.481,0.481c-0.014,0.012-0.021,0.03-0.021,0.049l0.097,1.805l0.286,5.579
	c-0.076-0.083-0.134-0.15-0.166-0.188c-0.155-1.107-0.263-2.036-0.263-2.316L36.198,60.582z M39.134,64.972
	c-0.457-0.394-0.958-0.732-1.494-1.008c-0.312-0.151-0.666-0.485-0.912-0.744h0.015l-0.292-5.707l-0.095-1.776
	c0.063-0.06,0.261-0.245,0.467-0.469c0.245-0.263,0.932-0.664,0.939-0.669c0.024-0.015,0.036-0.044,0.026-0.071l-0.859-2.645
	l-0.245-0.6c-0.044-0.318-0.288-2.021-0.534-2.793c-0.123-0.392-0.186-1.038-0.245-1.664c-0.069-0.75-0.134-1.459-0.305-1.8
	c-0.267-0.532-0.811-2.393-0.949-2.875c0.114,0.033,0.231,0.05,0.351,0.052c0.205,0,0.736,0.067,1.133,0.122
	c0.101,0.299,0.654,1.965,0.68,2.269c0.026,0.305,0.433,2.879,0.559,3.165c0.109,0.245,0.424,1.819,0.521,2.431
	c0.072,0.46,0.167,1.773,0.195,2.175l0.073,4.34v0.159l0.428,3.883h0.014L39.134,64.972z M41.54,59.214
	c-0.643,0.499-0.805,0.456-0.935,0.421l-0.023-0.006c-0.024-0.006-0.052-0.002-0.073,0.011c-0.048,0.03-0.064,0.097-0.086,0.195
	c-0.057,0.246-0.15,0.661-0.791,0.687l-0.927,0.035l-0.408-3.703v-0.262l0.583,0.432l0.01-0.017l0.699,0.233l2.311-4.009
	c0.173,0.37,0.382,0.723,0.624,1.052l0,0c-0.126,1.577-0.467,4.523-1,4.939L41.54,59.214z M44.427,50.729
	c-0.188,0.799-0.721,2.847-1.022,3.087c-0.239,0.184-0.523,0.3-0.822,0.337l0,0c-0.139-0.196-0.605-0.879-0.677-1.309
	c-0.058-0.338-0.137-0.671-0.235-0.998l-0.214-0.335l-0.021,0.013l0.019-0.018l0,0c-0.054-0.056-0.083-0.129-0.081-0.205
	c0-0.069,0.025-0.136,0.071-0.188h0.028l0.017-0.017c0.112-0.109,0.309-0.148,0.415-0.041l0.468,0.666l0.101-0.07l-0.474-0.674
	c-0.043-0.044-0.098-0.075-0.157-0.091c-0.095-0.098-0.092-0.253,0.006-0.348c0.005-0.005,0.01-0.009,0.015-0.014l0.028-0.016
	l0.014-0.01c0.093-0.099,0.248-0.104,0.347-0.01c0.011,0.01,0.021,0.021,0.029,0.031l0.613,0.661l0.09-0.084l-0.614-0.661
	c-0.016-0.017-0.033-0.032-0.051-0.046l0,0c-0.045-0.045-0.069-0.105-0.067-0.169c0-0.103,0.04-0.2,0.111-0.274
	c0.06-0.061,0.141-0.097,0.226-0.099c0.056,0,0.109,0.015,0.156,0.044c0.028,0.033,0.063,0.062,0.101,0.085l0,0l0.449,0.404
	l0.272,0.369l0.1-0.073l-0.277-0.378l-0.515-0.467c-0.016-0.014-0.031-0.027-0.049-0.039c-0.099-0.127-0.076-0.311,0.052-0.41
	c0.094-0.072,0.222-0.081,0.325-0.021l0.154,0.093c0.211,0.139,0.54,0.32,0.544,0.323l0.006-0.013L44.427,50.729z"/>
<rect x="29.69" y="36.539" fill="#61dafb" width="1.085" height="0.122"/>
<path fill="#61dafb" d="M159.123,34.304c-2.131,0-3.866,1.841-3.866,4.094v30.721h0.123V38.397c0-2.188,1.68-3.972,3.743-3.972
	s3.745,1.783,3.745,3.972v30.721h0.123V38.397C162.996,36.14,161.261,34.304,159.123,34.304z"/>
<path fill="#61dafb" d="M159.067,37.372c-0.694,0.019-1.243,0.595-1.228,1.289v0.062h2.455v-0.062
	C160.312,37.967,159.762,37.391,159.067,37.372z M157.963,38.6c0-0.609,0.495-1.104,1.104-1.104c0.61,0,1.105,0.495,1.105,1.104
	H157.963z"/>
<path fill="#61dafb" d="M164.714,36.636v-0.02c-0.002-0.688-0.191-1.362-0.547-1.95h0.057v-1.694
	c-0.003-0.855-0.265-1.689-0.752-2.393h0.016v-1.645c-0.004-0.961-0.36-1.887-1.002-2.602h0.02v-1.415
	c0.009-1.013-0.39-1.985-1.104-2.701v-1.28c0-1.012-0.311-1.92-0.8-2.531h0.063v-0.845c-0.146-2.678-0.839-3.688-1.412-3.754V2.875
	h-0.123v10.932c-0.796,0.08-1.41,1.702-1.41,3.758v0.768c-0.523,0.613-0.859,1.552-0.859,2.604v1.397h0.008
	c-0.643,0.704-0.996,1.624-0.99,2.577v1.304c-0.704,0.729-1.1,1.7-1.104,2.713v1.857c-0.4,0.657-0.613,1.411-0.614,2.181v1.587
	c-0.396,0.613-0.61,1.327-0.613,2.058v0.02h-1.842v32.488h0.123V36.759h1.719v32.359h0.122V36.616
	c0.004-0.716,0.215-1.415,0.608-2.013h0.006v-0.009c0.911-1.411,2.741-2.378,4.849-2.378c3.012,0,5.463,1.974,5.463,4.399v32.502
	h0.122V36.759h1.719v32.359h0.123V36.636H164.714z M157.84,17.565c0-1.958,0.614-3.612,1.333-3.638h0.035
	c0.669,0.025,1.216,1.515,1.333,3.638v0.769c-0.203-0.244-0.458-0.442-0.745-0.578l-0.69-2.402l-0.642,2.401
	c-0.233,0.108-0.445,0.26-0.624,0.444V17.565z M159.652,17.699c-0.339-0.121-0.708-0.121-1.046,0l0.503-1.885L159.652,17.699z
	 M159.128,17.731c1.186,0,2.149,1.438,2.149,3.206v1.167c-0.26-0.232-0.556-0.422-0.875-0.561h0.017l-0.368-2.455l-0.897,2.087
	l-0.916-1.964l-0.368,2.396c-0.328,0.157-0.629,0.368-0.889,0.624v-1.28c0-1.781,0.964-3.22,2.143-3.22H159.128z M160.289,21.498
	c-0.339-0.132-0.698-0.201-1.062-0.205l0.762-1.766L160.289,21.498z M159.074,21.295c-0.368,0.015-0.731,0.095-1.071,0.238
	l0.291-1.915L159.074,21.295z M159.196,21.418c0.781,0.006,1.528,0.314,2.087,0.859v0.032h0.034c0.693,0.692,1.079,1.635,1.07,2.614
	v1.304c-0.385-0.403-0.843-0.729-1.35-0.961l0.053-2.414l-1.302,2.022l-0.672-2.533l-0.629,2.492l-1.329-2.054l0.029,2.5
	c-0.439,0.204-0.842,0.481-1.191,0.818v-1.181c0.002-1.933,1.433-3.504,3.193-3.504L159.196,21.418z M157.317,25.229l-0.023-2.02
	l1.098,1.706c-0.372,0.058-0.734,0.162-1.08,0.31L157.317,25.229z M160.911,25.211c-0.324-0.136-0.664-0.233-1.012-0.291
	l1.054-1.638L160.911,25.211z M159.66,24.887c-0.353-0.043-0.71-0.043-1.063,0l0.519-2.059L159.66,24.887z M154.9,28.938
	c0-2.183,1.898-3.96,4.234-3.96c2.337,0,4.235,1.777,4.235,3.96v1.492c-0.34-0.45-0.755-0.837-1.228-1.145l0.309-2.499l-1.364,1.786
	l-0.209-2.324l-1.099,2.187l-0.674-2.347l-0.646,2.357l-1.031-2.209l-0.23,2.359l-1.351-1.826l0.332,2.549
	c-0.506,0.34-0.94,0.773-1.283,1.276L154.9,28.938z M156.297,29.252l-0.263-2.021l1.154,1.554v0.012
	c-0.313,0.121-0.613,0.272-0.897,0.452L156.297,29.252z M157.314,28.748l0.2-2.047l0.832,1.78c-0.354,0.054-0.701,0.142-1.038,0.263
	L157.314,28.748z M159.912,28.463l0.89-1.771l0.182,2.021c-0.35-0.121-0.71-0.206-1.077-0.254L159.912,28.463z M161.11,28.759
	L161.11,28.759l1.169-1.536l-0.246,1.989c-0.294-0.183-0.605-0.336-0.929-0.457L161.11,28.759z M159.658,28.436
	c-0.152-0.014-0.306-0.021-0.462-0.021c-0.201,0-0.401,0.012-0.602,0.034l0.521-1.904L159.658,28.436z M157.362,32.332l0.314-1.944
	l0.73,1.75C158.055,32.175,157.705,32.24,157.362,32.332L157.362,32.332z M157.24,32.367c-0.325,0.097-0.642,0.221-0.947,0.369
	l-0.235-1.919L157.24,32.367z M158.59,32.122l0.527-1.922l0.551,1.922c-0.175-0.014-0.353-0.022-0.531-0.022
	c-0.18,0-0.374,0.003-0.554,0.017L158.59,32.122z M160.957,32.341l0.016,0.012c-0.364-0.103-0.736-0.174-1.112-0.213l0.902-1.794
	l0.185,1.996L160.957,32.341z M162.259,30.814l-0.237,1.938c-0.308-0.148-0.626-0.272-0.953-0.368L162.259,30.814z M162.137,32.813
	l0.3-2.434l-1.382,1.814l-0.211-2.286l-1.071,2.134l-0.66-2.295l-0.623,2.274l-0.865-2.076l-0.368,2.255l-1.385-1.82l0.297,2.413
	c-0.748,0.37-1.395,0.915-1.886,1.59v-1.404c0-2.446,2.203-4.438,4.91-4.438c2.708,0,4.91,1.991,4.91,4.438v1.588
	c-0.49-0.751-1.171-1.357-1.973-1.76L162.137,32.813z"/>
<polygon fill="#61dafb" points="157.963,69.113 158.086,69.113 158.086,40.073 160.173,40.073 160.173,69.113 160.295,69.113 
	160.295,39.95 157.963,39.95 "/>
</svg>
