<svg width="1358px" height="616px" viewBox="0 0 1358 616" version="1.1" xmlns="http://www.w3.org/2000/svg" xmlns:xlink="http://www.w3.org/1999/xlink">
    <defs>
        <polygon id="path-1" points="0.479292121 0.379346457 2.70959515 0.379346457 2.70959515 87.8292433 0.479292121 87.8292433"></polygon>
        <polygon id="path-3" points="0.4934 0.474190476 2.4934 0.474190476 2.4934 90.5099905 0.4934 90.5099905"></polygon>
    </defs>
    <g id="Page-1" stroke="none" stroke-width="1" fill="none" fill-rule="evenodd">
        <g id="Desktop_useReact" transform="translate(-33.000000, -2839.000000)">
            <rect fill="#FFFFFF" x="0" y="0" width="1440" height="5655"></rect>
            <g id="code-of-conduct" transform="translate(0.000000, 1910.000000)">
                <g id="City-Illustration" transform="translate(34.000000, 929.000000)">
                    <g id="Illustration">
                        <g id="brooklyn-bridge" transform="translate(787.000000, 336.000000)" stroke="#8AE4FC">
                            <path d="M49,227 L49,125.6143 C49,94.9001299 78.5,70 78.5,70 C78.5,70 108,94.9001299 108,125.6143 L108,227" id="Stroke-1"></path>
                            <path d="M134,227 L134,125.6143 C134,94.9001299 163.5,70 163.5,70 C163.5,70 193,94.9001299 193,125.6143 L193,227" id="Stroke-3"></path>
                            <path d="M235.618767,227 L233.900877,38.8589795 C233.900877,38.8589795 233.163644,26.3142701 234.638109,22.3801099 C236.109096,18.4459497 238.809384,16.23146 238.809384,16.23146 L241.753097,9.8371429 L242,6.39431712 L234.146041,6.14690757 L234.146041,0 L200.520247,0 L200.520247,6.14690757 L135.480356,6.14690757 L135.480356,0 L100.62874,0 L100.62874,6.14690757 L41.4797528,6.14690757 L41.4797528,0 L7.85569766,0 L7.85569766,6.14690757 L0,6.39431712 L0.246903291,9.8371429 L3.19061647,16.23146 C3.19061647,16.23146 5.89090387,18.4459497 7.36362983,22.3801099 C8.07478086,24.2809818 8.27126024,28.1924919 8.28343153,31.7259184 C8.29734157,35.5084967 8.09912344,38.8589795 8.09912344,38.8589795 L6.38123294,227" id="Stroke-5"></path>
                            <polyline id="Stroke-7" points="9 32 16.920771 32 16.920771 27.6142596 37.3028825 27.6142596 39.7593131 29.9360146 109.007345 29.9360146 109.25264 25.2906764 128.898867 25.2906764 129.880047 27.8702011 202.07684 27.8702011 204.53327 24.5155393 224.177757 24 224.423052 28.1297989 234 28.1297989"></polyline>
                            <polyline id="Stroke-9" points="9 40 16.920771 40 16.920771 35.6134339 37.3028825 35.6134339 39.7593131 37.9346584 109.007345 37.9346584 109.25264 33.2903815 128.898867 33.2903815 129.880047 35.8693169 202.07684 35.8693169 204.53327 32.5154215 224.177757 32 224.423052 36.1288554 234 36.1288554"></polyline>
                            <polyline id="Stroke-11" points="8 6 16.2693854 27.4116742 16.2693854 35.1649284 17 227"></polyline>
                            <polyline id="Stroke-13" points="223.424 27 223.424 34.7674991 222.576 227"></polyline>
                            <path d="M36,28 L42,6" id="Stroke-15"></path>
                            <polyline id="Stroke-17" points="35 27 35.7507747 108.830919 38.750332 130.338179 39 227"></polyline>
                            <polyline id="Stroke-19" points="205 34 204.249225 115.174005 201.251439 136.50861 201 227"></polyline>
                            <path d="M136,6 L128,25" id="Stroke-21"></path>
                            <path d="M235,6 L224,24" id="Stroke-23"></path>
                            <path d="M109,26 L101,6" id="Stroke-25"></path>
                            <path d="M201,6 L204,25" id="Stroke-27"></path>
                            <path d="M48,124 C48,124 55.6883697,164.383853 59.0623261,182.355176 C61.8022265,196.93522 69,227 69,227" id="Stroke-29"></path>
                            <path d="M191,114 C191,114 178.309199,180.991599 174.917507,195.372195 C173.388131,201.847557 171.554303,209.522897 170,216" id="Stroke-31"></path>
                            <path d="M297,171 C279.688835,156.549227 255.326906,110.063737 248.378781,96.2673718 C239.447465,78.5324112 214,12.4997559 214,11" id="Stroke-35"></path>
                            <polygon id="Stroke-39" points="82 64.4251779 77 71 72 64.4251779 72 56 82 56"></polygon>
                            <polygon id="Stroke-41" points="169 64.4251779 164.001771 71 159 64.4251779 159 56 169 56"></polygon>
                        </g>
                        <g id="brooklyn-bridge" transform="translate(401.000000, 336.000000)" stroke="#8AE4FC">
                            <path d="M49,227 L49,125.6143 C49,94.9001299 78.5,70 78.5,70 C78.5,70 108,94.9001299 108,125.6143 L108,227" id="Stroke-1"></path>
                            <path d="M134,227 L134,125.6143 C134,94.9001299 163.5,70 163.5,70 C163.5,70 193,94.9001299 193,125.6143 L193,227" id="Stroke-3"></path>
                            <path d="M235.618767,227 L233.900877,38.8589795 C233.900877,38.8589795 233.163644,26.3142701 234.638109,22.3801099 C236.109096,18.4459497 238.809384,16.23146 238.809384,16.23146 L241.753097,9.8371429 L242,6.39431712 L234.146041,6.14690757 L234.146041,0 L200.520247,0 L200.520247,6.14690757 L135.480356,6.14690757 L135.480356,0 L100.62874,0 L100.62874,6.14690757 L41.4797528,6.14690757 L41.4797528,0 L7.85569766,0 L7.85569766,6.14690757 L0,6.39431712 L0.246903291,9.8371429 L3.19061647,16.23146 C3.19061647,16.23146 5.89090387,18.4459497 7.36362983,22.3801099 C8.07478086,24.2809818 8.27126024,28.1924919 8.28343153,31.7259184 C8.29734157,35.5084967 8.09912344,38.8589795 8.09912344,38.8589795 L6.38123294,227" id="Stroke-5"></path>
                            <polyline id="Stroke-7" points="9 32 16.920771 32 16.920771 27.6142596 37.3028825 27.6142596 39.7593131 29.9360146 109.007345 29.9360146 109.25264 25.2906764 128.898867 25.2906764 129.880047 27.8702011 202.07684 27.8702011 204.53327 24.5155393 224.177757 24 224.423052 28.1297989 234 28.1297989"></polyline>
                            <polyline id="Stroke-9" points="9 40 16.920771 40 16.920771 35.6134339 37.3028825 35.6134339 39.7593131 37.9346584 109.007345 37.9346584 109.25264 33.2903815 128.898867 33.2903815 129.880047 35.8693169 202.07684 35.8693169 204.53327 32.5154215 224.177757 32 224.423052 36.1288554 234 36.1288554"></polyline>
                            <polyline id="Stroke-11" points="8 6 16.2693854 27.4116742 16.2693854 35.1649284 17 227"></polyline>
                            <polyline id="Stroke-13" points="223.424 27 223.424 34.7674991 222.576 227"></polyline>
                            <path d="M36,28 L42,6" id="Stroke-15"></path>
                            <polyline id="Stroke-17" points="35 27 35.7507747 108.830919 38.750332 130.338179 39 227"></polyline>
                            <polyline id="Stroke-19" points="205 34 204.249225 115.174005 201.251439 136.50861 201 227"></polyline>
                            <path d="M136,6 L128,25" id="Stroke-21"></path>
                            <path d="M235,6 L224,24" id="Stroke-23"></path>
                            <path d="M109,26 L101,6" id="Stroke-25"></path>
                            <path d="M201,6 L204,25" id="Stroke-27"></path>
                            <path d="M315,226 C293.934606,206.581774 264.289367,144.116897 255.83442,125.578031 C244.966192,101.746678 214,13.015297 214,11" id="Stroke-35"></path>
                            <polygon id="Stroke-39" points="82 64.4251779 77 71 72 64.4251779 72 56 82 56"></polygon>
                            <polygon id="Stroke-41" points="169 64.4251779 164.001771 71 159 64.4251779 159 56 169 56"></polygon>
                        </g>
                        <g id="freedom-tower" transform="translate(1083.000000, 0.000000)" stroke="#8AE4FC">
                            <polyline id="Stroke-1" points="35.0120638 615 17 152 84 152 48.6995803 615"></polyline>
                            <polygon id="Stroke-3" points="123 615 118.659006 615 85 153 109.24792 161.934246"></polygon>
                            <path d="M0,615 L17,174" id="Stroke-5"></path>
                            <path d="M28,151.636291 L28,139.349216 C28,137.498908 42.7736565,136 60.9990293,136 C79.2263435,136 94,137.498908 94,139.349216 L94,156" id="Stroke-7"></path>
                            <path d="M62,0 L62,136" id="Stroke-9"></path>
                            <polyline id="Stroke-11" points="46 133.876953 61.915902 90 80 136"></polyline>
                        </g>
                        <g id="Group-111" transform="translate(1563.000000, 85.000000)" stroke="#8AE4FC">
                            <path d="M573,509 L573,268.519057 C573,250.558453 591.130808,236 613.500991,236 C635.869192,236 654,250.558453 654,268.519057 L654,509" id="Stroke-1"></path>
                            <path d="M585,507 L585,280.29961 C585,264.11835 597.312762,251 612.498046,251 C627.687238,251 640,264.11835 640,280.29961 L640,507" id="Stroke-3"></path>
                            <path d="M577,251.538099 L577,240.902629 C577,222.731907 593.341299,208 613.500992,208 C633.658701,208 650,222.731907 650,240.902629 L650,252" id="Stroke-5"></path>
                            <path d="M604,282 C604,276.475891 607.805941,272 612.5,272 C617.196024,272 621,276.475891 621,282 L604,282 Z" id="Stroke-7"></path>
                            <path d="M582,225 L582,211.345117 C582,195.137623 595.878824,182 613,182 C630.121176,182 644,195.137623 644,211.345117 L644,224.766143" id="Stroke-9"></path>
                            <path d="M589,192 L589,182.127896 C589,167.698532 599.520332,156 612.499016,156 C625.4777,156 636,167.698532 636,182.127896 L636,191.307015" id="Stroke-11"></path>
                            <path d="M597,163 L597,152.817189 C597,139.662909 604.162825,129 612.998028,129 C621.835203,129 629,139.662909 629,152.817189 L629,162.766866" id="Stroke-13"></path>
                            <path d="M603,134.542179 L603,128.883428 C603,114.037211 607.476001,102 612.999053,102 C618.522105,102 622.208558,114.05855 623,128.883428 L623,135" id="Stroke-15"></path>
                            <path d="M612,102 L612,21" id="Stroke-17"></path>
                            <polyline id="Stroke-19" points="653 269 666 269 666 508"></polyline>
                            <polyline id="Stroke-21" points="571 269 558 269 558 508"></polyline>
                            <polyline id="Stroke-23" points="609 181.693247 613.828752 166 619 182"></polyline>
                            <polyline id="Stroke-25" points="608 129.69321 612.829917 114 618 130"></polyline>
                            <polyline id="Stroke-27" points="608 207.693247 612.829917 192 618 208"></polyline>
                            <polyline id="Stroke-29" points="603 155 605.911964 139 613 154.34809"></polyline>
                            <polyline id="Stroke-31" points="598 210 600.909707 194 608 209.34809"></polyline>
                            <polyline id="Stroke-33" points="598 184 600.909707 168 608 183.34809"></polyline>
                            <polyline id="Stroke-35" points="622 156 620.337125 140 612 154.744304"></polyline>
                            <polyline id="Stroke-37" points="626 210 624.339399 194 616 208.744304"></polyline>
                            <polyline id="Stroke-39" points="633.987688 213 636 197 626 209.857731"></polyline>
                            <polyline id="Stroke-41" points="590.014236 215 588 199 598 211.855794"></polyline>
                            <polyline id="Stroke-43" points="610 233.693247 614.827664 218 620 234"></polyline>
                            <polyline id="Stroke-45" points="598 235 600.909707 219 608 234.346224"></polyline>
                            <polyline id="Stroke-47" points="627 235 625.339399 219 617 233.744304"></polyline>
                            <polyline id="Stroke-49" points="633.985764 239 636 223 626 235.856174"></polyline>
                            <polyline id="Stroke-51" points="591.012312 241 589 225 599 237.855794"></polyline>
                            <polyline id="Stroke-53" points="626 184 624.339399 168 616 182.742375"></polyline>
                            <polyline id="Stroke-55" points="605 508 605 293 621 293 621 508"></polyline>
                            <path d="M119,506 L119,391.053155 C119,356.230721 152.5,328 152.5,328 C152.5,328 186,356.230721 186,391.053155 L186,506" id="Stroke-57"></path>
                            <path d="M217,506 L217,391.053155 C217,356.230721 250.5,328 250.5,328 C250.5,328 284,356.230721 284,391.053155 L284,506" id="Stroke-59"></path>
                            <path d="M332.774968,505 L330.829918,292.823342 C330.829918,292.823342 329.9952,278.676005 331.664636,274.239243 C333.330134,269.802481 336.387484,267.305083 336.387484,267.305083 L339.720448,260.09387 L340,256.211212 L331.107501,255.932195 L331.107501,249 L293.035321,249 L293.035321,255.932195 L219.395114,255.932195 L219.395114,249 L179.935019,249 L179.935019,255.932195 L112.964679,255.932195 L112.964679,249 L74.8944676,249 L74.8944676,255.932195 L66,256.211212 L66.2795517,260.09387 L69.6125162,267.305083 C69.6125162,267.305083 72.6698664,269.802481 74.337333,274.239243 C75.1425205,276.382957 75.3649806,280.794176 75.3787613,284.779009 C75.3945107,289.044824 75.1700819,292.823342 75.1700819,292.823342 L73.2250323,505" id="Stroke-61"></path>
                            <polyline id="Stroke-63" points="75 285 83.9416704 285 83.9416704 279.517824 106.95081 279.517824 109.723847 282.420018 187.897181 282.420018 188.174092 276.613346 210.352498 276.613346 211.460142 279.837751 292.962299 279.837751 295.735336 275.644424 317.911779 275 318.18869 280.162249 329 280.162249"></polyline>
                            <polyline id="Stroke-65" points="75 295 83.9416704 295 83.9416704 289.516792 106.95081 289.516792 109.723847 292.418323 187.897181 292.418323 188.174092 286.612977 210.352498 286.612977 211.460142 289.836646 292.962299 289.836646 295.735336 285.644277 317.911779 285 318.18869 290.161069 329 290.161069"></polyline>
                            <polyline id="Stroke-67" points="75 256 84.188206 280.124466 84.188206 288.860033 85 505"></polyline>
                            <polyline id="Stroke-69" points="317.424 281 317.424 289.699599 316.576 505"></polyline>
                            <path d="M105,281 L113,256" id="Stroke-71"></path>
                            <polyline id="Stroke-73" points="106 281 106.750775 372.65063 109.750332 396.73876 110 505"></polyline>
                            <polyline id="Stroke-75" points="296 287 295.249225 378.688772 292.251439 402.786928 292 505"></polyline>
                            <path d="M221,256 L212,278" id="Stroke-77"></path>
                            <path d="M331,256 L318,276" id="Stroke-79"></path>
                            <path d="M189,279 L179,257" id="Stroke-81"></path>
                            <path d="M293,256 L296,278" id="Stroke-83"></path>
                            <path d="M121,389 C121,389 129.420595,434.088768 133.115881,454.153837 C136.116724,470.432527 144,504 144,504" id="Stroke-85"></path>
                            <path d="M281,378 C281,378 267.100551,453.529744 263.385841,469.743162 C261.71081,477.043814 259.702331,485.697384 258,493" id="Stroke-87"></path>
                            <path d="M206,265 C206.495321,266.009317 219.485893,337.867577 221.670337,345.088228 C223.856716,352.308878 235.326497,412.297333 238.331316,422.01865 C241.336136,431.738 261,507 261,507" id="Stroke-89"></path>
                            <path d="M400,443 C380.394584,426.74288 352.803966,374.446705 344.935005,358.925793 C334.820021,338.973963 306,264.687225 306,263" id="Stroke-91"></path>
                            <path d="M95,271 C94.5230785,272.357108 93.9456488,273.712252 93.6993051,274.609789 L91.3324344,283.188438 C89.8129862,288.689537 88.2915673,294.188671 86.7524116,299.681913 C83.6760709,310.670362 80.5366663,321.641135 77.2336895,332.564772 C71.2347267,352.395044 64.7864329,372.133008 57.1123327,391.403545 C42.0676278,429.192418 22.8902603,465.347262 0,499" id="Stroke-93"></path>
                            <polygon id="Stroke-95" points="158 321.986856 152.5 329 147 321.986856 147 313 158 313"></polygon>
                            <polygon id="Stroke-97" points="256 321.986856 250.501948 329 245 321.986856 245 313 256 313"></polygon>
                            <polyline id="Stroke-99" points="431.012064 619 413 153 480 153 444.69958 619"></polyline>
                            <polygon id="Stroke-101" points="519 619 514.659006 619 481 154 505.24792 162.99226"></polygon>
                            <path d="M395,619 L412,175" id="Stroke-103"></path>
                            <path d="M423,151.854477 L423,140.181755 C423,138.423963 437.9975,137 456.499015,137 C475.0025,137 490,138.423963 490,140.181755 L490,156" id="Stroke-105"></path>
                            <path d="M457,0 L457,137" id="Stroke-107"></path>
                            <polyline id="Stroke-109" points="442 135.8308 457.915902 91 476 138"></polyline>
                        </g>
                        <g id="empire-state-&amp;-statue" transform="translate(0.000000, 3.000000)">
                            <polyline id="Stroke-1" stroke="#8AE4FC" points="15 264 15 214 106 214 106 264"></polyline>
                            <polyline id="Stroke-2" stroke="#8AE4FC" points="26 213 26 198 96 198 96 213"></polyline>
                            <polyline id="Stroke-3" stroke="#8AE4FC" points="38 197 38 189 83 189 83 197"></polyline>
                            <polyline id="Stroke-4" stroke="#8AE4FC" points="44 188 51.5242789 89 70.4757211 89 78 188"></polyline>
                            <g id="Group-164">
                                <polyline id="Stroke-5" stroke="#8AE4FC" points="0.115151515 565 0.115151515 264.25122 41.1058909 264.25122 41.1058909 565"></polyline>
                                <polyline id="Stroke-7" stroke="#8AE4FC" points="80.51936 565 80.51936 264.25122 121.510099 264.25122 121.510099 565"></polyline>
                                <g id="Group-11" transform="translate(59.218182, 0.000000)">
                                    <mask id="mask-2" fill="white">
                                        <use xlink:href="#path-1"></use>
                                    </mask>
                                    <g id="Clip-10"></g>
                                    <path d="M1.59444364,87.8292433 L1.59444364,0.377786614" id="Stroke-9" stroke="#8AE4FC" mask="url(#mask-2)"></path>
                                </g>
                                <path d="M48.7658667,565 L48.7658667,242.95937" id="Stroke-12" stroke="#8AE4FC"></path>
                                <path d="M59.01344,565 L59.01344,242.95937" id="Stroke-14" stroke="#8AE4FC"></path>
                                <path d="M69.2610133,565 L69.2610133,242.95937" id="Stroke-16" stroke="#8AE4FC"></path>
                                <path d="M93.3043491,565 L93.3043491,274.659827" id="Stroke-18" stroke="#8AE4FC"></path>
                                <path d="M101.186686,565 L101.186686,274.659827" id="Stroke-20" stroke="#8AE4FC"></path>
                                <path d="M109.071253,565 L109.071253,274.659827" id="Stroke-22" stroke="#8AE4FC"></path>
                                <path d="M11.7176339,565 L11.7176339,278.918197" id="Stroke-24" stroke="#8AE4FC"></path>
                                <path d="M19.5997479,565 L19.5997479,278.918197" id="Stroke-26" stroke="#8AE4FC"></path>
                                <path d="M27.4843152,565 L27.4843152,278.918197" id="Stroke-28" stroke="#8AE4FC"></path>
                                <path d="M273.482056,279.20142 L273.718468,266.392884 C273.718468,254.076813 261.761813,244.093821 247.010589,244.093821 C232.259365,244.093821 221.248359,253.602176 221.248359,265.918246 L222.673522,277.541302 C222.673522,266.143309 233.836189,256.902357 247.601619,256.902357 C261.37151,256.902357 273.482056,267.803428 273.482056,279.20142 C273.482056,279.20142 275.855098,285.605687 272.770589,291.301341 C269.68385,296.992538 266.360698,310.609963 266.360698,313.83438 C266.360698,317.511152 267.308577,327.119782 267.308577,327.119782 C267.308577,327.119782 277.518904,324.985026 286.54048,330.440018 C295.562056,335.89501 309.331947,355.823113 311.945862,366.496892 C314.557547,377.1729 320.255971,382.866325 322.867656,385.001081 C325.47711,387.135837 327.377328,386.186561 327.377328,386.186561 L340.199341,369.342491 L361.565644,382.391687 L366.90945,385.473491 L357.412819,401.840695 L362.040698,410.301727 C362.040698,410.301727 356.658977,433.391853 353.494177,435.921026 C350.329377,438.452428 346.528941,438.766624 346.528941,438.766624 C346.528941,438.766624 343.997547,475.456349 338.299122,479.886302 C332.600698,484.314026 331.333886,483.681176 330.069304,483.36475 C328.802492,483.048325 330.386007,490.323876 322.470662,490.640302 L314.557547,490.954498 L321.839486,550.417924 L322.470662,560.539073 L184.131656,559.906223 C184.131656,559.906223 184.448359,553.263522 185.712941,552.00005 C186.981983,550.734349 188.246565,522.267223 186.348577,516.259601 C184.448359,510.24975 180.966856,503.290624 179.700044,497.913624 C178.433232,492.536624 179.383341,475.775002 180.650153,473.876451 C181.914735,471.980128 186.981983,455.8469 186.981983,455.8469 C186.981983,455.8469 177.483122,453.001302 176.533013,444.778703 C175.582904,436.553876 174.635025,414.729451 180.016747,408.403176 C185.398468,402.079128 190.463486,388.795955 190.463486,388.795955 C190.463486,388.795955 222.43488,356.85038 227.185425,353.688357 C231.933741,350.524105 246.495389,335.975231 253.458395,333.760254 C253.458395,333.760254 261.373741,326.999451 272.177328,326.703081" id="Stroke-30" stroke="#8AE4FC"></path>
                                <polyline id="Stroke-32" stroke="#8AE4FC" stroke-linejoin="round" points="226.471282 252.870387 203.443404 231.282166 231.696882 247.651599"></polyline>
                                <polyline id="Stroke-34" stroke="#8AE4FC" stroke-linejoin="round" points="240.955316 243.856948 237.632165 216.577531 248.790371 243.620743"></polyline>
                                <polyline id="Stroke-36" stroke="#8AE4FC" stroke-linejoin="round" points="258.050589 246.229023 277.04385 227.488629 264.46048 249.549259"></polyline>
                                <polyline id="Stroke-38" stroke="#8AE4FC" stroke-linejoin="round" points="269.920931 255.005143 299.360931 246.466119 273.00767 260.934772"></polyline>
                                <path d="M273.71936,265.444054 C274.905881,265.680259 310.044305,266.629535 310.044305,266.629535 L273.955772,270.899046" id="Stroke-40" stroke="#8AE4FC" stroke-linejoin="round"></path>
                                <path d="M223.228199,257.061683 L197.506114,256.983691" id="Stroke-42" stroke="#8AE4FC" stroke-linejoin="round"></path>
                                <path d="M164.029488,208.986891 C165.613004,210.092151 166.402531,213.098191 166.402531,213.098191 C166.402531,213.098191 165.771355,228.438128 166.721464,237.610002 C167.671573,246.781876 173.68447,265.444277 173.68447,265.444277 L176.851501,278.0946 L166.721464,298.96975 C166.721464,298.96975 162.923258,310.040175 164.504543,314.784324 C166.088058,319.528474 167.671573,327.751072 168.936155,327.434647 C170.202967,327.12045 172.734361,327.434647 174.634579,328.067498 C176.532567,328.702576 178.116082,331.548175 178.116082,331.548175 C178.116082,331.548175 175.267985,333.760923 174.317876,335.026624 C173.367767,336.292324 172.734361,339.770773 175.584688,341.98575 C178.432785,344.198498 181.916519,343.567876 181.916519,343.567876 C181.916519,343.567876 181.283113,349.575498 181.916519,353.370372 C182.549925,357.167474 184.13344,363.810175 184.13344,363.810175 C184.13344,363.810175 179.066192,371.083498 180.96641,372.663395 C182.864398,374.245521 185.714725,378.359049 185.714725,378.359049 L189.512931,382.784545 L190.779743,387.847348" id="Stroke-44" stroke="#8AE4FC"></path>
                                <path d="M222.672853,277.541079 C222.041678,283.550929 221.486332,285.685685 222.753144,286.951386 C224.019956,288.214858 226.55135,291.695535 222.753144,293.591858 C218.954938,295.490409 218.954938,298.654661 218.954938,298.654661 C218.954938,298.654661 215.787908,301.025622 211.672999,291.537323 C207.55809,282.046795 210.089484,280.783323 207.55809,276.039173 C205.024465,271.292795 205.657872,269.080047 202.176368,266.548646 C198.692635,264.021701 196.477944,254.847598 196.00289,247.255622 C194.823059,228.368157 188.245896,218.632512 186.662381,210.409913 C185.083326,202.187315 184.44769,185.78 184.44769,180.99574 C184.44769,175.774724 178.187229,164.644134 177.08992,162.177354 C176.770987,161.464283 176.010453,154.465047 176.295932,152.608835 C176.316005,152.484047 176.340538,155.909016 176.365072,155.76863" id="Stroke-46" stroke="#8AE4FC"></path>
                                <path d="M147.330541,140.667572 L147.330541,129.122509 C147.330541,127.375485 156.758032,125.960485 168.382371,125.960485 C180.008941,125.960485 188.76065,127.511414 189.434201,129.122509 L189.356141,141.142209" id="Stroke-48" stroke="#8AE4FC"></path>
                                <path d="M160.230836,126.435791 L160.230836,120.740138 C160.230836,120.740138 155.130133,114.262335 156.787248,109.59172 C158.747685,104.078791 164.742739,101.355752 167.530618,100.578059 C169.673939,99.9808622 174.614061,97.2979331 177.027248,95.8940748 C177.089697,97.6722953 176.654788,100.370823 176.797527,101.598642 C176.884509,102.336224 177.676267,102.757382 178.334206,102.418673 C180.27457,101.413689 184.54783,98.532437 185.636218,97.6121299 C186.526109,99.4527441 186.289697,104.491035 184.447467,106.746122 C182.105648,109.616232 181.441018,114.456201 180.412848,116.116319 C178.51263,119.182524 175.584242,120.584154 175.584242,120.584154 L175.584242,125.802941" id="Stroke-50" stroke="#8AE4FC"></path>
                                <path d="M171.375884,158.696677 L171.375884,158.696677 C171.375884,158.696677 172.758672,158.148504 174.556296,155.851079 C176.534575,153.319677 176.851278,149.01674 176.851278,149.01674 L178.115859,148.969945 C178.115859,148.969945 183.484199,149.108102 185.794793,147.468039 C188.799011,145.333283 189.909702,142.565677 189.196005,140.508913 C188.625047,138.859937 179.772975,137.34689 168.146405,137.34689 C156.519835,137.34689 147.411278,138.603677 147.411278,140.352929 C147.411278,140.352929 147.217241,145.228551 150.101023,147.071394 C152.079302,148.339323 153.97952,148.65352 153.97952,148.65352 C153.97952,148.65352 154.218162,153.47789 156.194211,156.007063 C157.655059,157.876646 158.948635,158.482756 159.379084,158.645425 C159.479447,158.681079 159.532975,158.696677 159.532975,158.696677" id="Stroke-52" stroke="#8AE4FC"></path>
                                <path d="M159.984834,175.222094 L160.705222,204.558276 C160.705222,207.167669 162.841852,209.302425 165.453537,209.302425 C168.065222,209.302425 170.201852,207.167669 170.201852,204.558276 L171.111816,168.737606" id="Stroke-54" stroke="#8AE4FC"></path>
                                <path d="M326.268645,385.948797 L319.305639,396.386372 C319.305639,396.386372 319.622342,405.558246 318.35553,408.403844 C317.088718,411.249443 310.440184,422.952718 310.440184,422.952718 L311.053518,459.016277 L311.075821,460.275293 L314.557324,491.904443" id="Stroke-56" stroke="#8AE4FC"></path>
                                <path d="M351.971549,398.86407 L361.211695,382.864543" id="Stroke-58" stroke="#8AE4FC"></path>
                                <polyline id="Stroke-60" stroke="#8AE4FC" points="310.994192 457.112378 316.139501 460.90948 338.80384 421.666071"></polyline>
                                <path d="M356.959399,401.88036 L366.551932,385.23684" id="Stroke-62" stroke="#8AE4FC"></path>
                                <polyline id="Stroke-64" stroke="#8AE4FC" points="316.138608 460.909703 321.839263 462.808254 340.979724 429.601435"></polyline>
                                <path d="M163.663496,164.674439 C164.582381,164.674439 165.336223,163.504557 165.336223,162.036077 C165.336223,160.567597 164.582381,159.368746 163.663496,159.368746 L157.273678,159.368746 C156.354793,159.368746 155.60095,160.567597 155.60095,162.036077 C155.60095,162.036077 155.732538,164.634329 157.356199,164.674439 C158.781362,164.710093 160.429556,164.674439 160.429556,164.674439" id="Stroke-66" stroke="#8AE4FC"></path>
                                <path d="M166.786812,169.964757 C168.142836,169.964757 169.251297,168.763678 169.251297,167.295198 C169.251297,165.828946 168.142836,164.674662 166.786812,164.674662 L157.354861,164.674662 C155.998836,164.674662 154.888145,165.828946 154.888145,167.295198 C154.888145,167.295198 155.008582,169.964757 157.067152,169.964757 L160.744921,169.964757" id="Stroke-68" stroke="#8AE4FC"></path>
                                <path d="M166.486167,175.300532 C167.732907,175.300532 168.754385,174.101682 168.754385,172.633202 C168.754385,171.16695 167.732907,169.963643 166.486167,169.963643 L157.825901,169.963643 C156.581392,169.963643 155.562143,171.16695 155.562143,172.633202 C155.562143,172.633202 155.660276,175.300532 157.618482,175.300532 L160.564713,175.300532 L166.486167,175.300532 Z" id="Stroke-70" stroke="#8AE4FC"></path>
                                <path d="M179.818027,186.805708 C170.676015,182.892731 171.628354,169.549393 171.628354,169.549393 C171.628354,169.549393 167.616039,162.813102 166.940257,159.287857 C166.641396,157.74807 166.632475,156.417747 168.244984,155.613314 C169.549712,154.960409 170.914657,155.967621 172.578463,158.81322 C174.315869,161.792519 179.463408,167.118267 179.996451,168.005149" id="Stroke-72" stroke="#8AE4FC"></path>
                                <path d="M346.371927,439.026672 C346.371927,439.026672 341.148558,431.969499 340.437091,427.697759 C339.725624,423.428247 338.534642,419.633373 338.534642,419.633373 L336.855224,417.021751 L336.893139,417.066318 C335.784679,415.936546 335.802521,414.104846 336.933285,412.997357 L337.171927,412.990672 C338.302691,411.883184 340.205139,411.595728 341.3136,412.725499 L345.122958,418.151523" id="Stroke-74" stroke="#8AE4FC"></path>
                                <path d="M340.079573,412.042734 C338.971113,410.912962 339.129464,409.395458 340.260228,408.285742 L340.554628,408.127529 C341.685392,407.020041 343.22207,407.19608 344.330531,408.325852 L349.337561,413.702852" id="Stroke-76" stroke="#8AE4FC"></path>
                                <path d="M343.936882,407.949484 C342.799428,406.850909 343.118361,404.832028 344.282579,403.62872 C345.449028,402.425413 347.331404,402.342965 348.468858,403.445996 L352.60384,407.178476 L354.858676,410.262508" id="Stroke-78" stroke="#8AE4FC"></path>
                                <path d="M348.824368,403.784259 C347.459423,402.986511 346.99775,401.214976 347.796199,399.848999 C348.596878,398.483023 350.369968,398.021755 351.737144,398.821731 L353.019568,399.588283 C354.739132,400.715826 357.413265,402.197676 357.413265,402.197676" id="Stroke-80" stroke="#8AE4FC"></path>
                                <path d="M177.008291,277.937279 C177.008291,277.937279 180.650376,287.739775 179.936679,291.539106 C179.225212,295.33398 180.175321,301.025176 180.175321,301.025176 L182.311952,301.499814 C182.311952,301.499814 193.70657,286.792728 195.8432,281.335507 C197.97983,275.880515 200.207903,267.698027 201.543855,266.156011" id="Stroke-82" stroke="#8AE4FC"></path>
                                <path d="M186.981537,454.899184 C186.981537,454.899184 186.981537,425.168586 197.111573,415.363861 C207.24161,405.556909 230.349779,388.478861 236.048204,380.256263 C241.746628,372.031436 256.941682,354.951161 264.538095,348.310688 C272.136737,341.670216 274.668131,335.974562 274.668131,335.974562" id="Stroke-84" stroke="#8AE4FC" stroke-linejoin="round"></path>
                                <path d="M268.655457,327.435093 C268.655457,327.435093 268.336524,330.280691 273.403772,334.710644 C278.46656,339.138369 281.950293,340.401841 284.79839,340.401841 C287.648718,340.401841 297.937105,341.946085 297.937105,341.946085" id="Stroke-86" stroke="#8AE4FC" stroke-linejoin="round"></path>
                                <path d="M186.663496,517.049104 C186.663496,517.049104 192.045217,486.211017 197.426938,475.457017 C202.808659,464.705246 214.522211,424.220647 217.687011,419.790694 C220.854041,415.36297 235.413459,385.632372 235.413459,385.632372 L247.762647,365.706498" id="Stroke-88" stroke="#8AE4FC" stroke-linejoin="round"></path>
                                <path d="M202.809328,559.274709 C202.809328,559.274709 213.256068,538.39956 220.221304,531.440434 C227.186541,524.483536 236.047535,514.993009 237.63105,511.51456 C239.214565,508.036111 251.719874,488.26845 254.249038,485.104198" id="Stroke-90" stroke="#8AE4FC" stroke-linejoin="round"></path>
                                <path d="M248.395384,558.956947 L258.44513,437.266947" id="Stroke-92" stroke="#8AE4FC" stroke-linejoin="round"></path>
                                <path d="M290.181004,560.223317 L301.894555,552.63134 C301.894555,552.63134 293.97921,497.597868 293.97921,490.638742 C293.97921,483.679616 289.547598,433.392521 287.966313,424.534844 C286.382798,415.679395 285.274337,403.820135 284.324228,402.552206" id="Stroke-94" stroke="#8AE4FC" stroke-linejoin="round"></path>
                                <path d="M257.257716,448.573354 C255.043025,446.041953 252.192698,442.247079 255.357498,439.715677 C258.524528,437.188732 271.863971,426.03363 274.43105,422.63763 C279.337716,416.153142 281.159874,407.217472 281.159874,407.217472 C281.159874,407.217472 281.746444,403.478307 279.259656,400.02437 C277.415195,397.464 273.886856,397.508567 271.41791,395.875189 C270.904941,395.534252 270.478953,394.94374 270.612771,394.342087 C270.672989,394.083598 270.82688,393.856307 270.994153,393.651299 C272.88991,391.307079 276.538686,390.823528 279.306492,391.585622 C282.272795,392.403425 282.732238,396.454559 283.461547,399.026071 C284.048116,401.087291 284.596771,403.161882 285.116432,405.243157" id="Stroke-96" stroke="#8AE4FC" stroke-linejoin="round"></path>
                                <path d="M295.878536,509.617791 C295.878536,509.617791 301.418608,516.418705 306.008572,518.631453 C310.600766,520.844201 318.038827,526.221201 318.830584,527.645114" id="Stroke-98" stroke="#8AE4FC" stroke-linejoin="round"></path>
                                <path d="M270.61344,394.342087 C270.61344,394.342087 271.030507,384.207567 276.568349,384.207567 C282.108422,384.207567 287.17344,388.635291 288.440252,391.483118 C289.707064,394.330945 299.995452,419.948016 299.995452,419.948016 L306.958458,441.458244 C306.958458,441.458244 301.260034,444.77848 299.201464,446.991228 C297.145125,449.206205 295.247137,450.944315 295.247137,450.944315 L296.036664,465.65363 L298.411937,512.14585" id="Stroke-100" stroke="#8AE4FC" stroke-linejoin="round"></path>
                                <path d="M285.709469,409.076582 C285.709469,409.076582 291.131336,424.851046 294.929542,428.964574 C298.727748,433.075873 306.009687,440.982046 306.009687,440.982046" id="Stroke-102" stroke="#8AE4FC" stroke-linejoin="round"></path>
                                <path d="M281.198681,339.690998 C281.198681,339.690998 286.698608,359.064243 289.232233,364.124817 C291.763627,369.185392 291.446924,385.316392 293.663845,392.275518 C295.878536,399.232416 298.057542,415.363416 298.057542,415.363416" id="Stroke-104" stroke="#8AE4FC" stroke-linejoin="round"></path>
                                <path d="M283.335312,347.163981 C283.335312,347.163981 284.167215,367.446391 282.266996,373.021713 C280.366778,378.594808 276.213954,383.813595 276.213954,383.813595" id="Stroke-106" stroke="#8AE4FC" stroke-linejoin="round"></path>
                                <path d="M262.086545,352.264666 C261.894739,352.549894 260.710448,355.168202 259.082327,358.595398 C258.651879,359.506792 258.187976,360.473894 257.704,361.469965 C255.469236,366.071501 252.792873,371.290288 250.689697,374.323068 C246.416436,380.493359 244.279806,383.102753 244.279806,383.102753" id="Stroke-108" stroke="#8AE4FC" stroke-linejoin="round"></path>
                                <path d="M230.271942,461.621214 C231.933518,454.265443 239.293518,430.070057 241.191505,423.427356 C243.091724,416.786883 253.063408,394.724025 254.486342,389.507466 C255.913736,384.288679 259.950584,363.413529 260.186996,359.85486 C260.425639,356.296191 261.61216,351.079631 261.61216,351.079631" id="Stroke-110" stroke="#8AE4FC" stroke-linejoin="round"></path>
                                <path d="M294.375758,341.351562 C294.375758,341.351562 299.835539,357.482562 300.074182,360.330389 C300.310594,363.175987 303.633745,383.814932 304.583855,385.949688 C305.533964,388.084444 308.145648,401.367617 308.857115,405.875562 C309.568582,410.383507 310.518691,424.613728 310.518691,424.613728" id="Stroke-112" stroke="#8AE4FC" stroke-linejoin="round"></path>
                                <path d="M178.116975,331.548175 C178.116975,331.548175 185.398914,327.831293 188.010599,324.272624 C190.620053,320.716183 199.882502,305.296025 200.593968,302.686631 C201.305435,300.077238 206.528805,292.962128 207.953968,288.21575 C209.379132,283.4716 208.904078,282.522324 208.904078,282.522324" id="Stroke-114" stroke="#8AE4FC" stroke-linejoin="round"></path>
                                <path d="M185.713833,378.358603 C185.713833,378.358603 195.368815,363.649288 197.980499,358.194296 C200.594415,352.739304 204.867675,343.959619 205.579142,341.352454" id="Stroke-116" stroke="#8AE4FC" stroke-linejoin="round"></path>
                                <path d="M219.469023,297.705163 C222.080708,301.025399 225.283423,306.718824 224.335544,311.462974 C223.385435,316.207124 223.621847,324.429722 220.69569,329.806722 C219.466793,332.061809 216.025435,338.031549 216.025435,338.031549" id="Stroke-118" stroke="#8AE4FC" stroke-linejoin="round"></path>
                                <path d="M198.692635,260.223484 L220.536223,262.280248" id="Stroke-120" stroke="#8AE4FC" stroke-linejoin="round"></path>
                                <path d="M205.817115,269.870219 L220.695467,268.132109" id="Stroke-122" stroke="#8AE4FC" stroke-linejoin="round"></path>
                                <path d="M206.766778,273.983078 L221.959602,273.666653" id="Stroke-124" stroke="#8AE4FC" stroke-linejoin="round"></path>
                                <path d="M242.617115,288.73072 L242.617115,288.73072 C242.617115,289.664398 243.384339,290.430949 244.318836,290.430949 L247.960921,290.430949 C248.893188,290.430949 249.660412,289.664398 249.660412,288.73072 L249.660412,275.960067 L254.094255,275.960067 C257.314812,275.960067 261.907006,276.058114 261.907006,276.058114" id="Stroke-126" stroke="#8AE4FC" stroke-linejoin="round"></path>
                                <path d="M222.555316,259.394539 L226.471728,266.155343" id="Stroke-128" stroke="#8AE4FC" stroke-linejoin="round"></path>
                                <path d="M225.404082,254.53095 L230.152398,262.359131" id="Stroke-130" stroke="#8AE4FC" stroke-linejoin="round"></path>
                                <path d="M230.389702,249.312609 L234.187908,259.51175" id="Stroke-132" stroke="#8AE4FC" stroke-linejoin="round"></path>
                                <path d="M235.84993,246.466119 L237.98656,257.971072" id="Stroke-134" stroke="#8AE4FC" stroke-linejoin="round"></path>
                                <path d="M241.312388,244.448797 L241.667006,256.784923" id="Stroke-136" stroke="#8AE4FC" stroke-linejoin="round"></path>
                                <path d="M247.010143,244.094267 L247.010143,256.7847" id="Stroke-138" stroke="#8AE4FC" stroke-linejoin="round"></path>
                                <path d="M253.062962,244.448797 L251.637799,257.13923" id="Stroke-140" stroke="#8AE4FC" stroke-linejoin="round"></path>
                                <path d="M258.168126,245.754608 L255.676878,257.852301" id="Stroke-142" stroke="#8AE4FC" stroke-linejoin="round"></path>
                                <path d="M262.798681,248.955628 L259.355093,258.68236" id="Stroke-144" stroke="#8AE4FC" stroke-linejoin="round"></path>
                                <path d="M267.309469,252.633291 L263.036208,261.172314" id="Stroke-146" stroke="#8AE4FC" stroke-linejoin="round"></path>
                                <path d="M271.107898,257.851632 L266.359583,263.308853" id="Stroke-148" stroke="#8AE4FC" stroke-linejoin="round"></path>
                                <path d="M262.639661,281.09908 C262.639661,282.522993 262.006255,289.163465 260.42497,292.802355 C258.841455,296.439017 252.411491,305.000324 249.661527,304.980269 L240.421382,305.000324 C237.689261,304.879993 230.922521,295.155489 230.922521,295.155489 C230.922521,295.155489 227.719806,294.778898 226.294642,293.199001 C224.869479,291.616875 224.216,289.163465 224.216,289.163465" id="Stroke-150" stroke="#8AE4FC" stroke-linejoin="round"></path>
                                <path d="M224.097348,288.452177 C224.097348,288.452177 226.552912,280.508122 229.55936,277.183429 C232.565808,273.863193 238.824039,269.927933 240.360718,268.290098 C242.483966,266.028327 244.330657,263.269634 243.962657,263.545949 C243.962657,263.545949 246.971336,266.393776 250.925663,268.92072 C254.884451,271.452122 258.207602,270.977484 260.266172,273.034248 C262.324742,275.091012 262.204305,279.676949 262.67936,282.758752" id="Stroke-152" stroke="#8AE4FC" stroke-linejoin="round"></path>
                                <path d="M233.179588,281.693157 C233.179588,281.693157 235.392048,281.911535 237.452848,281.811259 C239.886109,281.693157 241.627976,279.239747 241.507539,276.51448 C241.507539,276.51448 231.221382,276.710574 229.796218,276.710574" id="Stroke-154" stroke="#8AE4FC" stroke-linejoin="round"></path>
                                <path d="M249.859132,281.059861 C249.859132,281.059861 251.31552,281.057632 253.380781,281.01975 C255.517411,280.981869 257.774478,280.357931 257.990817,278.312309" id="Stroke-156" stroke="#8AE4FC" stroke-linejoin="round"></path>
                                <path d="M241.549915,295.213426 L250.393067,295.213426" id="Stroke-158" stroke="#8AE4FC" stroke-linejoin="round"></path>
                                <path d="M234.148878,299.284838 L233.832175,313.677728" id="Stroke-160" stroke="#8AE4FC" stroke-linejoin="round"></path>
                                <path d="M258.762725,295.807503 L259.83104,318.697078 C259.83104,318.697078 259.632543,321.94155 261.849464,324.154298 C264.064155,326.369275 266.834192,327.474535 266.834192,327.474535" id="Stroke-162" stroke="#8AE4FC" stroke-linejoin="round"></path>
                            </g>
                        </g>
                        <g id="chrysler" transform="translate(1236.000000, 23.000000)">
                            <path d="M15,544 L15,275.330815 C15,255.264938 35.1453424,239 60.0011011,239 C84.8546576,239 105,255.264938 105,275.330815 L105,544" id="Stroke-1" stroke="#8AE4FC"></path>
                            <path d="M29,544 L29,289.84761 C29,271.706901 42.8798408,257 59.9977972,257 C77.1201592,257 91,271.706901 91,289.84761 L91,544" id="Stroke-3" stroke="#8AE4FC"></path>
                            <path d="M20,257.48561 L20,245.641564 C20,225.405987 38.1321263,209 60.5011011,209 C82.8678737,209 101,225.405987 101,245.641564 L101,258" id="Stroke-5" stroke="#8AE4FC"></path>
                            <path d="M50,292 C50,286.475891 54.2536986,282 59.5,282 C64.7484975,282 69,286.475891 69,292 L50,292 Z" id="Stroke-7" stroke="#8AE4FC"></path>
                            <path d="M25,228 L25,212.75734 C25,194.665253 40.6696401,180 60,180 C79.3303599,180 95,194.665253 95,212.75734 L95,227.73895" id="Stroke-9" stroke="#8AE4FC"></path>
                            <path d="M34,191 L34,180.030995 C34,163.998369 45.8633527,151 60.4988902,151 C75.1344277,151 87,163.998369 87,180.030995 L87,190.230016" id="Stroke-11" stroke="#8AE4FC"></path>
                            <path d="M42,159 L42,147.619211 C42,132.917369 50.0581782,121 59.9977813,121 C69.9396031,121 78,132.917369 78,147.619211 L78,158.739439" id="Stroke-13" stroke="#8AE4FC"></path>
                            <path d="M49,126.486685 L49,120.142026 C49,103.496267 54.1474013,90 60.4989113,90 C66.8504213,90 71.0898419,103.520193 72,120.142026 L72,127" id="Stroke-15" stroke="#8AE4FC"></path>
                            <g id="Group-19" transform="translate(59.000000, 0.000000)">
                                <mask id="mask-4" fill="white">
                                    <use xlink:href="#path-3"></use>
                                </mask>
                                <g id="Clip-18"></g>
                                <path d="M1.4934,90.5099905 L1.4934,0.472657143" id="Stroke-17" stroke="#8AE4FC" mask="url(#mask-4)"></path>
                            </g>
                            <polyline id="Stroke-20" stroke="#8AE4FC" points="106 276 120 276 120 543"></polyline>
                            <polyline id="Stroke-22" stroke="#8AE4FC" points="14 276 0 276 0 543"></polyline>
                            <polyline id="Stroke-24" stroke="#8AE4FC" points="56 178.654903 60.8287517 161 66 179"></polyline>
                            <polyline id="Stroke-26" stroke="#8AE4FC" points="55 121.654861 59.8299166 104 65 122"></polyline>
                            <polyline id="Stroke-28" stroke="#8AE4FC" points="55 207.654903 59.8299166 190 65 208"></polyline>
                            <polyline id="Stroke-30" stroke="#8AE4FC" points="50 150 52.9119639 132 60 149.266602"></polyline>
                            <polyline id="Stroke-32" stroke="#8AE4FC" points="44 210 46.9097065 192 54 209.266602"></polyline>
                            <polyline id="Stroke-34" stroke="#8AE4FC" points="44 181 46.9097065 163 54 180.266602"></polyline>
                            <polyline id="Stroke-36" stroke="#8AE4FC" points="71 151 69.3371247 133 61 149.587342"></polyline>
                            <polyline id="Stroke-38" stroke="#8AE4FC" points="76 210 74.3393995 192 66 208.587342"></polyline>
                            <polyline id="Stroke-40" stroke="#8AE4FC" points="82.7864563 214 85 196 74 210.464947"></polyline>
                            <polyline id="Stroke-42" stroke="#8AE4FC" points="35.2156599 216 33 198 44 212.462768"></polyline>
                            <polyline id="Stroke-44" stroke="#8AE4FC" points="56 236.654903 60.8276639 219 66 237"></polyline>
                            <polyline id="Stroke-46" stroke="#8AE4FC" points="45 238 47.9097065 220 55 237.264502"></polyline>
                            <polyline id="Stroke-48" stroke="#8AE4FC" points="77 238 75.3393995 220 67 236.587342"></polyline>
                            <polyline id="Stroke-50" stroke="#8AE4FC" points="84.7843401 243 87 225 76 239.463196"></polyline>
                            <polyline id="Stroke-52" stroke="#8AE4FC" points="37.2135437 245 35 227 46 241.462768"></polyline>
                            <polyline id="Stroke-54" stroke="#8AE4FC" points="76 181 74.3393995 163 66 179.585172"></polyline>
                            <polyline id="Stroke-56" stroke="#8AE4FC" points="51 544 51 303 69 303 69 544"></polyline>
                        </g>
                    </g>
                </g>
            </g>
        </g>
    </g>
</svg>