
<svg width="300px" height="320px" viewBox="0 0 300 320" version="1.1" xmlns="http://www.w3.org/2000/svg" xmlns:xlink="http://www.w3.org/1999/xlink">
    <g id="Page-1" stroke="none" stroke-width="1" fill="none" fill-rule="evenodd">
        <g id="Desktop_useReact" transform="translate(-570.000000, -148.000000)" fill="#FFFFFF">
            <g id="hero">
                <g id="hero-text" transform="translate(380.000000, 148.000000)">
                    <path d="M423.708918,223.932218 C419.958659,211.863502 415.01258,199.058418 408.885479,185.765382 C414.908981,172.700057 419.9113,159.773724 423.729638,147.35309 C456.481505,156.585762 477.754679,170.842876 477.754679,185.765382 C477.754679,201.87672 455.081448,215.255518 423.708918,223.932218 L423.708918,223.932218 Z M408.8766,304.953203 C398.632206,310.870748 381.18033,304.870399 360.984579,288.504734 C356.846566,285.154119 352.696713,281.451587 348.552781,277.435582 C357.417837,267.916053 366.131935,257.116015 374.4494,245.357814 C389.012363,244.009288 402.69622,241.826805 415.210897,238.922742 C424.23875,274.540391 420.257614,298.390967 408.8766,304.953203 L408.8766,304.953203 Z M321.525461,246.475671 C327.572642,246.768443 333.729342,246.934051 339.99852,246.934051 C346.273618,246.934051 352.427358,246.768443 358.480459,246.475671 C352.451037,254.466279 346.261778,261.912746 340.00148,268.667205 C333.738222,261.912746 327.551922,254.466279 321.525461,246.475671 L321.525461,246.475671 Z M319.018381,288.504734 C298.82263,304.867441 281.358914,310.861876 271.12044,304.953203 C257.137628,296.888662 256.894912,270.527343 265.088059,238.996674 C277.519856,241.859335 291.103075,244.021117 305.5506,245.357814 C313.871025,257.116015 322.582163,267.916053 331.447219,277.435582 C327.306246,281.451587 323.153434,285.151162 319.018381,288.504734 L319.018381,288.504734 Z M256.40652,223.964749 C224.974791,215.291005 202.245321,201.897421 202.245321,185.765382 C202.245321,169.642215 224.948152,156.254545 256.344361,147.580801 C260.153819,159.930461 265.129498,172.782861 271.11748,185.774254 C265.052539,198.940127 260.133099,211.774783 256.40652,223.964749 L256.40652,223.964749 Z M278.271684,200.398073 C281.024439,205.724159 283.913352,211.047288 286.979862,216.349717 C290.040453,221.652145 293.210561,226.81558 296.451708,231.857766 C286.828905,230.612746 277.439938,228.974405 268.542322,226.984146 C271.265478,218.289701 274.539185,209.343887 278.271684,200.398073 L278.271684,200.398073 Z M306.888499,191.514361 C306.888499,191.514361 307.042416,188.001096 307.080895,185.47261 C307.166734,178.942904 307.39465,161.589503 310.150366,158.357181 C311.162669,157.171306 320.175722,146.572364 324.62157,140.146164 C326.335382,137.676824 334.584768,132.933324 339.894922,130.354563 L340.205717,130.138681 C340.945705,131.791808 342.126725,133.959505 343.787258,136.774849 C344.27565,141.358655 335.526033,164.46695 333.415587,167.56028 C332.509842,168.790514 329.484771,172.516704 327.883437,174.060412 C326.965852,174.9476 324.0355,178.046844 324.763648,180.755726 C324.959005,181.471391 325.334919,182.210714 325.84699,183.236895 C326.48042,184.496703 327.800558,187.12278 327.673281,188.284996 L327.673281,188.290911 L326.847454,200.87124 C326.057147,205.718245 321.522501,215.00119 320.107644,217.393641 C319.341016,218.694851 315.510838,223.45018 311.7221,227.64658 C311.12419,228.306056 310.49668,229.098611 309.86621,229.932568 C308.477993,227.844718 307.092735,225.756869 305.731157,223.618745 C305.698598,222.817319 305.668998,222.163757 305.645319,221.776351 C305.399643,217.239862 305.535801,207.250123 305.734117,202.636744 L306.888499,191.514361 Z M302.167375,126.483466 C301.530986,124.6322 299.944452,123.546873 298.547354,122.582795 C298.067842,122.251578 297.345614,121.754752 297.182816,121.556614 C294.705337,117.59384 293.186881,114.234354 293.148402,113.332379 C293.204641,112.403789 294.228785,110.23905 295.622922,107.769709 C296.025475,110.451975 297.644569,113.045522 297.996803,113.583749 C298.562154,114.444322 299.524138,114.961848 300.557162,114.961848 L300.574921,114.961848 L301.018914,114.958891 C302.043057,114.952976 302.999122,114.43545 303.558553,113.577834 C303.981826,112.930187 307.350251,107.769709 309.022624,104.640892 C309.561335,106.228959 310.191805,107.941232 310.763076,109.461281 C311.13603,110.454932 311.446824,111.288889 311.615542,111.785714 C312.843922,115.455716 315.475319,121.524084 319.432775,121.524084 C319.521573,121.524084 319.610372,121.521126 319.69621,121.515212 C321.714897,121.376219 325.453317,118.80633 327.844958,116.765797 C330.479315,119.264711 331.796493,119.995163 333.368228,120.051351 L339.116454,119.737878 L339.128294,119.737878 C340.830266,119.737878 343.109429,117.889569 345.178436,115.751446 C345.110357,116.493726 344.977159,119.734921 344.88836,121.045002 C344.885401,121.121892 344.915,121.198781 344.91204,121.275671 C340.788827,122.077098 337.885114,124.176776 336.852091,125.034392 C333.809261,126.527825 322.682802,132.196958 319.589652,136.662472 C316.718499,140.814512 311.443865,147.293944 307.664006,151.812689 L307.252573,150.446419 C305.778517,147.749367 304.049905,144.312991 303.833828,143.526351 C303.481594,141.858437 303.786469,140.021958 304.035105,138.546268 C304.260061,137.185913 304.437658,136.115372 304.141663,135.086234 C304.085424,134.867394 303.961106,134.24932 303.792389,133.436064 C303.176719,130.469898 302.587689,127.704828 302.167375,126.483466 L302.167375,126.483466 Z M293.663434,61.8695484 C293.621994,61.9050359 293.399998,61.9937547 292.994485,61.9937547 L292.470573,61.9937547 C291.46123,61.9937547 290.969878,61.7985733 290.943238,61.7985733 L290.777481,52.642791 L291.147475,52.642791 C291.387231,52.6487056 292.002901,52.6516629 292.736969,52.6516629 C293.044804,52.6516629 293.382238,52.6487056 293.710793,52.6487056 L293.663434,61.8695484 Z M288.178643,40.6302627 L294.877014,40.4676115 L294.279104,48.0589853 C293.044804,48.0648998 291.659546,48.0648998 291.218514,48.0530707 L288.844632,48.0530707 L288.178643,40.6302627 Z M287.530414,31.0722884 L286.284274,30.5813776 C286.278354,30.5784203 285.523566,30.2797336 285.023334,29.9958333 C285.023334,29.992876 284.801338,29.6113851 284.801338,28.4284675 L284.801338,24.8471844 C286.260594,24.5869426 288.894951,24.3059996 292.612651,24.3059996 C296.315551,24.3059996 298.958788,24.6194728 300.423964,24.9004157 L300.423964,28.7626417 C300.423964,29.5877268 300.142768,29.7976946 300.006611,29.8982426 C299.722455,30.1022959 298.949908,30.3300076 298.455596,30.3921107 L296.735864,30.5843348 L296.013636,32.154658 C296.013636,32.154658 295.267728,33.7811697 294.347183,35.8956349 L289.782937,36.0109694 C289.315264,35.2923469 288.536797,33.6303477 288.027685,32.3232237 L287.530414,31.0722884 Z M294.731976,7.34887566 C294.687577,7.46421013 294.646138,7.5795446 294.622458,7.69783636 C294.329423,8.87483938 294.888854,10.108031 295.569643,10.8089097 C296.312591,11.5718915 297.354494,11.8971939 298.354957,11.6783541 C299.006147,11.5334467 299.849733,11.3264361 300.731799,11.1016818 C300.418044,12.1958806 300.03029,13.1126417 299.565578,13.8608371 C298.902549,14.9165911 297.197616,16.856576 295.904117,18.2642479 C294.900694,18.2169312 293.826231,18.1903156 292.612651,18.1903156 C291.662506,18.1903156 290.7982,18.2080593 289.969414,18.2317177 C289.507661,16.2414588 289.00447,13.8637944 288.915671,12.6276455 C288.815033,11.2229308 291.393151,9.04636243 294.731976,7.34887566 L294.731976,7.34887566 Z M299.047586,65.436045 C299.331742,66.914692 299.796454,68.4317838 300.290766,70.0346372 C301.323789,73.4177816 302.617288,77.6230537 303.013922,83.993065 C303.241838,87.6068783 304.594536,91.3064531 305.488441,93.7521353 C305.677878,94.2607899 305.843636,94.7191704 305.970914,95.1006614 L305.982753,95.1331916 C305.879155,95.4703231 305.781477,95.7867536 305.663079,96.1919029 C305.210206,97.7356104 304.644855,99.6637661 304.017345,100.997506 C303.549673,101.982285 302.552169,103.676814 301.501386,105.392045 C301.101793,102.845814 299.965171,98.8238946 299.577418,97.4812831 L299.559658,97.4871977 L298.266159,92.341506 C297.428492,89.7450019 295.173009,82.2098167 294.800055,78.5930461 C294.5011,75.694898 294.672777,72.6429705 294.797095,70.4131708 C294.877014,69.067602 294.927333,68.1774565 294.871094,67.5031935 C294.835575,67.0980442 294.856294,66.7431689 294.871094,66.4089947 C294.871094,66.3794218 294.871094,66.3380197 294.874054,66.3025321 C296.661865,65.7613473 297.854726,64.430565 298.118161,62.6236584 C298.550314,63.7237717 298.911428,64.7410809 299.047586,65.436045 L299.047586,65.436045 Z M321.069628,85.2913171 L317.556165,75.0679516 L324.594931,81.5917423 C323.180074,82.6327098 321.993133,83.8718159 321.069628,85.2913171 L321.069628,85.2913171 Z M335.227078,84.3597695 C340.729628,84.3597695 345.276114,87.6364512 345.891784,91.7973639 C344.423648,91.8239796 342.585518,91.8121504 341.632413,91.5045918 C340.415873,91.1023998 338.536304,89.8425926 337.509201,89.0559524 C337.307924,88.8696429 337.077048,88.709949 336.822492,88.579828 C335.777629,88.056387 334.516689,88.1776361 333.581344,88.8844293 C333.557665,88.9051304 333.528065,88.9258314 333.501426,88.9465325 C332.681519,89.5912226 330.15372,91.445446 328.815822,92.0664777 C327.995915,92.4479686 326.49818,92.8324169 325.071483,93.1340608 L324.988604,92.4095238 C325.086283,87.8109316 329.455172,84.3597695 335.227078,84.3597695 L335.227078,84.3597695 Z M335.475714,67.6362717 L338.095271,78.4688398 C337.162886,78.3298469 336.206822,78.2411281 335.227078,78.2411281 C334.276933,78.2411281 333.368228,78.3446334 332.471362,78.4688398 L335.475714,67.6362717 Z M353.617258,74.0535998 L349.008613,84.4514456 C347.99335,83.2034675 346.75313,82.1063114 345.344193,81.186593 L353.617258,74.0535998 Z M361.147376,88.7217782 L352.166882,95.4851096 C352.163922,95.0917895 352.160962,94.8433768 352.160962,94.8285903 C352.155042,94.5801776 352.119523,94.3376795 352.057364,94.1070106 L352.084003,92.8146731 C352.084003,92.0516912 351.992245,91.3094104 351.864967,90.5789588 L361.147376,88.7217782 Z M338.441585,113.654724 L333.8359,113.914966 C332.63416,113.015949 330.017562,110.307067 329.097017,109.354819 L328.268231,108.509033 C328.031435,108.127542 327.546003,107.193037 327.368405,106.779015 C327.220408,106.054478 327.016171,105.155461 326.791215,104.179554 C326.436021,102.626975 326.021627,100.825983 325.761152,99.2349584 C327.501603,98.888955 329.845885,98.3329837 331.39986,97.611404 C331.559697,97.5404289 333.681983,96.5438209 335.567472,95.1716364 C336.751453,95.9553193 338.290628,96.8425076 339.726204,97.3156746 C341.534735,97.9071334 343.861257,97.9544501 345.826665,97.9160053 L345.838505,99.2941043 L345.835545,99.3739512 L345.838505,99.3739512 L345.853305,101.432228 C345.669788,103.907483 345.379712,105.764664 345.154756,106.288105 C344.405888,107.586357 340.075479,112.477721 338.441585,113.654724 L338.441585,113.654724 Z M352.960149,130.390051 C355.194913,133.149206 357.642793,137.437283 359.803558,141.216704 C361.182895,143.632814 362.485274,145.90993 363.681095,147.731623 C366.128975,151.448942 368.567975,153.545663 370.15155,154.855745 L366.892643,159.001871 L366.993281,160.202532 C367.138319,161.938464 367.07912,164.120947 366.987361,164.484694 L365.945458,166.081633 C365.895139,165.830263 365.84482,165.575935 365.80634,165.36301 C365.101872,161.642734 362.192239,156.222014 360.069954,152.27107 C359.395085,151.017177 358.844533,149.99691 358.578138,149.39658 C358.175584,148.497562 357.018243,146.622638 354.647322,142.816601 C352.069204,138.679346 347.025446,130.576361 345.637228,127.367697 C346.318017,127.21096 347.040245,127.086754 347.827593,127.063095 C347.827593,127.063095 348.721498,127.063095 348.961254,127.10154 C349.20101,127.137028 351.574892,128.689607 352.960149,130.390051 L352.960149,130.390051 Z M372.113998,167.826436 C373.155901,166.238369 373.297978,163.381623 373.17662,160.912283 L376.971279,156.083022 C377.009758,156.044577 377.074877,155.991345 377.101516,155.96473 L377.720146,155.127816 L377.791185,155.036139 L377.788225,155.033182 L381.642083,149.816515 L393.594368,156.251587 L390.814973,160.539664 C390.208183,160.146344 389.687232,159.806255 389.423796,159.634732 L388.748927,159.235497 C387.878701,158.720928 386.857518,158.578978 385.883694,158.836262 C384.90099,159.09059 384.081083,159.711621 383.63709,160.480518 L378.856768,167.728845 C377.794145,169.346485 378.001342,171.508267 379.516837,173.031274 C379.519797,173.034231 380.256825,173.643433 380.780737,174.095899 L380.804416,174.166875 L372.723748,186.969 L368.86693,184.180272 L367.63559,174.687358 L372.113998,167.826436 Z M386.925597,177.357795 C386.771679,177.059108 386.671041,176.701276 386.520083,176.340486 C386.019851,175.163483 384.921709,171.694577 384.921709,171.694577 L384.454037,171.233239 C384.196521,170.975954 383.379574,170.28099 382.923742,169.899499 L387.082474,163.585676 C387.96454,164.159392 390.894892,166.057974 391.901276,166.708579 C390.732095,169.795994 388.085898,175.154611 386.925597,177.357795 L386.925597,177.357795 Z M376.829201,200.211763 C376.811441,200.61987 376.610164,201.146268 376.453287,201.391723 L371.462808,204.180452 L369.947313,192.508012 L374.42276,195.743292 L378.149339,189.837576 C377.48039,194.371107 376.9032,198.425557 376.829201,200.211763 L376.829201,200.211763 Z M333.030793,200.250208 L334.753485,175.621863 C336.29266,173.838615 337.784476,171.951861 338.343907,171.188879 C339.847562,169.154261 345.879944,155.021353 348.573501,144.638294 C348.872456,145.117375 349.135891,145.546183 349.449646,146.048923 C350.976981,148.50052 352.711513,151.283333 352.980869,151.883664 C353.288704,152.563842 353.910294,153.731973 354.673961,155.160346 C356.390733,158.357181 359.261887,163.703968 359.788758,166.495654 C360.158752,168.462254 361.028978,172.294907 361.310173,173.525142 L366.137855,210.745644 C366.173374,211.280915 369.396762,231.059297 369.396762,231.059297 C368.858051,231.869596 368.334139,232.718339 367.786548,233.516808 C358.527819,234.285705 349.189171,234.699726 339.99852,234.699726 C336.89649,234.699726 333.761901,234.587349 330.636192,234.495673 L332.953835,201.365108 C332.977514,200.951087 333.030793,200.250208 333.030793,200.250208 L333.030793,200.250208 Z M324.506132,234.294577 C321.235385,234.13784 317.964638,233.924915 314.696852,233.676502 C315.238523,232.95788 315.768354,232.292489 316.265626,231.742432 C319.70213,227.942309 324.165738,222.560034 325.379318,220.501757 C325.408917,220.451483 325.453317,220.371636 325.485876,220.312491 L324.506132,234.294577 Z M393.023097,216.349717 C396.136967,210.95857 399.076199,205.546721 401.864474,200.134873 C405.881128,209.565684 409.172595,218.508541 411.801032,226.910214 C402.802778,228.933003 393.295413,230.595002 383.551252,231.857766 C386.789439,226.81558 389.962507,221.652145 393.023097,216.349717 L393.023097,216.349717 Z M391.531282,181.311697 C395.006265,176.704233 398.496048,166.294558 398.573007,165.782946 C398.806843,164.21558 398.025416,163.236716 396.873995,162.432332 L402.343986,154.012916 L379.857232,141.902797 L373.907728,150.023526 C372.492871,148.84948 370.681381,147.228883 368.798852,144.372137 C367.706629,142.713095 366.44865,140.512868 365.122591,138.188435 C362.846388,134.202003 360.26235,129.683258 357.710872,126.53374 C355.946741,124.366043 353.714937,122.712916 351.255217,121.754752 C351.130899,121.710393 350.988821,121.600973 351.000661,121.453108 C351.09538,119.995163 352.036644,108.707171 352.015925,106.427098 L351.980405,101.55052 C351.995205,101.275491 351.885687,101.541648 351.885687,101.541648 L371.95712,86.3322846 C372.812546,85.6875945 373.105581,84.5372071 372.670469,83.5613001 C372.229436,82.585393 371.181613,82.0353364 370.12195,82.2512188 L353.53438,85.5663454 L361.961363,66.5686886 C362.396476,65.5898243 362.091601,64.4364796 361.227295,63.7977041 C360.368909,63.1589286 359.176048,63.203288 358.362061,63.907124 L342.588478,77.5047619 L337.861435,57.9659203 C337.612799,56.9456538 336.712973,56.2270314 335.66811,56.2092876 L335.626671,56.2092876 C334.599568,56.2092876 333.690863,56.8953798 333.415587,57.8919879 L327.762079,78.2736584 L313.974623,65.4892763 C313.202076,64.7736111 312.038815,64.6760204 311.159709,65.2467782 C310.277643,65.8204932 309.89877,66.9176493 310.242124,67.9172147 L318.908863,93.125189 L319.417975,97.5374717 C319.500853,99.7820578 320.205322,102.845814 320.823952,105.548781 C321.054828,106.539475 321.262025,107.438492 321.395223,108.142328 C321.56394,109.026559 322.747921,111.392394 323.544148,112.394917 C322.357207,113.364909 320.874271,114.405877 319.850128,115.00325 C319.0835,113.867649 318.029757,111.67038 317.422967,109.851644 C317.24241,109.310459 316.902016,108.40257 316.496502,107.317243 C315.664756,105.093358 314.403816,101.727957 314.024943,100.063001 C313.702308,98.6582861 313.065918,96.8425076 312.447288,95.0947468 L311.775379,93.1518046 C311.636261,92.7289116 311.449784,92.2232143 311.239628,91.6524565 C310.46412,89.535034 309.294939,86.3411565 309.123262,83.6086168 C308.682229,76.519983 307.214093,71.7350813 306.142591,68.242517 C305.680838,66.7372543 305.281245,65.436045 305.062208,64.2827003 C304.585656,61.8133598 302.960643,58.2261621 301.394828,54.7542989 C300.456523,52.6871504 299.089025,49.655924 298.843349,48.629743 L299.580377,39.2137188 C300.098369,38.018972 300.589721,36.9040722 300.950835,36.0937736 C301.794421,35.8453609 302.788965,35.4490835 303.644391,34.8162226 C305.515081,33.4351663 306.548104,31.2852135 306.548104,28.7626417 L306.548104,22.268424 L306.308348,21.6976663 C306.015313,20.9997449 305.441082,19.6778345 301.492506,18.8704932 C302.273934,17.9448602 303.008002,17.0103553 303.460874,16.2858182 C304.715894,14.2778156 305.535801,11.6251228 305.970914,8.17691799 L306.417866,4.61633598 L302.996162,5.70462018 C302.392332,5.89684429 301.602025,6.12455593 300.776198,6.34635299 C301.442187,5.26989796 301.918739,4.29103364 302.051937,3.34174225 L302.534409,0 L299.245903,0.786640212 C294.178465,1.99321618 283.868953,6.56519274 284.333666,12.9618197 C284.437264,14.3783636 284.899016,16.6377362 285.334129,18.5688492 C279.325427,19.3318311 278.680157,21.1505669 278.680157,22.8835412 L278.680157,28.4284675 C278.680157,31.4981387 279.600702,33.6747071 281.424033,34.8931122 C281.900585,35.2184146 282.380097,35.4845711 282.80041,35.7034108 C283.096406,36.4042895 283.507839,37.294435 283.954792,38.1461357 C283.691356,38.6873205 283.516719,39.2935658 283.522639,40.0121882 L284.321826,48.9432162 C284.321826,50.2237245 285.029254,51.5515495 286.177716,52.2139834 L286.352353,61.84589 C286.358273,63.3304516 287.056821,64.8712018 288.761753,65.7761338 C288.758794,65.9062547 288.755834,66.039333 288.749914,66.1753685 C288.729194,66.7313398 288.711434,67.3287132 288.767673,68.0029762 C288.794313,68.4022109 288.738074,69.1297052 288.684795,70.0671674 C288.557517,72.3649849 288.35624,75.8368481 288.708474,79.2199924 C289.223506,84.2178193 292.307776,93.8112812 292.381775,94.0212491 L293.681193,99.2260865 C291.505629,102.487982 287.264018,109.272014 287.036102,112.956803 C286.891064,115.322638 288.560477,119.30907 291.994021,124.800765 C292.766568,126.031 293.994948,126.879743 295.075331,127.624981 C295.569643,127.962113 296.309631,128.470767 296.38067,128.473724 C296.709224,129.423016 297.443292,132.974726 297.798486,134.681085 C297.955364,135.42928 298.088562,136.044397 298.16848,136.408144 C298.147761,136.709788 298.073762,137.094237 297.996803,137.540788 C297.700808,139.315164 297.250895,141.991515 297.845846,144.786158 C298.18624,146.409713 300.275966,150.428675 301.646424,152.951247 L302.963602,160.042838 C301.380028,166.202882 301.086993,175.521315 300.956755,185.392763 C300.924196,187.755641 300.903476,189.633522 300.805798,190.857842 L299.678056,201.61352 L299.615897,202.373545 C299.503419,205.014409 299.41758,209.19898 299.39982,213.244558 C298.80191,212.230206 298.1744,211.254299 297.58537,210.231075 C292.914566,202.145833 288.610796,194.016232 284.712539,185.928033 C288.300001,178.333702 292.204177,170.866534 296.309631,163.615249 L289.865816,150.390231 C288.903831,151.987169 287.912247,153.56045 286.979862,155.17809 C283.842313,160.604724 280.909001,166.013615 278.135526,171.392933 C274.266869,162.284467 270.942843,153.312037 268.237447,144.611678 C274.530305,143.195134 281.080678,141.967857 287.779049,140.923932 L284.978935,128.739881 C277.993449,129.83408 271.244758,131.105716 264.833503,132.590278 C263.415686,126.977334 262.276104,121.509297 261.435478,116.236442 C257.347784,90.5789588 260.879007,72.4803193 271.12044,66.5716459 C272.866812,65.5632086 274.8263,64.9244331 276.954506,64.5961735 L276.954506,52.2938303 C272.635936,52.693065 268.622241,53.8848545 264.99926,55.9756614 C249.900546,64.6848923 244.341756,86.7699641 249.344075,118.158683 C250.2439,123.807115 251.46932,129.650728 252.984815,135.64812 C214.641599,146.622638 190,164.798167 190,185.765382 C190,206.744426 214.680079,224.931784 253.079534,235.903345 C243.388652,274.614324 246.813316,305.059666 264.99926,315.552145 C269.451028,318.119076 274.494786,319.387755 280.029896,319.387755 C293.26384,319.387755 309.306779,312.124641 326.732016,298.006519 C331.151224,294.425236 335.585232,290.46542 340.00148,286.177343 C344.417728,290.46542 348.848776,294.425236 353.267984,298.006519 C370.696181,312.124641 386.7332,319.387755 399.970104,319.387755 C405.505214,319.387755 410.548972,318.119076 415.00074,315.552145 C433.260683,305.018263 437.1175,275.182124 427.089183,235.856028 C465.39096,224.878553 490,206.714853 490,185.765382 C490,164.673961 466.116149,146.4452 427.062544,135.473639 C428.560279,129.535393 429.76794,123.747969 430.658885,118.158683 C435.658244,86.7699641 430.096494,64.6848923 415.00074,55.9786187 C404.54619,49.9457389 390.989611,51.0931689 375.624501,58.7643896 L369.281324,73.0510771 L377.888864,71.3831633 C390.652176,64.2472128 401.544799,62.3427154 408.8766,66.5716459 C419.120993,72.4803193 422.652216,90.5789588 418.567482,116.236442 C417.729816,121.470852 416.605034,126.894529 415.199057,132.460157 C402.219668,129.517649 387.869821,127.308551 372.398153,125.971854 C371.143133,125.862434 369.846674,125.821032 368.579815,125.726398 L376.041854,138.640901 C388.778527,139.930282 400.83145,141.852523 411.848391,144.351436 C405.336497,165.36301 395.281541,187.97448 382.41759,210.231075 C379.806912,214.752778 377.110396,219.150274 374.366521,223.470881 L372.383353,211.266128 L372.312314,210.7072 L378.688051,207.114087 C381.639123,206.064248 382.852703,202.63083 382.947421,200.463133 C383.01846,198.739031 384.702673,187.427381 384.702673,187.427381 L385.140746,184.402069 C385.191065,184.067895 385.235464,183.742593 385.282823,183.429119 C385.413061,183.455735 387.834302,183.710062 387.834302,183.710062 C388.722287,183.81061 389.924028,183.470522 390.282182,183.041714 L391.531282,181.311697 Z" id="logo"></path>
                </g>
            </g>
        </g>
    </g>
</svg>