<svg xmlns="http://www.w3.org/2000/svg" viewBox="0 0 289.14 285.63"><defs><style>.a{fill:#8ae4fc;}</style></defs><title>mobile-city-illustration</title><path class="a" d="M40.43,205.89l2.42-3.17V198.1H37.27v4.62l2.44,3.21c-1.78,1.58-14.13,13.07-14.8,27h-.06l0,.28c0,.29,0,.59,0,.88v51.43h.51V236.18c1,6.22,3.31,19.92,4.6,26.79,1.38,7.32,5,22.5,5,22.66l.5-.12c0-.15-3.67-15.33-5-22.63-1.58-8.4-4.64-27-5.07-29.66C25.94,219.4,38.19,208,40,206.33l0,0,.06-.08c1.74,1.54,14.68,13.51,14.68,27.84v51.43h.51V234.14C55.31,219.54,42.11,207.38,40.43,205.89Zm-2.66-7.28h4.57v3.93l-2.28,3-2.29-3Z"/><path class="a" d="M83.58,205.93,86,202.72V198.1H80.44v4.62l2.42,3.17C81.19,207.37,68,219.53,68,234.14v51.43h.5V234.14c0-14.32,12.94-26.3,14.68-27.84l.07.08,0,0c1.6,1.42,11,10.23,13.85,21.58h-.07c-.07.34-6.6,34.36-8.3,41.57-.29,1.2-.76,3.2-1.27,5.41-.9,3.81-1.94,8.25-2.43,10.33l.49.11c.5-2.08,1.54-6.51,2.43-10.33.52-2.2,1-4.2,1.27-5.41,1.54-6.53,7.05-35,8.12-40.63a25.46,25.46,0,0,1,.55,5.19v51.43h.51V234.14C98.42,219.64,85.41,207.56,83.58,205.93ZM81,198.61h4.57v3.93l-2.28,3-2.29-3Z"/><path class="a" d="M126.48,219.14c-1.68-3.34-4.4-9.79-7.2-16.71l-.11-12.31c0-.06-.37-6.33.35-8.25a7.8,7.8,0,0,1,2-3l0,0,1.52-3.3.16-2.09-4-.13v-3.13H101.73v3.12H69.24v-3.12H51.06v3.12H21.56v-3.12H4v3.13l-4,.13.14,2,1.54,3.39.05,0a7.82,7.82,0,0,1,2,3,16.23,16.23,0,0,1,.45,4.65c0,1.89-.09,3.59-.09,3.61l-.87,95.43h.5L4.63,191H8.28l.36,94.6h.51L8.79,191h0v-2.23h9l.34,36.92,1.52,10.88.13,49h.51l-.13-49.07-1.52-10.87-.34-36.89h.77l1.25,1.18H55.82v-2.35h9.63l.49,2.42h37l1-2.91h0l-.38,41.74-1.52,10.86-.13,45.9h.51l.12-45.87,1.53-10.85.37-41.79,8-.21.79,2-.43,96.69h.51l.42-95.4c1.53,3.92,3.25,8.24,4.93,12.39l.76,83H120l-.75-81.73c2.67,6.54,5.2,12.48,6.74,15.54,2.52,5,15.54,30.32,24.72,38l.33-.39C142,249.36,129,224.12,126.48,219.14Zm-12.74-36.28.1,1.62h-.48v1.85h-.42c-.47-1.21-.91-2.36-1.31-3.41Zm.11,5.2V185h4.73c0,1.24,0,2.55,0,3.54l-4.74-.08Zm8.8-12.71-1.46,3.15a8.3,8.3,0,0,0-2.14,3.19,10.92,10.92,0,0,0-.43,2.75h-4.28l-.11-1.91,5.33-8.72,3.19.11Zm-3.87-4.67v3.11H119l-5.23,8.55-2.31.06c-1.42-3.71-2.33-6.2-2.36-6.4h-.51c0,.23.9,2.71,2.3,6.42l-6.94.18-1.45-9.18-.24,0v-2.79ZM102,173.8l1.47,9.34-.85,1.17H66.29l-.81-1.22,3.91-9.29Zm-33.28-3.12v3.12h.1L65,183h0l-9.34,0-3.9-9.62-.17.06v-2.76ZM51.36,173.8l3.88,9.57.07,0v2H20.54l-1.25-1.18h-.91L21.5,173.8Zm-30.3-3.12v2.83l-3.19,10.61h-.1v.06h-9l-4.15-10.8-.06,0v-2.72Zm-19,7.82L.65,175.35l-.11-1.43,3.65-.12,4.08,10.58v2H4.73a16.14,16.14,0,0,0-.49-4.71A8.3,8.3,0,0,0,2.1,178.5Zm2.53,12v-.31s.09-1.5.1-3.24H8.27v3.55Zm4.15-2.22v-1.33h0v-2.22h9l0,3.55Zm94.82-1.66-1,2.9H66.36l-.5-2.42H55.31v2.35H20.54l-1.25-1.17h-1l0-3.55h.81l1.25,1.17H55.82v-2.35h9.34l.85,1.3H102.9l1.25-1.71,6.9-.18c.4,1.06.84,2.2,1.31,3.41Zm9.74.25v.58l-.22-.58Zm.59,2.09,4.68.08c0,.64,0,1.08,0,1.14l.1,11C117.09,197,115.41,192.73,113.93,188.92Z"/><path class="a" d="M205.92,81.9l-7.58-3V70.68c0-.87-3.29-1.35-7-1.62l-9.26-23.35V0h-.51V45.49L172.71,69c-4.2.25-8.35.74-8.35,1.71v6.16h-5.59v.25l-7.61,208.42.51,0L159,83.83l7.84,201.61.51,0L159.3,77.35h33.44L176.88,285.42l.51,0,15.7-205.93,15.33,206,.5,0-15.48-208,12.13,4.79,6.17,203.22.51,0L206.08,82.13A.28.28,0,0,0,205.92,81.9ZM190.81,69c-3.47-.23-7.13-.29-8.7-.3V47.09ZM181.6,46.92V68.73h-.25c-.33,0-4.15,0-8.08.21Zm11.69,30v-.07H164.87V70.71c.32-.6,6.38-1.47,16.49-1.47s16.17.87,16.49,1.44v8Z"/><path class="a" d="M258.45,141.77c-8.81,0-16,7.59-16,16.91V285.6H243V158.68c0-9,6.94-16.4,15.47-16.4s15.47,7.36,15.47,16.4V285.6h.51V158.68C274.43,149.36,267.26,141.77,258.45,141.77Z"/><path class="a" d="M258.2,154.45a5.22,5.22,0,0,0-5.08,5.33V160h10.15v-.25A5.21,5.21,0,0,0,258.2,154.45Zm-4.56,5.07a4.56,4.56,0,1,1,9.11,0Z"/><path class="a" d="M281.53,151.41v-.09a15.8,15.8,0,0,0-2.26-8.06h.23v-7a17.45,17.45,0,0,0-3.1-9.88h.06v-6.8a16.16,16.16,0,0,0-4.14-10.74h.08V103a15.59,15.59,0,0,0-4.57-11.15V86.54a16.94,16.94,0,0,0-3.3-10.46h.26V72.59c-.61-11.07-3.47-15.24-5.84-15.51V11.91h-.5V57.08c-3.29.33-5.83,7-5.83,15.52v3.18a16.66,16.66,0,0,0-3.55,10.76v5.77h0A15.68,15.68,0,0,0,245,103v5.39a16.22,16.22,0,0,0-4.57,11.21v7.67a17.42,17.42,0,0,0-2.53,9v6.56a15.77,15.77,0,0,0-2.54,8.5v.09h-7.61V285.6h.51V151.91h7.1V285.6h.51V151.32a15.33,15.33,0,0,1,2.51-8.32h0v0c3.77-5.83,11.33-9.82,20-9.82,12.44,0,22.57,8.15,22.57,18.17V285.6h.51V151.91h7.1V285.6h.51V151.41ZM253.12,72.6c0-8.08,2.52-14.92,5.51-15h.14c2.77.11,5,6.26,5.51,15v3.18a8.81,8.81,0,0,0-3.08-2.39l-2.85-9.92-2.65,9.92a8.51,8.51,0,0,0-2.58,1.84Zm7.49.56a6.63,6.63,0,0,0-2.16-.37,6.54,6.54,0,0,0-2.16.37l2.08-7.79Zm-2.16.13c4.89,0,8.88,5.95,8.88,13.25v4.82a13.42,13.42,0,0,0-3.62-2.31l.07,0-1.54-10.15-3.71,8.6-3.78-8.13-1.5,9.9a13.59,13.59,0,0,0-3.68,2.58V86.54C249.57,79.24,253.55,73.29,258.45,73.29Zm4.79,15.56a12.58,12.58,0,0,0-4.38-.84l3.14-7.3Zm-5-.83a12.65,12.65,0,0,0-4.42,1l1.2-7.91Zm.48.49a12.5,12.5,0,0,1,8.63,3.54v.13h.14a15.08,15.08,0,0,1,4.42,10.8v5.39a18,18,0,0,0-5.6-4l.22-10-5.38,8.35-2.77-10.46-2.6,10.29-5.45-8.45.13,10.32a18.07,18.07,0,0,0-4.93,3.38V103C245.51,95,251.43,88.51,258.7,88.51Zm-7.76,15.75-.1-8.35,4.54,7A18.21,18.21,0,0,0,250.94,104.26Zm14.85-.08a18.79,18.79,0,0,0-4.18-1.2L266,96.21Zm-5.17-1.34a19.31,19.31,0,0,0-2.17-.13,18.16,18.16,0,0,0-2.23.14l2.15-8.51ZM241,119.58c0-9,7.85-16.36,17.5-16.36s17.5,7.34,17.5,16.36v6.16A20.17,20.17,0,0,0,270.9,121l1.27-10.32-5.62,7.4-.87-9.61-4.54,9-2.78-9.7-2.67,9.74-4.26-9.12-1,9.76-5.6-7.54,1.37,10.52a19.87,19.87,0,0,0-5.3,5.28Zm5.77,1.3-1.08-8.36L250.4,119v0A21.64,21.64,0,0,0,246.72,120.88Zm4.21-2.09.83-8.45,3.43,7.36A22.18,22.18,0,0,0,250.93,118.79Zm10.73-1.17,3.68-7.32.75,8.35A22.87,22.87,0,0,0,261.66,117.62Zm4.95,1.22h0l4.83-6.35-1,8.22A21.73,21.73,0,0,0,266.61,118.84Zm-6-1.34c-.63,0-1.26-.08-1.91-.08a22.48,22.48,0,0,0-2.48.14l2.15-7.86Zm-9.48,16.11,1.29-8,3,7.23a27.14,27.14,0,0,0-4.31.81Zm-.53.14a25.76,25.76,0,0,0-3.91,1.51l-1-7.93Zm5.6-1,2.17-7.94,2.28,7.94c-.73-.06-1.46-.09-2.2-.09S256.94,132.67,256.2,132.73Zm9.77.9.07.05a28.35,28.35,0,0,0-4.6-.88l3.73-7.41.76,8.24Zm5.38-6.3-1,8a26.51,26.51,0,0,0-3.93-1.54Zm-.5,8.25,1.24-10.06-5.71,7.5-.87-9.44-4.43,8.81-2.72-9.48-2.58,9.4-3.57-8.58-1.51,9.32L245,125.52l1.23,10a21.26,21.26,0,0,0-7.8,6.57v-5.81c0-10.11,9.11-18.33,20.29-18.33S279,126.15,279,136.26v6.56A20.9,20.9,0,0,0,270.85,135.58Z"/><polygon class="a" points="253.63 285.6 254.14 285.6 254.14 165.61 262.76 165.61 262.76 285.6 263.27 285.6 263.27 165.1 253.63 165.1 253.63 285.6"/></svg>