
<svg width="293px" height="315px" viewBox="0 0 293 315" version="1.1" xmlns="http://www.w3.org/2000/svg" xmlns:xlink="http://www.w3.org/1999/xlink">
    <defs>
        <polygon id="path-1" points="0.250811667 0.24232528 1.26747833 0.24232528 1.26747833 46.2532672 0.250811667 46.2532672"></polygon>
    </defs>
    <g id="Page-1" stroke="none" stroke-width="1" fill="none" fill-rule="evenodd">
        <g id="Mobile-useReact" transform="translate(-12.000000, -4189.000000)">
            <g id="code-of-conduct" transform="translate(0.000000, 1920.000000)">
                <g id="illustration" transform="translate(13.000000, 2269.000000)">
                    <g id="City-Illustration">
                        <g id="Group-43" transform="translate(0.000000, 170.000000)" stroke="#8AE4FC" stroke-width="0.5">
                            <path d="M25.0774411,116 L25.0774411,64.1905673 C25.0774411,48.4952206 40.1750842,35.7709251 40.1750842,35.7709251 C40.1750842,35.7709251 55.2727273,48.4952206 55.2727273,64.1905673 L55.2727273,116" id="Stroke-1"></path>
                            <path d="M68.5791246,116 L68.5791246,64.1905673 C68.5791246,48.4952206 83.6767677,35.7709251 83.6767677,35.7709251 C83.6767677,35.7709251 98.7744108,48.4952206 98.7744108,64.1905673 L98.7744108,116" id="Stroke-3"></path>
                            <path d="M120.586036,116 L119.706846,19.8574521 C119.706846,19.8574521 119.329542,13.4469398 120.08415,11.4365319 C120.836978,9.42612407 122.218944,8.29449058 122.218944,8.29449058 L123.725491,5.02691003 L123.851852,3.26758055 L119.832317,3.14115101 L119.832317,0 L102.623157,0 L102.623157,3.14115101 L69.336748,3.14115101 L69.336748,0 L51.5002305,0 L51.5002305,3.14115101 L21.2286951,3.14115101 L21.2286951,0 L4.02042439,0 L4.02042439,3.14115101 L0,3.26758055 L0.12636128,5.02691003 L1.63290809,8.29449058 C1.63290809,8.29449058 3.01487336,9.42612407 3.7685917,11.4365319 C4.13254778,12.4079026 4.23310288,14.406736 4.23933196,16.2123636 C4.24645091,18.1453111 4.14500593,19.8574521 4.14500593,19.8574521 L3.26581618,116" id="Stroke-5"></path>
                            <polyline id="Stroke-7" points="4.60606061 16.3524229 8.65978854 16.3524229 8.65978854 14.1112516 19.0910375 14.1112516 20.3482006 15.2976991 55.788271 15.2976991 55.9138093 12.9238699 65.9684435 12.9238699 66.4705964 14.2420411 103.419797 14.2420411 104.67696 12.5277646 114.730704 12.2643172 114.856242 14.374699 119.757576 14.374699"></polyline>
                            <polyline id="Stroke-9" points="4.60606061 20.4405286 8.65978854 20.4405286 8.65978854 18.1989354 19.0910375 18.1989354 20.3482006 19.3851118 55.788271 19.3851118 55.9138093 17.0118249 65.9684435 17.0118249 66.4705964 18.329695 103.419797 18.329695 104.67696 16.6158101 114.730704 16.3524229 114.856242 18.4623226 119.757576 18.4623226"></polyline>
                            <polyline id="Stroke-11" points="4.09427609 3.0660793 8.32641947 14.0077278 8.32641947 17.9697432 8.7003367 116"></polyline>
                            <polyline id="Stroke-13" points="114.344943 13.7973568 114.344943 17.7666515 113.910949 116"></polyline>
                            <path d="M18.4242424,14.30837 L21.4949495,3.0660793" id="Stroke-15"></path>
                            <polyline id="Stroke-17" points="17.9124579 13.7973568 18.2966928 55.6140381 19.8318197 66.6045319 19.959596 116"></polyline>
                            <polyline id="Stroke-19" points="104.915825 17.3744493 104.53159 58.8554385 102.997369 69.7577039 102.868687 116"></polyline>
                            <path d="M69.6026936,3.0660793 L65.5084175,12.7753304" id="Stroke-21"></path>
                            <path d="M120.26936,3.0660793 L114.639731,12.2643172" id="Stroke-23"></path>
                            <path d="M55.7845118,13.2863436 L51.6902357,3.0660793" id="Stroke-25"></path>
                            <path d="M102.868687,3.0660793 L104.40404,12.7753304" id="Stroke-27"></path>
                            <path d="M24.5656566,63.3656388 C24.5656566,63.3656388 28.5004451,84.0023216 30.2271837,93.1859048 C31.6294223,100.6365 35.3131313,116 35.3131313,116" id="Stroke-29"></path>
                            <path d="M97.7508418,58.2555066 C97.7508418,58.2555066 91.2558863,92.4890992 89.5200711,99.8377739 C88.7373597,103.146769 87.798835,107.06897 87.003367,110.378855" id="Stroke-31"></path>
                            <path d="M152,87.3832599 C143.140414,79.9987239 130.672356,56.2440244 127.116413,49.1938993 C122.545504,40.1311 109.521886,6.38754046 109.521886,5.62114537" id="Stroke-35"></path>
                            <polygon id="Stroke-39" points="41.96633 32.9221173 39.4074074 36.2819383 36.8484848 32.9221173 36.8484848 28.6167401 41.96633 28.6167401"></polygon>
                            <polygon id="Stroke-41" points="86.4915825 32.9221173 83.9335664 36.2819383 81.3737374 32.9221173 81.3737374 28.6167401 86.4915825 28.6167401"></polygon>
                        </g>
                        <g id="Group-13" transform="translate(151.000000, 0.000000)" stroke="#8AE4FC" stroke-width="0.5">
                            <polyline id="Stroke-1" points="17.9330083 314 8.70731707 77.6065041 43.0243902 77.6065041 24.9436875 314"></polyline>
                            <polygon id="Stroke-3" points="63 314 60.776564 314 43.5365854 78.1170732 55.9562518 82.6786231"></polygon>
                            <path d="M0,314 L8.70731707,88.8390244" id="Stroke-5"></path>
                            <path d="M14.3414634,77.4208057 L14.3414634,71.1474045 C14.3414634,70.2026945 21.9084582,69.4373984 31.2434053,69.4373984 C40.5793467,69.4373984 48.1463415,70.2026945 48.1463415,71.1474045 L48.1463415,79.6487805" id="Stroke-7"></path>
                            <path d="M31.7560976,0 L31.7560976,69.4373984" id="Stroke-9"></path>
                            <polyline id="Stroke-11" points="23.5609756 68.3534361 31.713023 45.9512195 40.9756098 69.4373984"></polyline>
                        </g>
                        <g id="Group-58" transform="translate(230.000000, 11.000000)">
                            <path d="M7.625,278 L7.625,140.702144 C7.625,130.447891 17.8655491,122.136029 30.5005597,122.136029 C43.1344509,122.136029 53.375,130.447891 53.375,140.702144 L53.375,278" id="Stroke-1" stroke="#8AE4FC" stroke-width="0.5"></path>
                            <path d="M14.7416667,278 L14.7416667,148.120654 C14.7416667,138.850218 21.7972524,131.334559 30.4988802,131.334559 C39.2027476,131.334559 46.2583333,138.850218 46.2583333,148.120654 L46.2583333,278" id="Stroke-3" stroke="#8AE4FC" stroke-width="0.5"></path>
                            <path d="M10.1666667,131.58272 L10.1666667,125.530064 C10.1666667,115.189089 19.3838308,106.805147 30.7547264,106.805147 C42.1245025,106.805147 51.3416667,115.189089 51.3416667,125.530064 L51.3416667,131.845588" id="Stroke-5" stroke="#8AE4FC" stroke-width="0.5"></path>
                            <path d="M25.4166667,149.220588 C25.4166667,146.397606 27.5789634,144.110294 30.2458333,144.110294 C32.9138195,144.110294 35.075,146.397606 35.075,149.220588 L25.4166667,149.220588 Z" id="Stroke-7" stroke="#8AE4FC" stroke-width="0.5"></path>
                            <path d="M12.7083333,116.514706 L12.7083333,108.725258 C12.7083333,99.4796699 20.6737337,91.9852941 30.5,91.9852941 C40.3262663,91.9852941 48.2916667,99.4796699 48.2916667,108.725258 L48.2916667,116.381302" id="Stroke-9" stroke="#8AE4FC" stroke-width="0.5"></path>
                            <path d="M17.2833333,97.6066176 L17.2833333,92.0011335 C17.2833333,83.8079899 23.313871,77.1654412 30.7536025,77.1654412 C38.1933341,77.1654412 44.225,83.8079899 44.225,92.0011335 L44.225,97.2131333" id="Stroke-11" stroke="#8AE4FC" stroke-width="0.5"></path>
                            <path d="M21.35,81.2536765 L21.35,75.4377585 C21.35,67.9246848 25.4462406,61.8345588 30.4988722,61.8345588 C35.5526316,61.8345588 39.65,67.9246848 39.65,75.4377585 L39.65,81.120522" id="Stroke-13" stroke="#8AE4FC" stroke-width="0.5"></path>
                            <path d="M24.9083333,64.6384163 L24.9083333,61.3961087 C24.9083333,52.8896365 27.524929,45.9926471 30.7536132,45.9926471 C33.9822975,45.9926471 36.1373363,52.9018632 36.6,61.3961087 L36.6,64.9007353" id="Stroke-15" stroke="#8AE4FC" stroke-width="0.5"></path>
                            <g id="Group-19" transform="translate(29.991667, 0.000000)">
                                <mask id="mask-2" fill="white">
                                    <use xlink:href="#path-1"></use>
                                </mask>
                                <g id="Clip-18"></g>
                                <path d="M0.759145,46.2532672 L0.759145,0.241541702" id="Stroke-17" stroke="#8AE4FC" stroke-width="0.5" mask="url(#mask-2)"></path>
                            </g>
                            <polyline id="Stroke-20" stroke="#8AE4FC" stroke-width="0.5" points="53.8833333 141.044118 61 141.044118 61 277.488971"></polyline>
                            <polyline id="Stroke-22" stroke="#8AE4FC" stroke-width="0.5" points="7.11666667 141.044118 0 141.044118 0 277.488971"></polyline>
                            <polyline id="Stroke-24" stroke="#8AE4FC" stroke-width="0.5" points="28.4666667 91.2979099 30.9212821 82.2757353 33.55 91.4742647"></polyline>
                            <polyline id="Stroke-26" stroke="#8AE4FC" stroke-width="0.5" points="27.9583333 62.1692119 30.413541 53.1470588 33.0416667 62.3455882"></polyline>
                            <polyline id="Stroke-28" stroke="#8AE4FC" stroke-width="0.5" points="27.9583333 106.117763 30.413541 97.0955882 33.0416667 106.294118"></polyline>
                            <polyline id="Stroke-30" stroke="#8AE4FC" stroke-width="0.5" points="25.4166667 76.6544118 26.896915 67.4558824 30.5 76.2796237"></polyline>
                            <polyline id="Stroke-32" stroke="#8AE4FC" stroke-width="0.5" points="22.3666667 107.316176 23.8457675 98.1176471 27.45 106.941388"></polyline>
                            <polyline id="Stroke-34" stroke="#8AE4FC" stroke-width="0.5" points="22.3666667 92.4963235 23.8457675 83.2977941 27.45 92.1215355"></polyline>
                            <polyline id="Stroke-36" stroke="#8AE4FC" stroke-width="0.5" points="36.0916667 77.1654412 35.2463717 67.9669118 31.0083333 76.4435313"></polyline>
                            <polyline id="Stroke-38" stroke="#8AE4FC" stroke-width="0.5" points="38.6333333 107.316176 37.7891947 98.1176471 33.55 106.594267"></polyline>
                            <polyline id="Stroke-40" stroke="#8AE4FC" stroke-width="0.5" points="42.0831153 109.360294 43.2083333 100.161765 37.6166667 107.553778"></polyline>
                            <polyline id="Stroke-42" stroke="#8AE4FC" stroke-width="0.5" points="17.9012938 110.382353 16.775 101.183824 22.3666667 108.574723"></polyline>
                            <polyline id="Stroke-44" stroke="#8AE4FC" stroke-width="0.5" points="28.4666667 120.937616 30.9207291 111.915441 33.55 121.113971"></polyline>
                            <polyline id="Stroke-46" stroke="#8AE4FC" stroke-width="0.5" points="22.875 121.625 24.3541008 112.426471 27.9583333 121.249139"></polyline>
                            <polyline id="Stroke-48" stroke="#8AE4FC" stroke-width="0.5" points="39.1416667 121.625 38.2975281 112.426471 34.0583333 120.90309"></polyline>
                            <polyline id="Stroke-50" stroke="#8AE4FC" stroke-width="0.5" points="43.0987062 124.180147 44.225 114.981618 38.6333333 122.372736"></polyline>
                            <polyline id="Stroke-52" stroke="#8AE4FC" stroke-width="0.5" points="18.9168847 125.202206 17.7916667 116.003676 23.3833333 123.394576"></polyline>
                            <polyline id="Stroke-54" stroke="#8AE4FC" stroke-width="0.5" points="38.6333333 92.4963235 37.7891947 83.2977941 33.55 91.7733047"></polyline>
                            <polyline id="Stroke-56" stroke="#8AE4FC" stroke-width="0.5" points="25.925 278 25.925 154.841912 35.075 154.841912 35.075 278"></polyline>
                        </g>
                    </g>
                </g>
            </g>
        </g>
    </g>
</svg>