<?xml version="1.0" encoding="UTF-8"?>
<svg width="40px" height="40px" viewBox="0 0 40 40" version="1.1" xmlns="http://www.w3.org/2000/svg" xmlns:xlink="http://www.w3.org/1999/xlink">
    <!-- Generator: Sketch 55.1 (78136) - https://sketchapp.com -->
    <title>Combined Shape</title>
    <desc>Created with Sketch.</desc>
    <g id="Page-1" stroke="none" stroke-width="1" fill="none" fill-rule="evenodd">
        <g id="Desktop_useReact" transform="translate(-668.000000, -5510.000000)" fill="#FFFFFF">
            <g id="footer" transform="translate(-1.000000, 5449.000000)">
                <g id="Group-5" transform="translate(669.000000, 61.607477)">
                    <path d="M19.2523364,0 L20.7476636,0 C31.3804354,-1.9532085e-15 40,8.61956463 40,19.2523364 C40,29.8851083 31.3804354,38.5046729 20.7476636,38.5046729 L19.2523364,38.5046729 C8.61956463,38.5046729 1.302139e-15,29.8851083 0,19.2523364 C-1.302139e-15,8.61956463 8.61956463,1.9532085e-15 19.2523364,0 Z M32,12.8147642 C31.116969,13.1923977 30.1679874,13.4476163 29.1720878,13.5622634 C30.1884463,12.9747554 30.9692808,12.0444759 31.3370014,10.9358616 C30.3854623,11.4799909 29.331776,11.8749385 28.2101225,12.0878546 C27.3120916,11.1652027 26.0324221,10.588785 24.6161299,10.588785 C21.8969551,10.588785 19.6922055,12.7142023 19.6922055,15.3358777 C19.6922055,15.7078959 19.73573,16.0703212 19.8197299,16.4177722 C15.7274432,16.2198304 12.0993195,14.3297907 9.67089822,11.4576698 C9.24696466,12.1587955 9.0041127,12.9742874 9.0041127,13.8443421 C9.0041127,15.4913766 9.87337321,16.9444002 11.1946,17.7956902 C10.3875525,17.7710293 9.62820978,17.5575049 8.96442425,17.2019584 C8.96393245,17.2217527 8.96393245,17.2415468 8.96393245,17.2616685 C8.96393245,19.5616302 10.6611421,21.480355 12.913744,21.9165288 C12.5006301,22.0250925 12.0655818,22.083118 11.6165664,22.083118 C11.2993539,22.083118 10.990748,22.053263 10.6901584,21.997858 C11.3167145,23.8837798 13.1350551,25.25641 15.2897392,25.2945476 C13.6045787,26.5679262 11.4815666,27.3268433 9.17457136,27.3268433 C8.77719513,27.3268433 8.38522872,27.3043818 8,27.2604883 C10.1790775,28.6074282 12.7672361,29.3933927 15.5478862,29.3933927 C24.6046217,29.3933927 29.5573657,22.1597211 29.5573657,15.8864178 C29.5573657,15.6806146 29.5524476,15.4759344 29.5429559,15.2723305 C30.5054129,14.6029316 31.3400014,13.7669436 32,12.8148577 L32,12.8147642 Z" id="Combined-Shape"></path>
                </g>
            </g>
        </g>
    </g>
</svg>