<svg xmlns="http://www.w3.org/2000/svg" viewBox="0 0 1356.88 563.33"><defs><style>.a{fill:#8ae4fc;}</style></defs><title>social-meetup</title><path class="a" d="M866.56,405.92l4.76-6.26v-9.1h-11v9.1l4.82,6.33c-3.51,3.12-27.87,25.76-29.19,53.31l-.11,0s0,.22.1.56c0,.57-.06,1.15-.06,1.73V563h1V465.63c2,12.26,6.53,39.27,9.08,52.82,2.71,14.42,9.87,44.37,9.94,44.67l1-.24c-.07-.3-7.22-30.22-9.93-44.62-3.11-16.54-9.14-53.2-10-58.47,1-27.24,25.2-49.78,28.81-53l.07.1.13-.17c3.43,3,28.93,26.65,28.93,54.89V563h1V461.61C895.88,432.82,869.86,408.85,866.56,405.92Zm-5.24-14.36h9v7.76l-4.5,5.92-4.5-5.92Z"/><path class="a" d="M951.63,406l4.82-6.33v-9.1h-11v9.1l4.76,6.26c-3.3,2.92-29.33,26.9-29.33,55.69V563h1V461.61c0-28.24,25.51-51.85,28.94-54.89l.13.17.08-.1c3.13,2.8,21.77,20.17,27.3,42.55l-.15,0c-.13.68-13,67.74-16.36,81.95-.57,2.37-1.49,6.31-2.51,10.67-1.76,7.51-3.81,16.26-4.79,20.36l1,.23c1-4.1,3-12.85,4.8-20.36,1-4.36,1.94-8.3,2.5-10.67,3-12.88,13.89-69.08,16-80.11a50.23,50.23,0,0,1,1.08,10.23V563h1V461.61C980.88,433,955.24,409.2,951.63,406Zm-5.18-14.43h9v7.76l-4.5,5.92-4.5-5.92Z"/><path class="a" d="M1036.21,432c-3.32-6.58-8.69-19.31-14.2-32.94l-.22-24.27c0-.12-.72-12.48.7-16.28a15.3,15.3,0,0,1,4-5.93l.09-.07,3-6.5.33-4.14-7.89-.25V335.5H987.41v6.15h-64V335.5H887.51v6.15H829.36V335.5H794.74v6.16l-7.89.25.28,4,3,6.68.09.07a15.32,15.32,0,0,1,4,5.93c.57,1.52.87,4.69.89,9.18,0,3.72-.18,7.07-.19,7.12L793.27,563h1L796,376.5h7.2l.71,186.5h1l-.71-186.5h0v-4.39H822l.67,72.79,3,21.44.24,96.66h1l-.25-96.73-3-21.44L823,372.11h1.52l2.46,2.32h69.94v-4.64h19l1,4.78h73l2-5.75h.07l-.74,82.28-3,21.41L987.88,563h1l.25-90.42,3-21.4.75-82.39,15.87-.42,1.55,4L1009.46,563h1l.83-188.08c3,7.73,6.4,16.25,9.72,24.43L1022.5,563h1L1022,401.86c5.26,12.88,10.25,24.61,13.29,30.63,5,9.86,30.63,59.77,48.74,74.89l.64-.76C1066.74,491.62,1041.16,441.87,1036.21,432Zm-25.12-71.53.19,3.19h-.94l0,3.64-.83,0c-.93-2.39-1.79-4.65-2.58-6.73Zm.22,10.26,0-6.19v.05h9.33c-.11,2.45-.07,5,0,7l-9.34-.17Zm17.34-25.06-2.86,6.21a16.23,16.23,0,0,0-4.23,6.28,20.56,20.56,0,0,0-.84,5.43h-8.44l-.22-3.77,10.5-17.18,6.29.2ZM1021,336.5v6.13h.38l-10.31,16.87-4.57.12c-2.79-7.32-4.59-12.23-4.65-12.63h-1c0,.45,1.77,5.36,4.54,12.66l-13.68.36-2.86-18.1-.47.08v-5.5Zm-33,6.15,2.91,18.42-1.68,2.3H917.53L916,361l7.71-18.31Zm-65.61-6.15v6.15h.2l-7.65,18.16h0l-18.42,0-7.69-19-.34.14V336.5Zm-34.26,6.15,7.64,18.86.14-.06v4H827.34l-2.45-2.33h-1.81l6.16-20.46Zm-59.75-6.15v5.57L822.07,363h-.19v.1H804l-8.19-21.29-.11,0V336.5ZM791,351.92l-2.86-6.21-.2-2.83,7.18-.23,8,20.85v4h-7c0-4.55-.35-7.68-.95-9.3A16.32,16.32,0,0,0,791,351.92Zm5,23.58v-.61s.18-3,.19-6.39h7v2.67l0,4.33Zm8.17-4.39V368.5h.06v-4.39h17.68l.07,7Zm186.94-3.27-2,5.73H917.67l-1-4.78h-20.8v4.64H827.34l-2.45-2.32H823l-.07-7h1.6l2.46,2.33h69.94v-4.65l18.43,0,1.67,2.55h72.73l2.46-3.36,13.61-.36c.79,2.08,1.65,4.34,2.58,6.73Zm19.22.49v1.15c-.15-.38-.3-.76-.44-1.14Zm1.15,4.13,9.22.16c.05,1.27.1,2.12.11,2.24l.19,21.7C1017.68,388.37,1014.38,380,1011.46,372.46Z"/><path class="a" d="M472.89,405.92l4.77-6.26v-9.1h-11v9.1l4.81,6.33c-3.61,3.21-29.25,27-29.25,55.62V563h1V461.61c0-28.05,25.17-51.53,28.86-54.82l.08.1.12-.17c3.44,3,28.94,26.65,28.94,54.89V563h1V461.61C502.22,432.82,476.19,408.85,472.89,405.92Zm-5.23-14.36h9v7.76l-4.5,5.92-4.5-5.92Z"/><path class="a" d="M558,406l4.81-6.33v-9.1h-11v9.1l4.77,6.26c-3.3,2.93-29.33,26.9-29.33,55.69V563h1V461.61c0-28.24,25.5-51.84,28.93-54.89l.13.17.08-.1c3.14,2.79,21.77,20.17,27.3,42.55l-.15,0c-.13.68-13,67.74-16.36,81.95-.56,2.36-1.48,6.27-2.49,10.6-1.76,7.52-3.82,16.31-4.81,20.43l1,.23c1-4.11,3-12.9,4.81-20.43,1-4.33,1.93-8.24,2.49-10.6,3-12.88,13.89-69.08,16-80.11a50.23,50.23,0,0,1,1.09,10.23V563h1V461.61C587.22,433,561.58,409.2,558,406Zm-5.19-14.43h9v7.76l-4.5,5.92-4.5-5.92Z"/><path class="a" d="M628.39,404.57l-.27-29.74c0-.12-.72-12.48.71-16.28a15.34,15.34,0,0,1,4-5.93l.09-.07,3-6.5.32-4.14-7.89-.25V335.5H593.74v6.15h-64V335.5H493.85v6.15H435.7V335.5H401.07v6.16l-7.89.25.29,4,3,6.68.09.07a15.18,15.18,0,0,1,4,5.93c.57,1.52.88,4.69.89,9.18,0,3.72-.18,7.07-.18,7.12L399.6,563h1l1.7-186.51h7.21l.71,186.5h1l-.71-186.5h0v-4.39H428.3L429,444.9l3,21.44.25,96.66h1L433,466.27l-3-21.44-.67-72.72h1.52l2.46,2.32h70v-4.64h19l1,4.78h73l2-5.75h.08l-.75,82.28-3,21.41L594.22,563h1l.24-90.42,3-21.4.75-82.39,15.13-.4c.72,2.06,1.48,4.23,2.27,6.47L615.79,563h1l.82-185.34c3,8.44,6.37,17.84,9.78,27.16L628.84,563h1l-1.42-155.39c7.65,20.81,15.26,40.66,18.8,47.69,6.49,12.88,44.55,84.51,61.38,107.4l.81-.59c-16.79-22.84-54.81-94.39-61.29-107.26C644.39,447.45,636.31,426.25,628.39,404.57Zm-10.75-33.8,0-6.2v.06H627c-.1,2.45-.07,5,0,7l-9.34-.17Zm-.21-10.26.19,3.19h-1l0,3.64-1.57,0c-.84-2.4-1.63-4.66-2.34-6.73ZM635,345.71l-2.86,6.21a16.23,16.23,0,0,0-4.23,6.28,21,21,0,0,0-.84,5.43h-8.44l-.22-3.77,10.5-17.18,6.29.2Zm-7.62-9.21v6.13h.38l-10.31,16.87-5,.13c-2.5-7.27-4.09-12.06-4.17-12.64h-1c0,.47,1.57,5.29,4.1,12.67l-13.25.35-2.86-18.1-.47.08v-5.5Zm-33.05,6.15,2.91,18.42-1.68,2.3H523.87L522.28,361,530,342.65ZM528.7,336.5v6.15h.2l-7.64,18.16h0l-18.42,0-7.69-19-.33.14V336.5Zm-34.26,6.15,7.64,18.86.15-.06v4H433.68l-2.46-2.33h-1.8l6.15-20.46ZM434.7,336.5v5.57L428.41,363h-.19v.1H410.37l-8.18-21.29-.12,0V336.5Zm-37.38,15.42-2.86-6.21-.21-2.83,7.18-.23,8.06,20.85v4h-7c0-4.55-.35-7.68-.95-9.3A16.34,16.34,0,0,0,397.32,351.92Zm5,23.58v-.61s.17-3,.18-6.39h7v7Zm8.18-4.39V368.5h.06v-4.39h17.68l.06,7Zm186.93-3.27-2,5.73H524l-1-4.78h-20.8v4.64H433.68l-2.46-2.32h-1.93l-.06-7h1.59l2.46,2.33h70v-4.65l18.42,0,1.68,2.55h72.72l2.46-3.36,13.15-.35L614,367.4Zm18,.52,1.21,0v3.47C616.22,370.63,615.82,369.48,615.43,368.36Zm2.2,6.25v-2.16l9.38.17c0,1.27.09,2.12.1,2.24l.24,26.9C623.93,392.33,620.56,382.91,617.63,374.61Z"/><path class="a" d="M1192.82,161.47l-14.94-5.9V139.35c0-1.71-6.48-2.66-13.75-3.19l-18.25-46V0h-1V89.69L1127.36,136c-8.29.49-16.48,1.45-16.48,3.37V151.5h-11V152l-15,410.9,1,0,14.51-397.65,15.46,397.48,1,0-16-410.22h65.94l-31.27,410.2,1,.08,31-406,30.23,406.14,1-.07-30.52-410,23.91,9.45,12.16,400.64,1,0-12.17-401A.49.49,0,0,0,1192.82,161.47ZM1163,136.08c-6.82-.45-14-.55-17.14-.57V92.83Zm-18.14-43.57v43h-.5c-.64,0-8.17,0-15.93.42Zm23,59.12v-.13h-56V139.4c.64-1.19,12.58-2.9,32.51-2.9s31.88,1.71,32.5,2.85v15.82Z"/><path class="a" d="M106.88,216.5h-10v-16h-13v-9h-5L71.36,92l0-.46H61.7V3.38h-1V91.5H51.45l-7.52,100h-6v9h-12v16h-11v50.25H0V563.07H1V267.75H41V563.07h1V266.75H15.88V217.5h90v49.25H80.4V563.07h1V267.75h40V563.07h1V266.75H106.88ZM52.37,92.5h18l7.43,99H44.94Zm-13.49,100h44v8h-44Zm-12,9h69v15h-69Z"/><rect class="a" x="48.65" y="245.96" width="1" height="317.11"/><rect class="a" x="58.9" y="245.96" width="1" height="317.11"/><rect class="a" x="69.15" y="245.96" width="1" height="317.11"/><rect class="a" x="93.19" y="277.66" width="1" height="285.41"/><rect class="a" x="101.07" y="277.66" width="1" height="285.41"/><rect class="a" x="108.96" y="277.66" width="1" height="285.41"/><rect class="a" x="11.6" y="281.92" width="1" height="281.15"/><rect class="a" x="19.48" y="281.92" width="1" height="281.15"/><rect class="a" x="27.37" y="281.92" width="1" height="281.15"/><path class="a" d="M362.21,385l-21.75-13.28-13,17.1c-.39.13-1.87.48-3.88-1.17-2.37-1.93-8.15-7.57-10.75-18.23-2.7-11-16.83-31-25.64-36.37-8-4.84-16.77-3.84-19-3.48-.2-2.07-.89-9.58-.89-12.7s3.32-16.71,6.34-22.29,1.07-11.57.78-12.42l.14-7.74,36-4.25a.5.5,0,0,0,.44-.52.51.51,0,0,0-.49-.48c-13.28-.36-33-.94-35.89-1.14a19.6,19.6,0,0,0-.66-3.76L300,249.9a.5.5,0,0,0-.38-.91l-29.08,8.43a24.37,24.37,0,0,0-5-5l12.35-21.66a.5.5,0,0,0-.78-.61l-18.67,18.42a31.33,31.33,0,0,0-8.78-1.87l-11.07-26.46a.49.49,0,0,0-.59-.29.49.49,0,0,0-.37.54l3.27,26.77a28.1,28.1,0,0,0-8.23,3l-28.56-16.39a.5.5,0,0,0-.65.13.51.51,0,0,0,.06.67L226,255.71a21.29,21.29,0,0,0-2.56,3.85l-25.15-.08a56.5,56.5,0,0,1-1.36-9.26c-.79-12.64-4-21.12-6.5-27.94a58.93,58.93,0,0,1-2.85-9c-1.55-8.07-2.21-24.25-2.21-29.32,0-3.34-2.41-8.88-4.53-13.25h0l-.05-.07c-.62-1.28-1.22-2.46-1.71-3.45s-.91-1.79-1.12-2.26-1.25-7.26-1-9.06h-.06a18.43,18.43,0,0,0,.77-3.52l.8,0c.23,0,5.57.12,8-1.59,2.66-1.89,4.07-4.41,3.79-6.64l.08-12.1,0-.09c-.69-1.66-6.77-2.76-13.81-3.22v-4.82a13.39,13.39,0,0,0,4.75-4.51,14.85,14.85,0,0,0,1.16-3,19.39,19.39,0,0,1,2.84-6.29c2-2.47,2.2-7.69,1.25-9.67l-.28-.58-.49.42a64.05,64.05,0,0,1-7.21,4.74.53.53,0,0,1-.52,0,.55.55,0,0,1-.29-.43,16.63,16.63,0,0,1,.1-2.68,28.67,28.67,0,0,0,.13-3l0-.84-.72.42c-2.68,1.56-7.39,4.08-9.38,4.64-.88.24-8.69,2.59-11.08,9.32-1.61,4.55,2.65,10.48,3.42,11.49v4.84c-6.47.43-12.9,1.42-12.9,3.37v11.55h.06c0,1.29.33,5.05,2.92,6.7a12.23,12.23,0,0,0,3.68,1.57c.1,1.23.55,5,2.29,7.26a13.4,13.4,0,0,0,3,2.67h-1.54c-1.22,0-2.17,1.39-2.17,3.19a4.19,4.19,0,0,0,.89,2.48,3.15,3.15,0,0,0-1.61,2.78,3.45,3.45,0,0,0,1.66,2.91,3.34,3.34,0,0,0-1,2.42c0,1.09.62,3.15,2.55,3.15h1.88l.71,28.76a5.25,5.25,0,0,0,3.71,5,8.41,8.41,0,0,1,2,3.61c0,1.2-.58,15.74.33,24.5.94,9.12,6.92,27.75,7,27.91L176.71,281l-10.08,20.77c-.15.46-3.83,11.28-2.22,16.13.51,1.51,1,3.4,1.51,5.22,1.59,5.88,2.31,8.06,3.52,7.76a12.23,12.23,0,0,1,5.42.62c1.31.44,2.51,2.14,3,2.89a25.47,25.47,0,0,0-3.54,3.3,5.74,5.74,0,0,0,1.36,7.65,9,9,0,0,0,6.09,1.75,42.7,42.7,0,0,0,.06,9.32c.56,3.39,1.89,9.08,2.17,10.26-1.11,1.62-5,7.63-2.95,9.34a39.48,39.48,0,0,1,4.69,5.63l3.72,4.34,1.37,5.11-.32.31-.11.18c0,.13-5.09,13.27-10.36,19.46-5.64,6.63-4.46,29.33-3.6,36.76s8.32,10.61,10.32,11.33c-1.51,4.77-5.15,16-6.12,17.43-1.36,2-2.32,18.92-1,24.43a77.78,77.78,0,0,0,3.63,10.31c1.09,2.7,2.21,5.49,3,8.07,1.84,5.83.57,33.65-.52,35.24-1.36,1.36-1.69,7.53-1.72,8.23l1,0c.11-2.49.61-6.76,1.43-7.58,1.49-1.48,2.55-27.58,1-35.23h.08c.05-.3,5.43-30.88,10.72-41.45,2.75-5.5,7-18.39,11.18-30.86,3.87-11.63,7.53-22.62,9-24.74,3.15-4.41,17.17-33,17.74-34.18l12.25-19.77c4.28-4.89,8.86-9.81,12.65-13.56a50.06,50.06,0,0,1-2.32,6c-.2.42-.36.81-.53,1.21s-.37.9-.63,1.43a106.59,106.59,0,0,1-7,12.79c-4.21,6.08-6.36,8.72-6.38,8.75l.77.63s2.2-2.7,6.44-8.81a107.69,107.69,0,0,0,7.05-12.92c.26-.55.46-1,.66-1.48s.31-.76.51-1.17l.58-1.3c-.1.72-.17,1.43-.22,2.08-.23,3.47-4.21,24.18-5.68,29.56-.68,2.48-3.33,8.86-6.14,15.62-3,7.29-6.16,14.82-7.15,18.29-.52,1.79-1.43,4.86-2.52,8.54-2.86,9.67-7.19,24.3-8.41,29.68l1,.22c1.21-5.35,5.54-20,8.4-29.62,1.09-3.68,2-6.75,2.52-8.55,1-3.41,4.1-10.92,7.11-18.18,2.82-6.79,5.49-13.2,6.18-15.74,1.48-5.4,5.49-26.26,5.72-29.75a60.66,60.66,0,0,1,1.15-7.45,6,6,0,0,1,.21-.61l-.07-.05c.05-.25.09-.44.11-.52,1-1,1.94-1.84,2.78-2.57,6.51-5.69,9.31-10.63,10.05-12.08a23.15,23.15,0,0,0,5.89,3.51c.25.9,1.05,3.66,2.07,7.06h0c0,.21.81,20.26-1,25.68a42,42,0,0,1-6,10.64l.29.23c-5.52.51-6,10.17-6,10.59h0a2.08,2.08,0,0,0,1,2,13.71,13.71,0,0,0,3.33,1.46c1.72.59,3.35,1.14,4.38,2.57a10.08,10.08,0,0,1,1.81,6.8c0,.09-1.85,8.9-6.63,15.22-2.45,3.23-15.26,14-19,17a3.94,3.94,0,0,0-1.58,2.76c-.21,2.34,1.72,4.87,3.42,6.81l.09-.08-3,36-.08-.07c-2.41,3-15,22.87-16.68,26.52-1.53,3.37-10.28,12.76-17.31,19.78s-17.65,27.71-18.11,28.59l.89.45c.11-.21,11.1-21.51,17.93-28.34,7.42-7.41,15.92-16.58,17.51-20.07,1.51-3.3,12.07-20,15.71-25.16L248,563l1,.08,10.32-122.61c5.1-4.26,13.84-11.77,15.89-14.48,4.92-6.5,6.75-15.25,6.83-15.64a11,11,0,0,0-2-7.57c-1.22-1.69-3.07-2.32-4.87-2.93a13.19,13.19,0,0,1-3.1-1.34c-.34-.23-.68-.64-.59-1a1.29,1.29,0,0,1,.28-.48c1.75-2.18,5.24-2.61,7.79-1.9,2.21.61,2.87,3.33,3.46,5.74.11.48.23.93.35,1.35.33,1.17.66,2.4,1,3.65l-.05,0a2.07,2.07,0,0,1,.13.26c.12.5.25,1,.38,1.5.4,2,.87,5.36,1.32,8.64.5,3.64,1.07,7.77,1.72,11.37,1.61,9,6,59,6,66,0,2.35.89,10.05,2.06,19.26l0,0,.06.08c2.17,17,5.34,39.16,5.8,42.37l-11.25,7.1.53.85,11.53-7.28a.49.49,0,0,0,.22-.49c0-.36-3.33-23.18-5.65-41.18,1.92,2.15,5.69,6.08,9.06,7.7,4.73,2.28,11.91,7.57,12.6,8.81l.17-.1,2.78,22.65.44,9.57,1,0-.45-9.6-7.22-58.93,7.37-.29c6-.24,6.93-4.37,7.38-6.36a8.29,8.29,0,0,1,.24-.89h0c1.34.35,2.86.74,8.48-3.62s8.08-36.8,8.39-41.07a14.72,14.72,0,0,0,6.81-2.9c3.21-2.56,8.17-23.51,8.72-25.89l0-.19-4.59-8.38L368,388.29ZM257.46,450.59c-1.4-1.68-2.77-3.68-2.61-5.41a2.91,2.91,0,0,1,1.2-2.07c.46-.37,1.23-1,2.19-1.79Zm70.53-61,.1-.05L340.71,373l21,12.82,4.54,2.61-9.11,15.81c-.93-.53-2.39-1.38-3.47-2.09l-.67-.4,9-15.65-.87-.5-9,15.66a3.37,3.37,0,0,0-4.7,4,3.43,3.43,0,0,0-.57-.06,3.62,3.62,0,0,0-2.54,1.11,4.25,4.25,0,0,0-1.2,2.94,4,4,0,0,0,.1.72,2.91,2.91,0,0,0-2.57.78l-.23.13-.12.08a3.08,3.08,0,0,0-.77,3.62,4,4,0,0,0-2.17.95h-.24l-.14.14a3.38,3.38,0,0,0-.11,4.71l1.6,2.5c.06.19.24.79.48,1.67l-.18-.1-22.39,38.75-4.47-3.29-.55-32.3h0c0-.08,0-.43-.06-1v-.53c.74-1.31,6.66-11.76,7.87-14.47s1-10.79,1-12.08l6.47-9.64A3.34,3.34,0,0,0,328,389.63Zm12.34,41.15a10.66,10.66,0,0,0,.48,1.79L322,465.21l-4.73-1.58,22-38C339.59,427,340,428.86,340.33,430.78Zm-17.39-42.39a6.6,6.6,0,0,0,2.61,1.37l-6.36,9.48v.16c0,.09.3,9.09-.91,11.8-1,2.21-5.31,9.94-7.11,13.12-.32-4.48-.93-12.34-1.43-15.52-.72-4.53-3.33-17.84-4.31-20.05-.91-2-4.22-22.42-4.47-25.46-.21-2.53-4.3-14.84-5.44-18.24l2.73.39,0-.14c6.21,7.9,12,17.75,13.58,24.32C314.52,380.57,320.49,386.39,322.94,388.39Zm-36.27-54.52c3.17,1.92,7.05,5.79,10.81,10.45-2.58-.38-9.91-1.42-12.3-1.42-3.2,0-6.72-1.77-11.06-5.56-4.75-4.16-4.58-6.83-4.58-6.86h0a26.08,26.08,0,0,1,17.16,3.39Zm-13.95-39.81c-3.16,5.82-6.47,19.46-6.47,22.77s.76,11.41.92,13h-.06a16.06,16.06,0,0,1-4.52-3.08,7.35,7.35,0,0,1-1.88-5.13l-1.06-22.78a22.69,22.69,0,0,0,1.62-2.89c1.25-2.87,1.93-7.63,2.16-10.3l.13,0c0-.19-.05-.4-.08-.6,0-.41,0-.75,0-1h-.15c0-.25-.05-.5-.08-.75-.27-2.8-.58-6-2.29-7.67a9.08,9.08,0,0,0-4.23-2,18.56,18.56,0,0,1-5.19-2.16,52.65,52.65,0,0,1-6.76-5.2.21.21,0,0,0-.06-.1.54.54,0,0,0-.71-.05.48.48,0,0,0-.2.37h0a31.82,31.82,0,0,1-3.47,4.42,34.91,34.91,0,0,1-3.57,2.85,64.08,64.08,0,0,0-6.62,5.41h0c-.21.21-.42.42-.61.63-2.51,2.77-4.59,8.52-5.3,10.65a10.09,10.09,0,0,0-.78-.9c-.87-.87-.69-2.41-.26-6.13.1-.85.21-1.8.32-2.88l-.31,0,.32,0c0-11.1,11-20.14,24.43-20.14,13.28,0,25.38,10.39,25.38,21.8l0,.18C273.42,282.44,275.65,288.64,272.72,294.06Zm-41,3.81a.5.5,0,0,0-.35-.21s-3-.37-4.32-1.8a8.93,8.93,0,0,1-1.43-2.34,5.06,5.06,0,0,0-.65-1.95c.1-.33,2.5-7.9,5.35-11.05l.3-.31c2,0,8.83-.15,10.77-.19-.1,2.32-1.63,4.2-3.58,4.29a34.08,34.08,0,0,1-4.2-.11l-.09,1c.07,0,1.51.15,3.16.15.39,0,.79,0,1.18,0,2.64-.13,4.67-2.74,4.53-5.82a.5.5,0,0,0-.5-.48h0c-.08,0-7,.14-10.23.18,1.71-1.57,3.91-3.21,5.76-4.59a35.29,35.29,0,0,0,3.7-3,32.49,32.49,0,0,0,3.38-4.28,52.59,52.59,0,0,0,6.55,5,19,19,0,0,0,5.46,2.28,8.3,8.3,0,0,1,3.8,1.77,5.32,5.32,0,0,1,1.19,2.15c-1.47,0-4.63-.08-7-.08H250a.5.5,0,0,0-.5.5v12.77a1.19,1.19,0,0,1-1.19,1.2H244.7a1.2,1.2,0,0,1-1.2-1.2h-1a2.21,2.21,0,0,0,2.2,2.2h3.65a2.2,2.2,0,0,0,2.19-2.2v-7.17c.53,0,1.71,0,3.23,0,3.08-.06,4.89-1.18,5.1-3.15l-1-.11c-.2,1.91-2.67,2.23-4.12,2.26s-2.69,0-3.22,0v-4.1h3.94c2.55,0,6,.06,7.28.09a32.81,32.81,0,0,1,.53,3.89c.06.59.12,1.14.19,1.68-.17,2.42-.84,7.51-2.13,10.48-1.71,3.94-8,11.88-10.3,11.88h0l-9.22,0C239,307.42,234.28,301.55,231.72,297.87Zm-12.86,3.47a1.68,1.68,0,0,1-1,0c-1-.28-2.94-1.56-5.3-7a28.18,28.18,0,0,1-2.68-10,12.3,12.3,0,0,0-1.46-5.5c-.25-.47-.46-.91-.66-1.33l14.42-.3.41,3.37c-.11,1-.21,2-.31,2.81-.47,4.06-.67,5.74.55,7a7.59,7.59,0,0,1,1.42,2l-.09,0a11.25,11.25,0,0,0,.52,1.47,3.31,3.31,0,0,1,0,.45,2.76,2.76,0,0,1-1.71,1.93A6.8,6.8,0,0,0,218.86,301.34Zm-19.34-37.57,21.85,2.12a20.8,20.8,0,0,0-.23,3.09l.2,1.63-15.2,1.76.12,1,15.2-1.77.56,4.57-14.73.31c-.28-.68-.51-1.3-.72-1.88-.79-2.18-1.36-3.74-3.71-5.46C201.56,268.21,200.44,266.25,199.52,263.77Zm30.92-10.92,3.66,9.84.94-.35-3.76-10.09a25.59,25.59,0,0,1,4.51-2.43l2.09,11.24.62-.11a26.52,26.52,0,0,0-7.63,4l-4.65-7.68-.4.24A21.48,21.48,0,0,1,230.44,252.85Zm29.47,9.3,3.69-9.87a24.5,24.5,0,0,1,3.63,2.89l-4.22,8.7A29.17,29.17,0,0,0,259.91,262.15Zm2.8-10.37-3.72,10c-.79-.34-1.59-.66-2.41-.93l2.27-11a27.09,27.09,0,0,1,4.13,2.09Zm-7.09,8.74a28.33,28.33,0,0,0-3.06-.71l1.3-11.54a27.69,27.69,0,0,1,4,1.16Zm-4.05-.86a26.7,26.7,0,0,0-3.58-.26h-.09V247.6a31.12,31.12,0,0,1,5,.48Zm-4.67-.22a30,30,0,0,0-4.07.42l-.6-11.86a33.53,33.53,0,0,1,4.67-.4Zm-5.06.6a26.78,26.78,0,0,0-3,.79l-2.11-11.38a28.3,28.3,0,0,1,4.49-1.26Zm-11.77,5.52a22.83,22.83,0,0,0-3,3l-3.71-6.41,0,0a19.91,19.91,0,0,1,2.15-4.18Zm-7.14-2.19,3.48,6a19.18,19.18,0,0,0-3.36,7l-.92-7.47A19.55,19.55,0,0,1,222.93,263.37Zm50.67,6-.13,7.28a23.19,23.19,0,0,0-6.59-9.85l5-5.21A18.43,18.43,0,0,1,273.6,269.38Zm29.95.56-29,3.43.07-4c0-.13,0-.27,0-.4C277.91,269.2,294,269.67,303.55,269.94Zm-8-18.73-21.94,12a20.7,20.7,0,0,0-2.45-5Zm-24.13,9.44-5.28,5.5a27.5,27.5,0,0,0-2.42-1.84l.17.08,4.11-8.47A21.4,21.4,0,0,1,271.4,260.65Zm3.8-27.26-10.51,18.42a28.28,28.28,0,0,0-5.26-2.86ZM239,223.94l9.49,22.68-1.12,0a33.34,33.34,0,0,0-5.55.46ZM207.3,236.85l24.34,14a23.58,23.58,0,0,0-5,4.14Zm15.62,23.71a20.71,20.71,0,0,0-1.38,4.34l-22.38-2.17c-.24-.72-.46-1.47-.66-2.24ZM177,165.38c.2.45.57,1.2,1,2.14a48.36,48.36,0,0,1-4.67-6l-.18-.3a12.19,12.19,0,0,0,2.1-2.22,7.85,7.85,0,0,0,.64-1A43.16,43.16,0,0,0,177,165.38Zm-16-41.95c0-.06-4.91-6.31-3.37-10.67,1.81-5.08,7.4-7.86,10.41-8.7a57.6,57.6,0,0,0,8.86-4.3c0,.64-.08,1.34-.13,2a17.51,17.51,0,0,0-.09,2.88,1.56,1.56,0,0,0,2.26,1.2,68.71,68.71,0,0,0,6.84-4.43c.54,2,.19,6.12-1.35,8a20.26,20.26,0,0,0-3,6.62,14.18,14.18,0,0,1-1,2.8,12.39,12.39,0,0,1-4.62,4.28l-.28.14v5.38c-2.21-.13-4.48-.19-6.7-.19s-4.88.07-7.65.23v-5.12Zm7.76,6c12.62,0,19.83,1.75,20.55,2.78l-.07,10.15c-2.76-1.75-11.95-2.66-20.73-2.66-1.89,0-16.46.07-20.3,2.3v-9.91C148.36,131.19,155.54,129.46,168.77,129.46ZM157,158.58c-1.86-2.37-2.11-7-2.11-7.07l0-.4-.4-.07a10.89,10.89,0,0,1-3.69-1.51c-2.61-1.66-2.46-6.23-2.46-6.3,0-.9,6.76-2.5,20.24-2.5,13,0,20.22,1.81,20.57,2.82.7,2-.57,4.51-3.22,6.39-2.14,1.52-7.32,1.41-7.4,1.41l-1.72.06,0,.45s-.32,4.18-2.19,6.56a11.79,11.79,0,0,1-1.85,2c-1.11-1.63-2.59-3.1-4.27-2.25-1.92,1-1.89,2.59-1.58,4.21a24.87,24.87,0,0,0,2,5.36,2.86,2.86,0,0,0-1.69-.57h-1.53a3.93,3.93,0,0,0,.58-2.13c0-1.78-.95-3.17-2.17-3.17h-2.87A13.66,13.66,0,0,1,157,158.58Zm.7,4.29h6.39c.55,0,1.17.89,1.17,2.17s-.62,2.13-1.17,2.13h-6.3c-1.12,0-1.26-2.13-1.26-2.13C156.49,163.76,157.1,162.87,157.66,162.87Zm-.21,9.59c-1.55,0-1.67-2.1-1.68-2.16a2.06,2.06,0,0,1,2-2.13h0c.46,0,.94,0,1.38,0l1.6,0h6.4a2.15,2.15,0,0,1,0,4.29v0c-.1,0-.2,0-.3,0h-9.42Zm-1,3.17a2,2,0,0,1,1.75-2.17h8.67a2.22,2.22,0,0,1,0,4.34H158C156.55,177.8,156.45,175.7,156.45,175.63Zm5.14,31.92-.71-28.75h6a3,3,0,0,0,2.77-3.17,3.32,3.32,0,0,0-1.12-2.53,3.19,3.19,0,0,0,1.62-2.8s0-.06,0-.09c.33.62.62,1.15.87,1.58l-.91,35.77a4.25,4.25,0,0,1-4.25,4.24,3.88,3.88,0,0,1-1-.14l-.11-.08,0,0A4.24,4.24,0,0,1,161.59,207.55Zm12.95,60.74c0-.19-6-18.72-6.94-27.73s-.32-24.29-.31-24.44V216l0-.07a11.58,11.58,0,0,0-1.42-3.17,5.25,5.25,0,0,0,5.24-5.23l.74-29.45c.7,4.27,2.68,9.79,8.18,12.15l.39-.92c-8.7-3.73-7.9-16.64-7.89-16.76v-.16l-.08-.14c0-.06-4-6.7-4.62-10.1-.3-1.54-.23-2.5,1-3.13.64-.32,1.72-.35,3.68,3a57.49,57.49,0,0,0,5.6,7c.78.89,1.52,1.73,1.76,2.07,2.08,4.28,4.44,9.68,4.44,12.83,0,5.1.66,21.37,2.23,29.51a58.53,58.53,0,0,0,2.9,9.12c2.51,6.76,5.65,15.16,6.43,27.66.43,6.94,2.31,15.37,5.47,18.82-.87,1.26-1.94,4.45-3.17,8.14-.79,2.38-1.61,4.83-2.43,6.9-1.93,4.94-11.76,17.83-13.27,19.79l-1.49-.33a32.56,32.56,0,0,1-.19-9c.73-3.85-2.86-13.08-3.1-13.68Zm.64,62.3a13.36,13.36,0,0,0-5.9-.66c-.62-.48-1.69-4.41-2.39-7-.5-1.84-1-3.74-1.53-5.27-1.51-4.53,2.18-15.39,2.2-15.44l9.62-19.83c.94,2.6,3.19,9.2,2.65,12.09-.72,3.84.2,9.42.24,9.66l.05.33,2.78.62.19-.25c.47-.61,11.47-14.83,13.6-20.29.82-2.1,1.65-4.56,2.45-6.95a52.9,52.9,0,0,1,3-7.77c.06.05.12.11.18.15,2.1,1.53,2.6,2.91,3.36,5a29.66,29.66,0,0,0,1.87,4.33,11.45,11.45,0,0,1,1.35,5.11q0,.6.12,1.26l-.14.07s.32,1.08-1,5.36c-.78,2.62-2.75,6-4.49,8.94a30.53,30.53,0,0,0-2.87,5.54C199.82,308,190.7,323.28,188,327c-2.16,2.95-7.76,6.08-9.31,6.91C178.14,333,176.79,331.13,175.18,330.59Zm15.2,55.06-3.66-4.33c1.43-2.19,9.68-14.86,12.1-19.91l.78-1.63c2.61-5.44,6.19-12.89,6.85-15.3l-1-.26c-.63,2.32-4.19,9.72-6.78,15.13l-.79,1.63c-2.26,4.73-10,16.66-11.83,19.49a33.49,33.49,0,0,0-4.41-5.19c-1-.88,1.32-5.4,3.26-8.18l.13-.19-.06-.22c0-.06-1.58-6.67-2.21-10.4a46.15,46.15,0,0,1,0-9.67l.07-.66-.66.12a8.32,8.32,0,0,1-5.93-1.49,4.78,4.78,0,0,1-1.18-6.26,28,28,0,0,1,3.67-3.36c.54-.28,7.43-3.86,10-7.4s11.9-18.95,12.66-21.75a32.21,32.21,0,0,1,2.77-5.31c1.77-3,3.77-6.42,4.59-9.15.31-1,.53-1.9.69-2.62a36.66,36.66,0,0,0,2.09,6c1.94,4.48,4,7,6,7.58a3.12,3.12,0,0,0,.76.1,2.3,2.3,0,0,0,1.09-.26c2.74,3.55,5.6,8,4.77,12.2-.3,1.49-.48,3.31-.67,5.25-.44,4.37-.94,9.33-2.92,13-1.21,2.22-4.63,8.15-4.66,8.21l.86.5c0-.06,3.46-6,4.68-8.23,2.07-3.81,2.58-8.88,3-13.34.19-1.91.37-3.71.66-5.15.95-4.74-2.33-9.67-5.3-13.45a6,6,0,0,1,3.45-4.07,4.11,4.11,0,0,0,2-1.85,7.81,7.81,0,0,0,1,1.34c1.32,1.47,3.92,2,4.71,2.09.44.62,1.6,2.24,3,4l-.31,14.07,1,0,.28-12.92c2,2.39,4.34,4.67,5.81,4.73l9.23,0h0c2.2,0,6-4.36,8.67-8.18l1,21.37a8.19,8.19,0,0,0,2.16,5.84,16.55,16.55,0,0,0,3.74,2.74,34.25,34.25,0,0,0-12,6.05c-5.27,1.39-13.14,8.47-19.46,14.16a81.35,81.35,0,0,1-6.86,5.81c-4.28,2.85-29.85,28.25-35.66,34Zm74.21-34.72a214.74,214.74,0,0,0-16.85,17.52h0l-.06.1C242.93,374,238.57,379.3,236,383c-3.46,5-13.44,13.31-23.09,21.36-6.1,5.08-11.86,9.88-15.78,13.68-10.17,9.83-10.28,38.67-10.28,39.89h1c0-.3.11-29.63,10-39.18,3.89-3.76,9.64-8.55,15.73-13.63,9.7-8.08,19.73-16.44,23.27-21.55,1.76-2.53,4.38-5.86,7.39-9.45l-8.88,14.32c-.15.3-14.58,29.75-17.69,34.09-1.59,2.24-5.1,12.79-9.17,25-3.94,11.85-8.41,25.29-11.13,30.72-4.66,9.32-9.23,33.09-10.48,39.91-.78-2.33-1.76-4.79-2.72-7.18a75.79,75.79,0,0,1-3.59-10.16c-1.27-5.4-.21-22,.88-23.65,1.29-1.93,6.19-17.49,6.39-18.15l.16-.49-.49-.14c-.09,0-9.19-2.84-10.1-10.65-.84-7.32-2-29.63,3.37-36,5.19-6.1,10-18.32,10.5-19.66,1.73-1.73,32-31.94,36.57-35a82.57,82.57,0,0,0,7-5.9c6-5.36,14.12-12.7,19.14-13.95l.12,0,.09-.08a33.91,33.91,0,0,1,12.86-6.2h0q.73-.17,1.5-.3c0,.81.49,3.58,4.92,7.46l1,.87C274,340,271.28,345.09,264.59,350.93Zm18.54,25.25c1.43-4.22,1.34-16.41,1.2-22.51a121.89,121.89,0,0,0,4.84,13.68c1.31,2.62,1.86,8.56,2.39,14.31.47,5.15,1,10.47,2,13.77,1.45,4.56,2.91,13.2,3.72,18.49-3.11-7.7-7.23-17.88-8-19.64-1.37-3.1-6.55-7.38-12-7.56A41.74,41.74,0,0,0,283.13,376.18Zm.86,24.39c-.62-2.54-1.39-5.7-4.17-6.47-2.49-.68-5.94-.43-8.15,1.55.39-2.77,1.61-7.94,5.28-7.94,5.54,0,10.3,4.47,11.42,7,.9,2,6.48,15.85,9.54,23.44,0,.18,0,.29,0,.3H298c1.11,2.75,1.86,4.62,1.89,4.68l6.53,20.2c-1.44-1.57-7.44-8.08-10.76-11.67-3.68-4-9.06-19.56-9.11-19.72h0c-.22-1.51-.42-2.77-.6-3.79H286c-.08-.3-.16-.59-.23-.88a11.79,11.79,0,0,0-.33-1.29c-.37-1.4-.73-2.77-1.1-4.06C284.21,401.48,284.1,401,284,400.57Zm10.87,93.07c0-7-4.41-57.16-6-66.19-.61-3.44-1.16-7.37-1.65-10.89,1.91,5,5.16,12.94,7.76,15.74l11.08,12,.57-.53.14.44c-1.28.77-5.71,3.47-7.52,5.42-2,2.17-3.91,3.91-3.93,3.93a.48.48,0,0,0-.16.39l.79,14.71,2.32,45.45c-.61-.68-1.08-1.22-1.34-1.54C295.73,503.49,294.86,495.92,294.86,493.64Zm23.92,35.76a62.36,62.36,0,0,0-12.17-8.22c-2.55-1.23-5.43-3.94-7.43-6h.12l-2.38-46.49-.78-14.48c.52-.48,2.12-2,3.81-3.82,2-2.13,7.59-5.41,7.65-5.44a.51.51,0,0,0,.22-.59l-7-21.54-2-4.89c-.36-2.58-2.35-16.46-4.35-22.75-1-3.19-1.51-8.46-2-13.55-.56-6.11-1.09-11.88-2.49-14.67-2.16-4.33-6.6-19.49-7.73-23.41a10.72,10.72,0,0,0,2.85.41c1.67,0,6,.55,9.24,1,.81,2.44,5.33,16,5.54,18.48s3.52,23.46,4.55,25.78c.89,2,3.45,14.82,4.24,19.8.59,3.76,1.36,14.45,1.59,17.73l.6,35.35,0,1.3L314.45,495h.11Zm19.6-46.91c-5.23,4.06-6.55,3.72-7.62,3.44l-.18-.05a.78.78,0,0,0-.6.09c-.4.24-.52.78-.7,1.59-.46,2-1.23,5.37-6.44,5.58l-7.56.3L312,463.27l0-2.13,4.76,3.5.07-.13,5.7,1.9,18.83-32.65a50.75,50.75,0,0,0,5.07,8.56h0C345.46,455.08,342.68,479.15,338.38,482.49Zm23.52-69.12c-1.53,6.52-5.87,23.19-8.33,25.16a13.87,13.87,0,0,1-6.7,2.74h0c-1.13-1.6-4.93-7.15-5.51-10.65a69.29,69.29,0,0,0-1.92-8.14l-1.74-2.73-.18.12.15-.15v0a2.39,2.39,0,0,1-.08-3.21h.23l.14-.13c.91-.89,2.5-1.22,3.38-.34l3.81,5.43.82-.58-3.87-5.48a2.75,2.75,0,0,0-1.27-.74,2,2,0,0,1,.17-2.95l.23-.12.11-.09a2,2,0,0,1,3.06.19l5,5.37.73-.68-5-5.38a3.59,3.59,0,0,0-.42-.37l0,0a1.94,1.94,0,0,1-.56-1.38A3.25,3.25,0,0,1,345,407a2.58,2.58,0,0,1,1.83-.81,2.36,2.36,0,0,1,1.28.35,3.27,3.27,0,0,0,.82.7h0l3.66,3.31,2.22,3,.81-.59-2.26-3.09-4.19-3.79a3.12,3.12,0,0,0-.4-.32,2.38,2.38,0,0,1,3.07-3.52l1.26.76c1.72,1.12,4.4,2.61,4.43,2.62l.05-.09Z"/><rect class="a" x="241.93" y="297.71" width="8.84" height="1"/><path class="a" d="M1296.38,279.5c-17.37,0-31.5,15-31.5,33.35V563.07h1V312.85c0-17.84,13.69-32.35,30.5-32.35s30.5,14.51,30.5,32.35V563.07h1V312.85C1327.88,294.46,1313.75,279.5,1296.38,279.5Z"/><path class="a" d="M1295.88,304.5a10.27,10.27,0,0,0-10,10.5v.5h20V315A10.27,10.27,0,0,0,1295.88,304.5Zm-9,10a9,9,0,1,1,18,0Z"/><path class="a" d="M1341.88,298.5v-.17a31,31,0,0,0-4.45-15.88h.45V268.64a34.42,34.42,0,0,0-6.11-19.49h.11V235.76a31.87,31.87,0,0,0-8.15-21.19h.15V203a30.76,30.76,0,0,0-9-22V170.62c0-8.25-2.52-15.64-6.5-20.62h.5v-6.89c-1.19-21.82-6.83-30-11.5-30.58V23.47h-1v89.06c-6.49.66-11.5,13.86-11.5,30.61v6.26c-4.26,5-7,12.63-7,21.22V182h.07a30.89,30.89,0,0,0-8.07,21v10.63a32,32,0,0,0-9,22.1v15.12a34.27,34.27,0,0,0-5,17.76v12.94a31.18,31.18,0,0,0-5,16.75v.17h-15V563.07h1V299.5h14V563.07h1V298.33a30.17,30.17,0,0,1,5-16.4h0v-.07c7.42-11.49,22.34-19.36,39.51-19.36,24.53,0,44.49,16.07,44.49,35.83V563.07h1V299.5h14V563.07h1V298.5Zm-56-155.36c0-15.94,5-29.42,10.87-29.63h.28c5.45.21,9.91,12.34,10.85,29.63v6.26a17.56,17.56,0,0,0-6.06-4.7l-5.62-19.57L1291,144.69a17,17,0,0,0-5.09,3.62Zm14.76,1.09a12.79,12.79,0,0,0-8.52,0l4.11-15.36Zm-4.26.27c9.65,0,17.5,11.72,17.5,26.12v9.49a26.75,26.75,0,0,0-7.12-4.56l.14,0-3-20-7.31,16.95-7.46-16-3,19.51a27,27,0,0,0-7.25,5.09V170.62C1278.88,156.22,1286.73,144.5,1296.38,144.5Zm9.45,30.67a24.94,24.94,0,0,0-8.64-1.66l6.21-14.39Zm-9.89-1.64a24.68,24.68,0,0,0-8.73,1.94l2.37-15.6Zm.94,1a24.57,24.57,0,0,1,17,7v.27h.29a29.74,29.74,0,0,1,8.71,21.29v10.63a35.59,35.59,0,0,0-11-7.84l.43-19.66-10.6,16.47L1296.2,182l-5.12,20.31-10.74-16.68.25,20.36a35.73,35.73,0,0,0-9.71,6.66V203C1270.88,187.3,1282.55,174.5,1296.88,174.5Zm-15.3,31-.2-16.45,8.95,13.9A37.43,37.43,0,0,0,1281.58,205.54Zm29.27-.14a36.83,36.83,0,0,0-8.23-2.38l8.58-13.33Zm-10.18-2.65a37.74,37.74,0,0,0-4.29-.25,39.48,39.48,0,0,0-4.38.26l4.23-16.76Zm-38.79,33c0-17.79,15.48-32.26,34.5-32.26s34.5,14.47,34.5,32.26v12.15a39.24,39.24,0,0,0-10-9.33l2.52-20.36-11.09,14.59-1.7-18.93-9,17.81-5.49-19.12L1291,231.78l-8.4-18L1280.67,233l-11-14.87,2.69,20.75a39.35,39.35,0,0,0-10.45,10.41Zm11.39,2.55-2.14-16.47,9.39,12.67v.09A41.58,41.58,0,0,0,1273.27,238.31Zm8.29-4.11,1.63-16.67L1290,232A43.77,43.77,0,0,0,1281.56,234.2Zm21.15-2.32,7.26-14.42,1.47,16.47A43.74,43.74,0,0,0,1302.71,231.88Zm9.77,2.42h0l9.51-12.51-2,16.2A42.19,42.19,0,0,0,1312.48,234.3Zm-11.83-2.64c-1.24-.1-2.5-.16-3.76-.16a46.76,46.76,0,0,0-4.91.27l4.25-15.5ZM1282,263.41l2.56-15.85,6,14.26a54.24,54.24,0,0,0-8.51,1.59Zm-1,.29a50.43,50.43,0,0,0-7.71,3L1271.27,251Zm11-2,4.28-15.66,4.5,15.65c-1.43-.11-2.87-.17-4.33-.17S1293.4,261.56,1291.94,261.68Zm19.27,1.78.13.09a54.88,54.88,0,0,0-9-1.73l7.35-14.62,1.5,16.26ZM1321.83,251l-1.94,15.78a50.21,50.21,0,0,0-7.76-3Zm-1,16.26,2.44-19.82L1312,262.26l-1.72-18.63L1301.57,261l-5.37-18.69-5.07,18.53-7.05-16.91-3,18.37-11.28-14.84,2.42,19.66a42.14,42.14,0,0,0-15.37,13V268.64c0-19.93,17.95-36.14,40-36.14s40,16.21,40,36.14v12.94A41.25,41.25,0,0,0,1320.83,267.29Z"/><polygon class="a" points="1286.88 563.07 1287.88 563.07 1287.88 326.5 1304.88 326.5 1304.88 563.07 1305.88 563.07 1305.88 325.5 1286.88 325.5 1286.88 563.07"/></svg>