<?xml version="1.0" encoding="UTF-8"?>
<svg width="32px" height="31px" viewBox="0 0 32 31" version="1.1" xmlns="http://www.w3.org/2000/svg" xmlns:xlink="http://www.w3.org/1999/xlink">
    <!-- Generator: Sketch 55.1 (78136) - https://sketchapp.com -->
    <title>icon-meetup</title>
    <desc>Created with Sketch.</desc>
    <defs>
        <polygon id="path-1" points="2.77649977e-06 8.31648052e-06 32 8.31648052e-06 32 30.2702703 2.77649977e-06 30.2702703"></polygon>
    </defs>
    <g id="Page-1" stroke="none" stroke-width="1" fill="none" fill-rule="evenodd">
        <g id="Desktop_useReact" transform="translate(-1035.000000, -1368.000000)">
            <g id="what-is-useReact" transform="translate(0.000000, 800.000000)">
                <g id="what-is-text" transform="translate(728.000000, 193.000000)">
                    <g id="Group-2" transform="translate(0.000000, 287.000000)">
                        <g id="meetup-button" transform="translate(283.000000, 80.000000)">
                            <g id="icon-meetup" transform="translate(24.000000, 8.000000)">
                                <g id="Group-3">
                                    <mask id="mask-2" fill="white">
                                        <use xlink:href="#path-1"></use>
                                    </mask>
                                    <g id="Clip-2"></g>
                                    <path d="M31.9858166,12.5844108 C31.9130043,12.250852 31.581632,12.0385207 31.2451397,12.1106811 C30.9082535,12.1828903 30.6945428,12.5113716 30.766912,12.8453698 C30.8397243,13.1789287 31.1714905,13.3908206 31.5079828,13.3190507 C31.8444258,13.2468903 32.0586289,12.9179697 31.9858166,12.5844108 M30.5650658,16.5908764 C30.4672443,16.1418999 30.0212135,15.8569688 29.5687335,15.9534919 C29.116352,16.0504056 28.8285489,16.4926445 28.9263212,16.9411327 C29.0236505,17.3901092 29.4697305,17.6749915 29.9226043,17.5784684 C30.3749858,17.4815547 30.6627889,17.0393646 30.5650658,16.5908764 M28.3837489,10.0548415 C28.8958474,9.70409695 29.0240935,9.00846661 28.6702228,8.50080488 C28.3164505,7.99309433 27.6147643,7.86600802 27.1026658,8.21675257 C26.5905182,8.56749712 26.4623212,9.26312746 26.8160935,9.77083801 C27.1699643,10.2784997 27.8716505,10.4056349 28.3837489,10.0548415 M25.5337305,10.8583219 C25.6340628,9.55723731 25.3064812,8.21631316 24.4997858,7.05915885 C22.927552,4.80358431 20.0568074,3.97618065 17.5733612,4.86905597 C15.3543828,3.45973078 12.4193428,3.40055728 10.1157366,4.978566 C8.94975508,5.7774082 8.11898585,6.87582842 7.65089969,8.0967456 C6.97289354,8.18780052 6.304192,8.41267934 5.70239508,8.82508736 C3.71322585,10.1878842 3.18842585,12.8445398 4.45045662,14.8588799 C2.73766892,16.4141859 2.34283815,19.0037099 3.64425354,21.004233 C4.416192,22.1903393 5.62874585,22.9048642 6.93099815,23.1171466 C6.95512123,24.0851118 7.24799508,25.0572269 7.84472123,25.9131432 C9.476672,28.2547439 12.7147766,28.8413036 15.0763274,27.2234553 C15.1664689,27.1613036 15.2363274,27.0828938 15.3213982,27.0165922 C16.6375828,28.181314 18.6136566,28.3734814 20.1291766,27.3350159 C20.9379889,26.7812164 21.4551582,25.9751972 21.6807335,25.0996052 C22.8666043,25.1428136 24.0740874,24.8440656 25.125312,24.123682 C27.6473551,22.395933 28.3240812,19.0176244 26.7107397,16.46877 C28.0058043,15.3858267 28.2846966,13.491933 27.2896935,12.0939348 C26.8461735,11.4700255 26.2185305,11.0605468 25.5337305,10.8583219 M19.0428012,1.48317977 C18.6665305,0.862199826 17.8539274,0.660804882 17.2280074,1.03381273 C16.6016443,1.40638117 16.398912,2.21196094 16.7747397,2.83289207 C17.1509612,3.45382319 17.9635643,3.65482755 18.5895335,3.28225911 C19.2158474,2.90925126 19.4185797,2.10367149 19.0428012,1.48317977 M10.0078228,0.554663644 C9.925312,0.175357629 9.54820431,-0.0658768963 9.16558277,0.0159504795 C8.78261662,0.0977778553 8.53921969,0.47156687 8.62217354,0.85126347 C8.70473354,1.23056949 9.081792,1.47180401 9.46441354,1.39002546 C9.84742892,1.30819808 10.0907766,0.93396966 10.0078228,0.554663644 M6.99022277,6.71134368 C7.45028431,6.39623993 7.56538585,5.77111003 7.247552,5.31505423 C6.92971815,4.85894961 6.29912123,4.74485022 5.83910892,5.05990514 C5.37944123,5.37500889 5.26389662,6.00018762 5.58173046,6.45624342 C5.89961354,6.91185981 6.53021046,7.02644743 6.99022277,6.71134368 M2.43297969,15.2360865 C2.84942277,14.6339522 2.69493662,13.8111867 2.08762585,13.3983393 C1.48031508,12.9854919 0.650382769,13.1386497 0.233939692,13.7407351 C-0.182552615,14.3428206 -0.0280664615,15.1655861 0.579244308,15.5783847 C1.18660431,15.9912321 2.01653662,15.8381719 2.43297969,15.2360865 M4.81825969,24.7438319 C4.89023508,25.075682 5.22032738,25.2867439 5.55465354,25.214974 C5.88942277,25.1432042 6.10234585,24.8163829 6.02992738,24.484484 C5.95755815,24.152634 5.62785969,23.9420115 5.29313969,24.0133419 C4.95876431,24.0851118 4.74589046,24.411933 4.81825969,24.7438319 M14.720832,28.7132896 C14.3293489,28.9814256 14.2311828,29.5134012 14.5016074,29.9014954 C14.772032,30.2896384 15.3086966,30.3869426 15.7001797,30.1188554 C16.0916135,29.8503289 16.1898782,29.3183044 15.9194043,28.9302103 C15.6489797,28.5421161 15.1123151,28.4452024 14.720832,28.7132896 M22.8725612,26.2949391 C22.2381243,26.7296105 22.0790105,27.5918249 22.5174597,28.220763 C22.9559089,28.8496523 23.8256197,29.0073995 24.4604997,28.572777 C25.0948382,28.1380568 25.2536074,27.2758424 24.8151582,26.6469531 C24.3766597,26.0176244 23.5068997,25.8602678 22.8725612,26.2949391" id="Fill-1" fill="#FFFFFF" mask="url(#mask-2)"></path>
                                </g>
                                <path d="M22.4727488,21.3999773 C22.2876778,20.1352881 20.0990518,21.1106074 19.9639987,19.7249339 C19.7727761,17.7586974 22.505258,13.5211556 22.2897126,11.8760924 C22.0960293,10.3951608 21.1632452,10.084825 20.3516966,10.0696323 C19.563335,10.054389 19.3549823,10.1888442 19.0885199,10.3546469 C18.9347752,10.4499557 18.7138826,10.6388513 18.4071503,10.3268443 C18.2033404,10.1192617 18.0687132,9.97386778 17.8531205,9.78978316 C17.7432893,9.69579113 17.5682976,9.57738952 17.2754303,9.53125442 C16.9821371,9.48516996 16.6025784,9.53125442 16.3613852,9.64180648 C16.1197188,9.75276367 15.9301524,9.94641968 15.7316424,10.1310107 C15.5335109,10.3155005 15.0303035,10.9182447 14.5612615,10.6958745 C14.3578774,10.5997048 13.6691258,10.231485 13.1720227,10.0012652 C12.2123605,9.55693005 10.8284216,10.2767591 10.3300881,11.2246303 C9.58852668,12.6346628 8.12442666,18.1747236 7.90272955,18.9054408 C7.40562643,20.5461488 8.53285094,21.8835096 10.0530732,21.8064827 C10.6958292,21.7738185 11.123371,21.5227341 11.5293819,20.7328161 C11.7640922,20.2767319 13.9681448,14.1173669 14.1320634,13.82192 C14.2508382,13.6077539 14.6474796,13.3248662 14.9839292,13.5094066 C15.319953,13.693947 15.3870536,14.0786763 15.3374143,14.4411736 C15.2568746,15.0274084 13.7024868,18.7848616 13.6426736,19.2101046 C13.5414074,19.9329216 13.8623832,20.3350718 14.5636748,20.3742183 C15.044547,20.4016664 15.523337,20.2167209 15.9037002,19.44944 C16.1164537,19.0203481 18.5678511,13.7679353 18.7846742,13.417187 C19.0230755,13.0324071 19.2146294,12.9058015 19.4575261,12.9192723 C19.6459095,12.9292995 19.9473419,12.9811065 19.8720548,13.5851674 C19.7980453,14.1774287 17.8270468,18.0315579 17.6203977,18.9755297 C17.3437613,20.2371297 17.9910128,21.5149352 19.057241,22.0741271 C19.7373803,22.4305473 22.712759,23.0415462 22.4727488,21.3999773" id="Fill-4" fill="#ED1C40"></path>
                            </g>
                        </g>
                    </g>
                </g>
            </g>
        </g>
    </g>
</svg>