<?xml version="1.0" encoding="UTF-8"?>
<svg width="32px" height="27px" viewBox="0 0 32 27" version="1.1" xmlns="http://www.w3.org/2000/svg" xmlns:xlink="http://www.w3.org/1999/xlink">
    <!-- Generator: Sketch 55.1 (78136) - https://sketchapp.com -->
    <title>icon-twitter</title>
    <desc>Created with Sketch.</desc>
    <g id="Page-1" stroke="none" stroke-width="1" fill="none" fill-rule="evenodd">
        <g id="Desktop_useReact" transform="translate(-752.000000, -1370.000000)" fill="#FFFFFF" fill-rule="nonzero">
            <g id="what-is-useReact" transform="translate(0.000000, 800.000000)">
                <g id="what-is-text" transform="translate(728.000000, 193.000000)">
                    <g id="Group-2" transform="translate(0.000000, 287.000000)">
                        <g id="twitter-button" transform="translate(0.000000, 80.000000)">
                            <g id="icon-twitter" transform="translate(24.000000, 10.000000)">
                                <path d="M32,3.0832332 C30.8226253,3.60629848 29.5573165,3.95980503 28.2294504,4.11860429 C29.5845951,3.30483917 30.6257077,2.01629671 31.1160019,0.480740406 C29.8472831,1.23442107 28.442368,1.78146828 26.94683,2.07638116 C25.7494555,0.798403724 24.0432295,0 22.1548399,0 C18.5292735,0 15.5896073,2.94394357 15.5896073,6.57526098 C15.5896073,7.09054833 15.64764,7.59254845 15.7596399,8.0738074 C10.3032576,7.79963559 5.46575929,5.18171662 2.22786429,1.20350384 C1.66261955,2.17464225 1.33881693,3.30419101 1.33881693,4.50931525 C1.33881693,6.79064462 2.49783095,8.80324691 4.25946668,9.98237994 C3.18340331,9.94822187 2.17094637,9.65246635 1.285899,9.15999419 C1.28524327,9.18741145 1.28524327,9.21482858 1.28524327,9.24269947 C1.28524327,12.4284068 3.54818945,15.086058 6.55165871,15.6902081 C6.00084016,15.8405812 5.42077577,15.9209531 4.82208848,15.9209531 C4.39913852,15.9209531 3.98766396,15.8796005 3.58687789,15.8028583 C4.42228601,18.4150736 6.84674007,20.3163219 9.71965221,20.3691468 C7.47277157,22.1329204 4.64208885,23.1841066 1.56609515,23.1841066 C1.03626017,23.1841066 0.513638292,23.1529949 0,23.0921974 C2.90543667,24.9578618 6.35631484,26.0465116 10.0638482,26.0465116 C22.1394956,26.0465116 28.7431543,16.027057 28.7431543,7.33782148 C28.7431543,7.05276068 28.7365968,6.76925543 28.7239412,6.48724089 C30.0072172,5.56004768 31.1200019,4.40210955 32,3.08336283" id="Shape"></path>
                            </g>
                        </g>
                    </g>
                </g>
            </g>
        </g>
    </g>
</svg>