<?xml version="1.0" encoding="UTF-8"?>
<svg width="40px" height="40px" viewBox="0 0 40 40" version="1.1" xmlns="http://www.w3.org/2000/svg" xmlns:xlink="http://www.w3.org/1999/xlink">
    <!-- Generator: Sketch 55.1 (78136) - https://sketchapp.com -->
    <title>Group</title>
    <desc>Created with Sketch.</desc>
    <g id="Page-1" stroke="none" stroke-width="1" fill="none" fill-rule="evenodd">
        <g id="Desktop_useReact" transform="translate(-732.000000, -5510.000000)" fill="#FFFFFF">
            <g id="footer" transform="translate(-1.000000, 5449.000000)">
                <g id="Group-5" transform="translate(669.000000, 61.607477)">
                    <g id="Group" transform="translate(64.000000, 0.000000)">
                        <path d="M19.2523364,0 L20.7476636,0 C31.3804354,-1.9532085e-15 40,8.61956463 40,19.2523364 C40,29.8851083 31.3804354,38.5046729 20.7476636,38.5046729 L19.2523364,38.5046729 C8.61956463,38.5046729 1.302139e-15,29.8851083 0,19.2523364 C-1.302139e-15,8.61956463 8.61956463,1.9532085e-15 19.2523364,0 Z M30.9775752,27.9075394 C30.6754741,25.9624485 27.1028639,27.4624888 26.8824097,25.331324 C26.5702669,22.3072541 31.0306418,15.7899183 30.6787956,13.2598125 C30.3626361,10.9821409 28.8400032,10.5048448 27.5152694,10.4814784 C26.2283851,10.4580342 25.88828,10.6648262 25.4533193,10.9198307 C25.2023537,11.0664155 24.8417789,11.3569368 24.3410836,10.8770703 C24.0083939,10.5578084 23.7886348,10.3341927 23.4367114,10.0510707 C23.2574281,9.90651104 22.97178,9.72440947 22.4937171,9.65345372 C22.0149591,9.58257587 21.3953854,9.65345372 21.0016729,9.82348269 C20.607188,9.99413476 20.2977488,10.2919775 19.9737104,10.5758784 C19.6502899,10.8596235 18.8288777,11.7866435 18.0632356,11.4446384 C17.7312411,11.2967296 16.6069553,10.7304077 15.7955076,10.37633 C14.2290002,9.69294282 11.9699235,10.8000394 11.1564674,12.2578645 C9.94597737,14.4264932 7.5560494,22.947102 7.19416147,24.0709444 C6.38271372,26.5943519 8.22274198,28.6512117 10.7042813,28.5327444 C11.7534859,28.4825068 12.451385,28.0963393 13.1141382,26.8814461 C13.4972682,26.179989 17.0950599,16.7068909 17.362633,16.2524937 C17.5565153,15.9231064 18.2039741,15.4880254 18.7531786,15.7718484 C19.301688,16.0556714 19.4112199,16.6473846 19.330191,17.2049052 C19.1987218,18.1065338 16.6614123,23.8854937 16.563776,24.5395171 C16.3984739,25.6512091 16.9224197,26.2697157 18.0671751,26.3299229 C18.8521281,26.3721381 19.6336825,26.087692 20.2545694,24.9076147 C20.6018582,24.2476717 24.603404,16.1694654 24.9573358,15.6300148 C25.3464909,15.0382236 25.6591744,14.8435042 26.0556676,14.8642224 C26.3631758,14.8796442 26.8552198,14.9593233 26.7323247,15.8883685 C26.6115151,16.7992658 23.3941499,22.7269133 23.0568256,24.1787411 C22.6052574,26.1190808 23.6618002,28.0843446 25.402261,28.9443812 C26.5124884,29.4925552 31.3693566,30.432271 30.9775752,27.9075394 Z" id="Combined-Shape"></path>
                    </g>
                </g>
            </g>
        </g>
    </g>
</svg>